<svg viewBox="0 0 23 24" fill="none" xmlns="http://www.w3.org/2000/svg">
  <style>
    path {
      fill: black;
    }

    @media (prefers-color-scheme: dark) {
      path {
        fill: white;
      }
    }
  </style>
  <path
    d="M22.7474 0H13.994C13.922 0 13.8644 0.057592 13.8644 0.129578V5.87403C13.8644 5.94602 13.9076 5.9892 13.9796 6.0036C14.3107 6.04679 14.8434 6.07559 15.3041 6.08999C15.5345 6.08999 15.7361 6.10438 15.9088 6.10438H16.1248C16.1968 6.10438 16.2544 6.04679 16.2544 5.9748V2.5195C16.2544 2.44751 16.3119 2.38993 16.3839 2.38993H20.3575C20.4295 2.38993 20.4871 2.44751 20.4871 2.5195V21.4805C20.4871 21.5525 20.4295 21.6101 20.3575 21.6101H16.3407C16.3407 21.6101 16.3407 21.6101 16.3263 21.6101C16.2687 21.6101 16.2112 21.5669 16.2112 21.5093C16.2112 21.4949 16.2112 21.4949 16.2112 21.4805C15.88 18.0972 13.5045 15.3041 10.3803 14.2963C9.57409 14.0372 8.72466 13.9076 7.86083 13.9076H3.90162C3.82963 13.9076 3.77205 13.9652 3.77205 14.0372V16.168C3.77205 16.24 3.82963 16.2975 3.90162 16.2975H6.57948C6.57948 16.2975 6.60828 16.2975 6.68027 16.2975C7.06899 16.2975 8.55189 16.3119 9.07018 16.4127L9.14217 16.4271C9.32933 16.4703 9.5021 16.5135 9.67487 16.5711C10.7834 16.9166 11.7768 17.5933 12.5111 18.5003C13.3893 19.5657 13.8644 20.9046 13.8644 22.2867V23.8704C13.8644 23.9424 13.922 24 13.994 24H22.7618C22.8338 24 22.8914 23.9424 22.8914 23.8704V0.129578C22.877 0.057592 22.8194 0 22.7474 0ZM19.0186 7.45771H16.24C16.24 7.45771 15.808 7.45771 15.2897 7.44331C14.7714 7.42892 14.1812 7.40012 13.85 7.34253L13.8068 7.32814L13.7636 7.31374C13.2453 7.19857 12.7415 7.0114 12.2663 6.76665C11.5465 6.39232 10.8986 5.87403 10.3803 5.24055C9.5165 4.17517 9.027 2.82184 9.027 1.45411V0.129578C9.027 0.057592 8.96941 0 8.89742 0H0.129578C0.057592 0 0 0.057592 0 0.129578V23.8704C0 23.9424 0.057592 24 0.129578 24H8.89742C8.96941 24 9.027 23.9424 9.027 23.8704V17.8524C9.027 17.7804 8.98381 17.7373 8.91182 17.7229C8.5087 17.6653 7.78885 17.6365 7.25615 17.6221H6.79544C6.72346 17.6221 6.66587 17.6797 6.66587 17.7517V21.4661C6.66587 21.5381 6.60828 21.5957 6.5363 21.5957H2.56269C2.4907 21.5957 2.43312 21.5381 2.43312 21.4661V2.5195C2.43312 2.44751 2.4907 2.38993 2.56269 2.38993H6.60828C6.66587 2.38993 6.72346 2.43312 6.73785 2.49071C7.09778 5.37013 8.91182 7.80324 11.4313 9.0126C12.1656 9.37253 12.9718 9.61728 13.8068 9.74685C14.21 9.80444 14.6419 9.84763 15.0594 9.84763H19.0186C19.0906 9.84763 19.1482 9.79004 19.1482 9.71806V7.58728C19.1482 7.5153 19.0906 7.45771 19.0186 7.45771Z" />
</svg>