<svg width="140" height="26" viewBox="0 0 140 26" fill="none" xmlns="http://www.w3.org/2000/svg">
<g clip-path="url(#clip0_2119_6446)">
<path d="M108.532 20.4573C107.695 20.4573 106.937 20.242 106.257 19.8113C105.583 19.3759 105.047 18.7372 104.65 17.895C104.257 17.0481 104.061 16.0098 104.061 14.7802C104.061 13.517 104.264 12.4667 104.671 11.6294C105.078 10.7873 105.618 10.1581 106.293 9.74183C106.973 9.32077 107.717 9.11024 108.525 9.11024C109.142 9.11024 109.657 9.21551 110.068 9.42604C110.485 9.63178 110.819 9.89015 111.073 10.2012C111.331 10.5074 111.528 10.8088 111.662 11.1055H111.755V5.5791H114.805V20.2778H111.791V18.5123H111.662C111.518 18.8185 111.315 19.1223 111.052 19.4238C110.793 19.7204 110.456 19.9668 110.04 20.163C109.628 20.3592 109.126 20.4573 108.532 20.4573ZM109.501 18.0242C109.994 18.0242 110.41 17.8903 110.75 17.6223C111.095 17.3496 111.358 16.9692 111.54 16.4811C111.726 15.9931 111.82 15.4213 111.82 14.7658C111.82 14.1103 111.729 13.5409 111.547 13.0577C111.365 12.5744 111.102 12.2012 110.757 11.938C110.413 11.6749 109.994 11.5433 109.501 11.5433C108.999 11.5433 108.575 11.6797 108.231 11.9524C107.886 12.2251 107.626 12.6031 107.449 13.0864C107.272 13.5696 107.183 14.1294 107.183 14.7658C107.183 15.407 107.272 15.974 107.449 16.4668C107.63 16.9548 107.891 17.3376 108.231 17.6151C108.575 17.8879 108.999 18.0242 109.501 18.0242Z" fill="white"/>
<path d="M96.7134 20.2781V9.25409H99.6775V11.1776H99.7924C99.9933 10.4933 100.331 9.97659 100.804 9.6273C101.278 9.27323 101.823 9.09619 102.441 9.09619C102.594 9.09619 102.759 9.10576 102.936 9.1249C103.113 9.14404 103.268 9.17036 103.402 9.20385V11.9168C103.259 11.8737 103.06 11.8355 102.807 11.802C102.553 11.7685 102.321 11.7517 102.111 11.7517C101.661 11.7517 101.259 11.8498 100.905 12.046C100.556 12.2374 100.278 12.5053 100.072 12.8498C99.8713 13.1943 99.7708 13.5915 99.7708 14.0412V20.2781H96.7134Z" fill="white"/>
<path d="M88.1335 20.4861C87.4301 20.4861 86.8033 20.3641 86.2531 20.12C85.7028 19.8712 85.2674 19.5052 84.9468 19.022C84.631 18.5339 84.4731 17.9262 84.4731 17.199C84.4731 16.5865 84.5856 16.0722 84.8105 15.6559C85.0354 15.2396 85.3416 14.9047 85.7291 14.6511C86.1167 14.3975 86.5569 14.2061 87.0497 14.0769C87.5473 13.9477 88.0689 13.8568 88.6143 13.8042C89.2555 13.7372 89.7723 13.675 90.1646 13.6176C90.557 13.5554 90.8416 13.4645 91.0187 13.3448C91.1957 13.2252 91.2842 13.0482 91.2842 12.8137V12.7707C91.2842 12.3161 91.1407 11.9645 90.8536 11.7156C90.5713 11.4668 90.1694 11.3424 89.6478 11.3424C89.0976 11.3424 88.6598 11.4644 88.3344 11.7085C88.0091 11.9477 87.7938 12.2491 87.6885 12.6128L84.8607 12.3831C85.0042 11.7133 85.2866 11.1343 85.7076 10.6463C86.1287 10.1534 86.6717 9.77543 87.3368 9.51227C88.0067 9.24432 88.7818 9.11035 89.6622 9.11035C90.2747 9.11035 90.8608 9.18212 91.4206 9.32566C91.9852 9.46921 92.4852 9.6917 92.9206 9.99314C93.3608 10.2946 93.7077 10.6821 93.9613 11.1558C94.2149 11.6247 94.3417 12.1869 94.3417 12.8425V20.2779H91.4421V18.7492H91.356C91.179 19.0937 90.9421 19.3976 90.6455 19.6607C90.3488 19.9191 89.9924 20.1224 89.5761 20.2708C89.1598 20.4143 88.6789 20.4861 88.1335 20.4861ZM89.0091 18.376C89.4588 18.376 89.856 18.2875 90.2005 18.1105C90.545 17.9286 90.8153 17.6846 91.0115 17.3784C91.2077 17.0722 91.3058 16.7253 91.3058 16.3377V15.1678C91.2101 15.23 91.0785 15.2875 90.911 15.3401C90.7483 15.3879 90.5641 15.4334 90.3584 15.4765C90.1526 15.5147 89.9469 15.5506 89.7412 15.5841C89.5354 15.6128 89.3488 15.6391 89.1813 15.6631C88.8225 15.7157 88.5091 15.7994 88.2411 15.9143C87.9732 16.0291 87.7651 16.1846 87.6167 16.3808C87.4684 16.5722 87.3942 16.8114 87.3942 17.0985C87.3942 17.5148 87.545 17.8329 87.8464 18.053C88.1526 18.2684 88.5402 18.376 89.0091 18.376Z" fill="white"/>
<path d="M79.4865 15.5841V9.25391H82.5439V20.278H79.6085V18.2755H79.4936C79.2448 18.9215 78.8309 19.4406 78.252 19.833C77.6778 20.2253 76.9769 20.4215 76.1491 20.4215C75.4122 20.4215 74.7639 20.254 74.2041 19.9191C73.6443 19.5842 73.2065 19.1081 72.8907 18.4909C72.5797 17.8736 72.4218 17.1344 72.417 16.2731V9.25391H75.4744V15.7277C75.4792 16.3784 75.6539 16.8928 75.9984 17.2707C76.3429 17.6487 76.8046 17.8377 77.3836 17.8377C77.752 17.8377 78.0965 17.754 78.4171 17.5865C78.7376 17.4143 78.996 17.1607 79.1922 16.8258C79.3931 16.4908 79.4912 16.077 79.4865 15.5841Z" fill="white"/>
<path d="M66.8457 10.3306C66.7453 9.98134 66.6041 9.67273 66.4223 9.40478C66.2405 9.13205 66.018 8.90238 65.7548 8.71578C65.4964 8.52439 65.1998 8.37845 64.8648 8.27797C64.5347 8.17749 64.1687 8.12726 63.7667 8.12726C63.0155 8.12726 62.3552 8.31386 61.7859 8.68707C61.2213 9.06028 60.7811 9.60335 60.4653 10.3163C60.1495 11.0244 59.9916 11.8905 59.9916 12.9144C59.9916 13.9383 60.1471 14.8092 60.4581 15.5269C60.7691 16.2446 61.2093 16.7924 61.7787 17.1704C62.3481 17.5436 63.0203 17.7302 63.7955 17.7302C64.4988 17.7302 65.0993 17.6058 65.5969 17.357C66.0993 17.1034 66.4821 16.747 66.7453 16.2876C67.0132 15.8283 67.1472 15.2852 67.1472 14.6584L67.7788 14.7517H63.9892V12.412H70.14V14.2637C70.14 15.5556 69.8673 16.6656 69.3218 17.5939C68.7764 18.5173 68.0252 19.2303 67.0682 19.7327C66.1113 20.2303 65.0156 20.4791 63.7811 20.4791C62.4031 20.4791 61.1926 20.1752 60.1495 19.5676C59.1064 18.9551 58.293 18.0867 57.7093 16.9623C57.1303 15.8331 56.8408 14.4934 56.8408 12.9431C56.8408 11.7517 57.0131 10.6895 57.3576 9.75646C57.7069 8.81865 58.1949 8.02438 58.8217 7.37366C59.4485 6.72293 60.1782 6.22771 61.0107 5.88799C61.8433 5.54828 62.7452 5.37842 63.7165 5.37842C64.5491 5.37842 65.3242 5.50043 66.0419 5.74445C66.7596 5.98369 67.396 6.32341 67.951 6.7636C68.5108 7.2038 68.9678 7.72773 69.3218 8.33539C69.6759 8.93827 69.9032 9.60335 70.0037 10.3306H66.8457Z" fill="white"/>
<path d="M49.987 20.4933C48.853 20.4933 47.877 20.2636 47.0588 19.8043C46.2454 19.3401 45.6186 18.6846 45.1784 17.8377C44.7382 16.986 44.5181 15.9789 44.5181 14.8162C44.5181 13.6822 44.7382 12.6869 45.1784 11.8305C45.6186 10.974 46.2382 10.3065 47.0372 9.82806C47.8411 9.34959 48.7837 9.11035 49.865 9.11035C50.5923 9.11035 51.2693 9.22758 51.8961 9.46203C52.5277 9.6917 53.078 10.0386 53.5469 10.5027C54.0206 10.9668 54.389 11.5506 54.6522 12.2539C54.9153 12.9525 55.0469 13.7707 55.0469 14.7085V15.5482H45.7382V13.6535H52.1689C52.1689 13.2133 52.0732 12.8233 51.8818 12.4836C51.6904 12.1439 51.4248 11.8783 51.0851 11.6869C50.7502 11.4908 50.3602 11.3927 49.9153 11.3927C49.4511 11.3927 49.0397 11.5003 48.6808 11.7156C48.3267 11.9262 48.0492 12.2109 47.8482 12.5697C47.6473 12.9238 47.5444 13.3185 47.5396 13.7539V15.5554C47.5396 16.1009 47.6401 16.5722 47.8411 16.9693C48.0468 17.3664 48.3363 17.6727 48.7095 17.888C49.0827 18.1033 49.5253 18.2109 50.0373 18.2109C50.377 18.2109 50.688 18.1631 50.9703 18.0674C51.2526 17.9717 51.4942 17.8282 51.6952 17.6368C51.8961 17.4454 52.0493 17.2109 52.1545 16.9334L54.9823 17.12C54.8388 17.7994 54.5445 18.3928 54.0995 18.8999C53.6593 19.4023 53.0899 19.7947 52.3914 20.077C51.6976 20.3545 50.8961 20.4933 49.987 20.4933Z" fill="white"/>
<path d="M26.5283 20.2779V9.25389H29.4422V11.1989H29.5714C29.8011 10.553 30.1839 10.0434 30.7198 9.67016C31.2557 9.29695 31.8968 9.11035 32.6432 9.11035C33.3992 9.11035 34.0428 9.29935 34.5739 9.67734C35.105 10.0506 35.4591 10.5577 35.6361 11.1989H35.7509C35.9758 10.5673 36.3825 10.0625 36.971 9.68452C37.5643 9.30174 38.2653 9.11035 39.0739 9.11035C40.1026 9.11035 40.9376 9.43811 41.5787 10.0936C42.2247 10.7443 42.5477 11.6678 42.5477 12.864V20.2779H39.4974V13.4669C39.4974 12.8544 39.3347 12.3951 39.0093 12.0889C38.684 11.7826 38.2773 11.6295 37.7892 11.6295C37.2342 11.6295 36.8012 11.8066 36.4902 12.1606C36.1792 12.5099 36.0236 12.9716 36.0236 13.5458V20.2779H33.0595V13.4023C33.0595 12.8616 32.904 12.431 32.593 12.1104C32.2868 11.7898 31.8825 11.6295 31.3801 11.6295C31.0403 11.6295 30.7341 11.7156 30.4614 11.8879C30.1934 12.0554 29.9805 12.2922 29.8226 12.5984C29.6647 12.8999 29.5858 13.2539 29.5858 13.6606V20.2779H26.5283Z" fill="white"/>
<path d="M17.9484 20.4861C17.2451 20.4861 16.6183 20.3641 16.068 20.12C15.5178 19.8712 15.0824 19.5052 14.7618 19.022C14.446 18.5339 14.2881 17.9262 14.2881 17.199C14.2881 16.5865 14.4005 16.0722 14.6254 15.6559C14.8503 15.2396 15.1565 14.9047 15.5441 14.6511C15.9316 14.3975 16.3718 14.2061 16.8647 14.0769C17.3623 13.9477 17.8838 13.8568 18.4293 13.8042C19.0704 13.7372 19.5872 13.675 19.9795 13.6176C20.3719 13.5554 20.6566 13.4645 20.8336 13.3448C21.0107 13.2252 21.0992 13.0482 21.0992 12.8137V12.7707C21.0992 12.3161 20.9556 11.9645 20.6685 11.7156C20.3862 11.4668 19.9843 11.3424 19.4628 11.3424C18.9125 11.3424 18.4747 11.4644 18.1494 11.7085C17.824 11.9477 17.6087 12.2491 17.5034 12.6128L14.6757 12.3831C14.8192 11.7133 15.1015 11.1343 15.5226 10.6463C15.9436 10.1534 16.4867 9.77543 17.1518 9.51227C17.8216 9.24432 18.5968 9.11035 19.4771 9.11035C20.0896 9.11035 20.6757 9.18212 21.2355 9.32566C21.8001 9.46921 22.3001 9.6917 22.7356 9.99314C23.1758 10.2946 23.5226 10.6821 23.7762 11.1558C24.0298 11.6247 24.1566 12.1869 24.1566 12.8425V20.2779H21.2571V18.7492H21.1709C20.9939 19.0937 20.7571 19.3976 20.4604 19.6607C20.1638 19.9191 19.8073 20.1224 19.391 20.2708C18.9747 20.4143 18.4939 20.4861 17.9484 20.4861ZM18.824 18.376C19.2738 18.376 19.6709 18.2875 20.0154 18.1105C20.3599 17.9286 20.6303 17.6846 20.8264 17.3784C21.0226 17.0722 21.1207 16.7253 21.1207 16.3377V15.1678C21.025 15.23 20.8934 15.2875 20.726 15.3401C20.5633 15.3879 20.3791 15.4334 20.1733 15.4765C19.9676 15.5147 19.7618 15.5506 19.5561 15.5841C19.3503 15.6128 19.1637 15.6391 18.9963 15.6631C18.6374 15.7157 18.324 15.7994 18.0561 15.9143C17.7881 16.0291 17.58 16.1846 17.4317 16.3808C17.2833 16.5722 17.2092 16.8114 17.2092 17.0985C17.2092 17.5148 17.3599 17.8329 17.6613 18.053C17.9676 18.2684 18.3551 18.376 18.824 18.376Z" fill="white"/>
<path d="M12.2944 5.5791V20.2778H9.61016L3.21535 11.0265H3.10769V20.2778H0V5.5791H2.72731L9.07188 14.8232H9.20107V5.5791H12.2944Z" fill="white"/>
<rect x="120" width="19.6649" height="10.8052" rx="1.99725" fill="white"/>
<path d="M136.595 5.14519L135.893 5.22179C135.873 5.15086 135.838 5.0842 135.789 5.02178C135.74 4.95937 135.675 4.90901 135.593 4.87071C135.511 4.83241 135.41 4.81326 135.291 4.81326C135.13 4.81326 134.996 4.84802 134.886 4.91752C134.779 4.98703 134.725 5.0771 134.727 5.18775C134.725 5.28279 134.76 5.36009 134.831 5.41967C134.903 5.47925 135.023 5.52819 135.189 5.56649L135.746 5.68564C136.055 5.75231 136.285 5.85799 136.435 6.00267C136.587 6.14736 136.664 6.33673 136.665 6.57078C136.664 6.77647 136.603 6.95803 136.484 7.11549C136.367 7.27152 136.203 7.39351 135.993 7.48146C135.783 7.56941 135.542 7.61338 135.269 7.61338C134.869 7.61338 134.547 7.52969 134.303 7.36231C134.059 7.1935 133.914 6.95874 133.867 6.65802L134.618 6.58568C134.652 6.7332 134.725 6.84455 134.835 6.91973C134.946 6.99491 135.09 7.0325 135.267 7.0325C135.45 7.0325 135.597 6.99491 135.708 6.91973C135.82 6.84455 135.876 6.75164 135.876 6.641C135.876 6.54738 135.84 6.47007 135.767 6.40907C135.696 6.34808 135.586 6.30127 135.435 6.26864L134.878 6.15162C134.564 6.08637 134.332 5.97643 134.182 5.82182C134.032 5.66578 133.957 5.46861 133.959 5.2303C133.957 5.02887 134.012 4.8544 134.123 4.70687C134.235 4.55793 134.39 4.44303 134.588 4.36218C134.789 4.27991 135.019 4.23877 135.28 4.23877C135.663 4.23877 135.964 4.32033 136.184 4.48346C136.406 4.64659 136.542 4.86716 136.595 5.14519Z" fill="black"/>
<path d="M131.979 7.61338C131.653 7.61338 131.373 7.54175 131.139 7.39848C130.906 7.25521 130.727 7.05733 130.6 6.80484C130.475 6.55092 130.413 6.25871 130.413 5.9282C130.413 5.59627 130.477 5.30335 130.605 5.04944C130.732 4.79411 130.912 4.59552 131.145 4.45367C131.379 4.3104 131.656 4.23877 131.975 4.23877C132.24 4.23877 132.475 4.28771 132.679 4.38558C132.885 4.48204 133.049 4.61893 133.171 4.79624C133.293 4.97213 133.362 5.17782 133.379 5.41329H132.643C132.613 5.25583 132.542 5.12462 132.43 5.01965C132.32 4.91327 132.171 4.86007 131.985 4.86007C131.828 4.86007 131.69 4.90263 131.571 4.98774C131.451 5.07143 131.359 5.192 131.292 5.34945C131.227 5.50691 131.194 5.69557 131.194 5.91544C131.194 6.13814 131.227 6.32964 131.292 6.48993C131.357 6.6488 131.449 6.7715 131.566 6.85803C131.685 6.94314 131.825 6.98569 131.985 6.98569C132.099 6.98569 132.2 6.96442 132.29 6.92186C132.381 6.87789 132.456 6.81477 132.517 6.73249C132.578 6.65022 132.62 6.55021 132.643 6.43248H133.379C133.361 6.66369 133.293 6.86867 133.175 7.0474C133.057 7.22471 132.897 7.36372 132.694 7.46444C132.491 7.56373 132.253 7.61338 131.979 7.61338Z" fill="black"/>
<path d="M128.334 7.61338C128.014 7.61338 127.738 7.54316 127.504 7.40273C127.27 7.2623 127.088 7.06584 126.959 6.81335C126.831 6.56085 126.768 6.26581 126.768 5.9282C126.768 5.5906 126.831 5.29484 126.959 5.04093C127.088 4.78702 127.27 4.58985 127.504 4.44942C127.738 4.30899 128.014 4.23877 128.334 4.23877C128.653 4.23877 128.929 4.30899 129.163 4.44942C129.397 4.58985 129.578 4.78702 129.706 5.04093C129.835 5.29484 129.9 5.5906 129.9 5.9282C129.9 6.26581 129.835 6.56085 129.706 6.81335C129.578 7.06584 129.397 7.2623 129.163 7.40273C128.929 7.54316 128.653 7.61338 128.334 7.61338ZM128.338 6.99633C128.511 6.99633 128.656 6.94881 128.772 6.85377C128.888 6.75732 128.975 6.62823 129.032 6.46652C129.09 6.30481 129.119 6.12466 129.119 5.92607C129.119 5.72607 129.09 5.54521 129.032 5.3835C128.975 5.22037 128.888 5.09058 128.772 4.99412C128.656 4.89766 128.511 4.84943 128.338 4.84943C128.161 4.84943 128.013 4.89766 127.895 4.99412C127.779 5.09058 127.692 5.22037 127.634 5.3835C127.577 5.54521 127.548 5.72607 127.548 5.92607C127.548 6.12466 127.577 6.30481 127.634 6.46652C127.692 6.62823 127.779 6.75732 127.895 6.85377C128.013 6.94881 128.161 6.99633 128.338 6.99633Z" fill="black"/>
<path d="M124.347 7.60698C124.09 7.60698 123.86 7.54102 123.657 7.40909C123.455 7.27717 123.294 7.08568 123.177 6.8346C123.059 6.58353 123 6.27855 123 5.91967C123 5.55653 123.06 5.25014 123.179 5.00048C123.299 4.74941 123.462 4.56004 123.666 4.43237C123.87 4.30329 124.098 4.23875 124.349 4.23875C124.54 4.23875 124.698 4.27137 124.821 4.33662C124.945 4.40046 125.043 4.47776 125.115 4.56855C125.187 4.65791 125.243 4.74231 125.283 4.82175H125.315V3.19189H126.087V7.54953H125.33V7.03461H125.283C125.243 7.11405 125.186 7.19845 125.111 7.28781C125.036 7.37576 124.936 7.45094 124.813 7.51335C124.689 7.57577 124.534 7.60698 124.347 7.60698ZM124.562 6.97503C124.725 6.97503 124.864 6.93106 124.979 6.84311C125.094 6.75375 125.181 6.62963 125.241 6.47076C125.3 6.31188 125.33 6.12677 125.33 5.91541C125.33 5.70406 125.3 5.52036 125.241 5.36433C125.182 5.20829 125.096 5.08701 124.981 5.00048C124.867 4.91395 124.728 4.87069 124.562 4.87069C124.39 4.87069 124.247 4.91537 124.132 5.00474C124.017 5.0941 123.931 5.21751 123.872 5.37497C123.814 5.53242 123.785 5.71257 123.785 5.91541C123.785 6.11968 123.814 6.30196 123.872 6.46225C123.932 6.62112 124.019 6.74665 124.134 6.83886C124.25 6.92964 124.393 6.97503 124.562 6.97503Z" fill="black"/>
</g>
<defs>
<clipPath id="clip0_2119_6446">
<rect width="140" height="26" fill="white"/>
</clipPath>
</defs>
</svg>
