<?xml version="1.0" standalone="no"?>
<!DOCTYPE svg PUBLIC "-//W3C//DTD SVG 20010904//EN" "http://www.w3.org/TR/2001/REC-SVG-20010904/DTD/svg10.dtd">
<svg version="1.0" xmlns="http://www.w3.org/2000/svg" width="700.000000pt" height="700.000000pt"
  viewBox="0 0 700.000000 700.000000" preserveAspectRatio="xMidYMid meet">
  <style>
    path {
      fill: black;
    }

    @media (prefers-color-scheme: dark) {
      path {
        fill: white;
      }
    }
  </style>
  <metadata>
    Created by potrace 1.14, written by Peter Selinger 2001-2017
  </metadata>
  <g transform="translate(0.000000,700.000000) scale(0.100000,-0.100000)" fill="#000000" stroke="none">
    <path d="M1532 3508 l3 -2063 770 0 770 0 0 535 0 534 -35 7 c-19 4 -109 9
-200 11 l-165 3 -3 -337 -2 -338 -23 -5 c-12 -3 -175 -4 -362 -3 l-340 3 0
1650 0 1650 364 0 365 0 22 -110 c105 -517 469 -928 969 -1094 198 -65 269
-72 740 -69 l410 3 3 180 c1 99 0 190 -3 203 l-5 22 -343 0 c-425 0 -548 10
-670 50 -346 116 -592 378 -684 728 -22 82 -26 128 -32 297 l-6 200 -773 3
-772 2 2 -2062z" />
    <path d="M3910 5056 l0 -515 43 -6 c23 -3 114 -7 202 -8 l160 -2 5 315 5 315
360 0 360 0 0 -1650 0 -1650 -364 0 -364 0 -19 110 c-47 283 -173 540 -368
748 -219 234 -496 385 -813 444 -78 15 -158 18 -517 18 l-425 0 -3 -202 -2
-203 287 0 c384 -1 591 -13 690 -40 323 -90 598 -348 703 -659 40 -121 52
-202 59 -416 l6 -210 770 0 770 0 0 2060 0 2060 -772 3 -773 2 0 -514z" />
  </g>
</svg>