<svg width="484" height="369" viewBox="0 0 484 369" fill="none" xmlns="http://www.w3.org/2000/svg">
    <rect x="60.5" y="228.5" width="423" height="63" rx="7.5" stroke="#E9ECFA"/>
    <rect opacity="0.5" x="76" y="244" width="32" height="32" rx="16" fill="#D0D3E2"/>
    <g opacity="0.5">
        <rect x="118" y="258" width="350" height="4" fill="#D0D3E2"/>
    </g>
    <rect x="60.5" y="305.5" width="423" height="63" rx="7.5" stroke="#E9ECFA"/>
    <rect opacity="0.5" x="76" y="321" width="32" height="32" rx="16" fill="#D0D3E2"/>
    <g opacity="0.5">
        <rect x="118" y="335" width="350" height="4" fill="#D0D3E2"/>
    </g>
    <rect x="0.5" y="71.5" width="447" height="270" rx="11.5" fill="white"/>
    <rect x="0.5" y="71.5" width="447" height="270" rx="11.5" stroke="#EBEBEB"/>
    <path d="M24.0696 99.4545V114H21.4347V99.4545H24.0696ZM26.8093 114V103.091H29.2667V104.945H29.3945C29.6218 104.32 29.9982 103.832 30.5238 103.482C31.0494 103.126 31.6767 102.949 32.4059 102.949C33.1445 102.949 33.7672 103.129 34.2738 103.489C34.7852 103.844 35.145 104.329 35.3533 104.945H35.467C35.7085 104.339 36.1156 103.856 36.6886 103.496C37.2662 103.131 37.9504 102.949 38.7411 102.949C39.7449 102.949 40.564 103.266 41.1985 103.901C41.833 104.535 42.1502 105.461 42.1502 106.678V114H39.5721V107.075C39.5721 106.398 39.3922 105.903 39.0323 105.591C38.6725 105.274 38.2321 105.115 37.7113 105.115C37.091 105.115 36.6057 105.309 36.2553 105.697C35.9097 106.081 35.7369 106.58 35.7369 107.196V114H33.2156V106.969C33.2156 106.405 33.0451 105.955 32.7042 105.619C32.368 105.283 31.9277 105.115 31.3832 105.115C31.0138 105.115 30.6777 105.21 30.3746 105.399C30.0716 105.584 29.8301 105.847 29.6502 106.188C29.4703 106.524 29.3803 106.917 29.3803 107.366V114H26.8093ZM44.7585 118.091V103.091H47.2869V104.895H47.4361C47.5687 104.63 47.7557 104.348 47.9972 104.05C48.2386 103.747 48.5653 103.489 48.9773 103.276C49.3892 103.058 49.9148 102.949 50.554 102.949C51.3968 102.949 52.1567 103.164 52.8338 103.595C53.5156 104.021 54.0554 104.653 54.4531 105.491C54.8556 106.325 55.0568 107.348 55.0568 108.56C55.0568 109.758 54.8603 110.776 54.4673 111.614C54.0743 112.452 53.5393 113.091 52.8622 113.531C52.1851 113.972 51.4181 114.192 50.5611 114.192C49.9361 114.192 49.4176 114.088 49.0057 113.879C48.5938 113.671 48.2623 113.42 48.0114 113.126C47.7652 112.828 47.5734 112.546 47.4361 112.281H47.3295V118.091H44.7585ZM47.2798 108.545C47.2798 109.251 47.3793 109.869 47.5781 110.399C47.7817 110.929 48.0729 111.344 48.4517 111.642C48.8352 111.936 49.2992 112.082 49.8438 112.082C50.4119 112.082 50.8878 111.931 51.2713 111.628C51.6548 111.32 51.9437 110.901 52.1378 110.371C52.3366 109.836 52.4361 109.227 52.4361 108.545C52.4361 107.868 52.339 107.267 52.1449 106.741C51.9508 106.216 51.6619 105.804 51.2784 105.506C50.8949 105.207 50.4167 105.058 49.8438 105.058C49.2945 105.058 48.8281 105.203 48.4446 105.491C48.0611 105.78 47.7699 106.185 47.571 106.706C47.3769 107.227 47.2798 107.84 47.2798 108.545ZM57.2585 114V103.091H59.7514V104.909H59.8651C60.0639 104.279 60.4048 103.794 60.8878 103.453C61.3755 103.107 61.9318 102.935 62.5568 102.935C62.6989 102.935 62.8575 102.942 63.0327 102.956C63.2126 102.965 63.3617 102.982 63.4801 103.006V105.371C63.3712 105.333 63.1984 105.3 62.9616 105.271C62.7296 105.238 62.5047 105.222 62.2869 105.222C61.8182 105.222 61.3968 105.323 61.0227 105.527C60.6534 105.726 60.3622 106.003 60.1491 106.358C59.9361 106.713 59.8295 107.123 59.8295 107.587V114H57.2585ZM69.4975 114.213C68.4322 114.213 67.5089 113.979 66.7276 113.51C65.9464 113.041 65.3403 112.385 64.9094 111.543C64.4833 110.7 64.2702 109.715 64.2702 108.588C64.2702 107.461 64.4833 106.474 64.9094 105.626C65.3403 104.779 65.9464 104.121 66.7276 103.652C67.5089 103.183 68.4322 102.949 69.4975 102.949C70.5629 102.949 71.4862 103.183 72.2674 103.652C73.0487 104.121 73.6523 104.779 74.0785 105.626C74.5094 106.474 74.7248 107.461 74.7248 108.588C74.7248 109.715 74.5094 110.7 74.0785 111.543C73.6523 112.385 73.0487 113.041 72.2674 113.51C71.4862 113.979 70.5629 114.213 69.4975 114.213ZM69.5117 112.153C70.0894 112.153 70.5723 111.995 70.9606 111.678C71.3488 111.356 71.6377 110.925 71.8271 110.385C72.0212 109.845 72.1183 109.244 72.1183 108.581C72.1183 107.913 72.0212 107.31 71.8271 106.77C71.6377 106.225 71.3488 105.792 70.9606 105.47C70.5723 105.148 70.0894 104.987 69.5117 104.987C68.9199 104.987 68.4274 105.148 68.0344 105.47C67.6462 105.792 67.355 106.225 67.1609 106.77C66.9715 107.31 66.8768 107.913 66.8768 108.581C66.8768 109.244 66.9715 109.845 67.1609 110.385C67.355 110.925 67.6462 111.356 68.0344 111.678C68.4274 111.995 68.9199 112.153 69.5117 112.153ZM86.2802 103.091L82.3952 114H79.5543L75.6694 103.091H78.4109L80.918 111.195H81.0316L83.5458 103.091H86.2802ZM92.5178 114.213C91.424 114.213 90.4794 113.986 89.6839 113.531C88.8932 113.072 88.2848 112.423 87.8587 111.585C87.4325 110.742 87.2195 109.75 87.2195 108.609C87.2195 107.487 87.4325 106.502 87.8587 105.655C88.2895 104.803 88.8909 104.14 89.6626 103.666C90.4344 103.188 91.3411 102.949 92.3828 102.949C93.0552 102.949 93.6896 103.058 94.2862 103.276C94.8875 103.489 95.4179 103.82 95.8771 104.27C96.3411 104.72 96.7057 105.293 96.9709 105.989C97.236 106.68 97.3686 107.504 97.3686 108.46V109.249H88.4268V107.516H94.9041C94.8994 107.023 94.7929 106.585 94.5845 106.202C94.3762 105.813 94.085 105.508 93.7109 105.286C93.3416 105.063 92.9107 104.952 92.4183 104.952C91.8928 104.952 91.4311 105.08 91.0334 105.335C90.6357 105.586 90.3255 105.918 90.103 106.33C89.8852 106.737 89.7739 107.184 89.7692 107.672V109.185C89.7692 109.819 89.8852 110.364 90.1172 110.818C90.3492 111.268 90.6735 111.614 91.0902 111.855C91.5069 112.092 91.9946 112.21 92.5533 112.21C92.9273 112.21 93.2659 112.158 93.5689 112.054C93.8719 111.945 94.1347 111.786 94.3572 111.578C94.5798 111.37 94.7479 111.112 94.8615 110.804L97.2621 111.074C97.1106 111.708 96.8217 112.262 96.3956 112.736C95.9742 113.205 95.4344 113.569 94.7763 113.83C94.1181 114.085 93.3653 114.213 92.5178 114.213ZM106.103 118.091C105.752 118.091 105.428 118.063 105.13 118.006C104.836 117.954 104.602 117.892 104.426 117.821L105.023 115.818C105.397 115.927 105.731 115.979 106.025 115.974C106.318 115.97 106.576 115.877 106.799 115.697C107.026 115.522 107.218 115.229 107.374 114.817L107.594 114.227L103.638 103.091H106.365L108.88 111.33H108.993L111.515 103.091H114.249L109.881 115.321C109.677 115.899 109.408 116.393 109.071 116.805C108.735 117.222 108.323 117.539 107.836 117.757C107.353 117.98 106.775 118.091 106.103 118.091ZM120.415 114.213C119.35 114.213 118.427 113.979 117.646 113.51C116.864 113.041 116.258 112.385 115.827 111.543C115.401 110.7 115.188 109.715 115.188 108.588C115.188 107.461 115.401 106.474 115.827 105.626C116.258 104.779 116.864 104.121 117.646 103.652C118.427 103.183 119.35 102.949 120.415 102.949C121.481 102.949 122.404 103.183 123.185 103.652C123.967 104.121 124.57 104.779 124.996 105.626C125.427 106.474 125.643 107.461 125.643 108.588C125.643 109.715 125.427 110.7 124.996 111.543C124.57 112.385 123.967 113.041 123.185 113.51C122.404 113.979 121.481 114.213 120.415 114.213ZM120.43 112.153C121.007 112.153 121.49 111.995 121.879 111.678C122.267 111.356 122.556 110.925 122.745 110.385C122.939 109.845 123.036 109.244 123.036 108.581C123.036 107.913 122.939 107.31 122.745 106.77C122.556 106.225 122.267 105.792 121.879 105.47C121.49 105.148 121.007 104.987 120.43 104.987C119.838 104.987 119.345 105.148 118.952 105.47C118.564 105.792 118.273 106.225 118.079 106.77C117.889 107.31 117.795 107.913 117.795 108.581C117.795 109.244 117.889 109.845 118.079 110.385C118.273 110.925 118.564 111.356 118.952 111.678C119.345 111.995 119.838 112.153 120.43 112.153ZM134.778 109.412V103.091H137.349V114H134.856V112.061H134.743C134.496 112.672 134.092 113.171 133.528 113.56C132.969 113.948 132.28 114.142 131.461 114.142C130.746 114.142 130.114 113.983 129.565 113.666C129.02 113.344 128.594 112.878 128.287 112.267C127.979 111.652 127.825 110.908 127.825 110.037V103.091H130.396V109.639C130.396 110.33 130.585 110.88 130.964 111.287C131.343 111.694 131.84 111.898 132.456 111.898C132.834 111.898 133.201 111.805 133.556 111.621C133.912 111.436 134.203 111.161 134.43 110.797C134.662 110.428 134.778 109.966 134.778 109.412ZM139.993 114V103.091H142.486V104.909H142.599C142.798 104.279 143.139 103.794 143.622 103.453C144.11 103.107 144.666 102.935 145.291 102.935C145.433 102.935 145.592 102.942 145.767 102.956C145.947 102.965 146.096 102.982 146.214 103.006V105.371C146.106 105.333 145.933 105.3 145.696 105.271C145.464 105.238 145.239 105.222 145.021 105.222C144.553 105.222 144.131 105.323 143.757 105.527C143.388 105.726 143.097 106.003 142.884 106.358C142.67 106.713 142.564 107.123 142.564 107.587V114H139.993ZM161.506 105.974L159.162 106.23C159.096 105.993 158.98 105.771 158.814 105.562C158.653 105.354 158.435 105.186 158.161 105.058C157.886 104.93 157.55 104.866 157.152 104.866C156.617 104.866 156.167 104.982 155.803 105.214C155.443 105.446 155.265 105.747 155.27 106.116C155.265 106.434 155.381 106.692 155.618 106.891C155.859 107.089 156.257 107.253 156.811 107.381L158.672 107.778C159.704 108.001 160.471 108.354 160.973 108.837C161.48 109.32 161.735 109.952 161.74 110.733C161.735 111.42 161.534 112.026 161.136 112.551C160.743 113.072 160.196 113.479 159.496 113.773C158.795 114.066 157.99 114.213 157.081 114.213C155.746 114.213 154.671 113.934 153.857 113.375C153.042 112.812 152.557 112.028 152.401 111.024L154.908 110.783C155.021 111.275 155.263 111.647 155.632 111.898C156.001 112.149 156.482 112.274 157.074 112.274C157.685 112.274 158.175 112.149 158.544 111.898C158.918 111.647 159.105 111.337 159.105 110.967C159.105 110.655 158.984 110.397 158.743 110.193C158.506 109.99 158.137 109.833 157.635 109.724L155.774 109.334C154.728 109.116 153.954 108.749 153.452 108.233C152.95 107.712 152.701 107.054 152.706 106.259C152.701 105.586 152.884 105.004 153.253 104.511C153.627 104.014 154.145 103.631 154.808 103.361C155.476 103.086 156.245 102.949 157.116 102.949C158.395 102.949 159.401 103.221 160.135 103.766C160.874 104.31 161.33 105.046 161.506 105.974ZM168.619 114.213C167.53 114.213 166.594 113.974 165.813 113.496C165.037 113.018 164.438 112.357 164.016 111.514C163.6 110.667 163.391 109.691 163.391 108.588C163.391 107.48 163.604 106.502 164.031 105.655C164.457 104.803 165.058 104.14 165.835 103.666C166.616 103.188 167.539 102.949 168.604 102.949C169.49 102.949 170.273 103.112 170.955 103.439C171.642 103.761 172.189 104.218 172.596 104.81C173.003 105.397 173.235 106.083 173.292 106.869H170.835C170.735 106.344 170.498 105.906 170.124 105.555C169.755 105.2 169.26 105.023 168.64 105.023C168.114 105.023 167.653 105.165 167.255 105.449C166.857 105.728 166.547 106.131 166.325 106.656C166.107 107.182 165.998 107.812 165.998 108.545C165.998 109.289 166.107 109.928 166.325 110.463C166.542 110.993 166.848 111.403 167.241 111.692C167.638 111.976 168.105 112.118 168.64 112.118C169.019 112.118 169.357 112.047 169.656 111.905C169.959 111.758 170.212 111.547 170.415 111.273C170.619 110.998 170.759 110.664 170.835 110.271H173.292C173.23 111.043 173.003 111.727 172.61 112.324C172.217 112.916 171.682 113.38 171.005 113.716C170.328 114.047 169.532 114.213 168.619 114.213ZM180.162 114.213C179.096 114.213 178.173 113.979 177.392 113.51C176.61 113.041 176.004 112.385 175.574 111.543C175.147 110.7 174.934 109.715 174.934 108.588C174.934 107.461 175.147 106.474 175.574 105.626C176.004 104.779 176.61 104.121 177.392 103.652C178.173 103.183 179.096 102.949 180.162 102.949C181.227 102.949 182.15 103.183 182.931 103.652C183.713 104.121 184.316 104.779 184.743 105.626C185.173 106.474 185.389 107.461 185.389 108.588C185.389 109.715 185.173 110.7 184.743 111.543C184.316 112.385 183.713 113.041 182.931 113.51C182.15 113.979 181.227 114.213 180.162 114.213ZM180.176 112.153C180.753 112.153 181.236 111.995 181.625 111.678C182.013 111.356 182.302 110.925 182.491 110.385C182.685 109.845 182.782 109.244 182.782 108.581C182.782 107.913 182.685 107.31 182.491 106.77C182.302 106.225 182.013 105.792 181.625 105.47C181.236 105.148 180.753 104.987 180.176 104.987C179.584 104.987 179.092 105.148 178.699 105.47C178.31 105.792 178.019 106.225 177.825 106.77C177.636 107.31 177.541 107.913 177.541 108.581C177.541 109.244 177.636 109.845 177.825 110.385C178.019 110.925 178.31 111.356 178.699 111.678C179.092 111.995 179.584 112.153 180.176 112.153ZM187.571 114V103.091H190.064V104.909H190.178C190.376 104.279 190.717 103.794 191.2 103.453C191.688 103.107 192.244 102.935 192.869 102.935C193.011 102.935 193.17 102.942 193.345 102.956C193.525 102.965 193.674 102.982 193.793 103.006V105.371C193.684 105.333 193.511 105.3 193.274 105.271C193.042 105.238 192.817 105.222 192.599 105.222C192.131 105.222 191.709 105.323 191.335 105.527C190.966 105.726 190.675 106.003 190.462 106.358C190.249 106.713 190.142 107.123 190.142 107.587V114H187.571ZM199.881 114.213C198.787 114.213 197.843 113.986 197.047 113.531C196.257 113.072 195.648 112.423 195.222 111.585C194.796 110.742 194.583 109.75 194.583 108.609C194.583 107.487 194.796 106.502 195.222 105.655C195.653 104.803 196.254 104.14 197.026 103.666C197.798 103.188 198.704 102.949 199.746 102.949C200.418 102.949 201.053 103.058 201.65 103.276C202.251 103.489 202.781 103.82 203.24 104.27C203.704 104.72 204.069 105.293 204.334 105.989C204.599 106.68 204.732 107.504 204.732 108.46V109.249H195.79V107.516H202.267C202.263 107.023 202.156 106.585 201.948 106.202C201.739 105.813 201.448 105.508 201.074 105.286C200.705 105.063 200.274 104.952 199.782 104.952C199.256 104.952 198.794 105.08 198.397 105.335C197.999 105.586 197.689 105.918 197.466 106.33C197.248 106.737 197.137 107.184 197.132 107.672V109.185C197.132 109.819 197.248 110.364 197.48 110.818C197.712 111.268 198.037 111.614 198.453 111.855C198.87 112.092 199.358 112.21 199.917 112.21C200.291 112.21 200.629 112.158 200.932 112.054C201.235 111.945 201.498 111.786 201.721 111.578C201.943 111.37 202.111 111.112 202.225 110.804L204.625 111.074C204.474 111.708 204.185 112.262 203.759 112.736C203.337 113.205 202.798 113.569 202.14 113.83C201.481 114.085 200.729 114.213 199.881 114.213Z" fill="black"/>
    <path d="M30.5 149.875L33.125 152.5L37.5 146.375M44.5 149C44.5 154.799 39.799 159.5 34 159.5C28.201 159.5 23.5 154.799 23.5 149C23.5 143.201 28.201 138.5 34 138.5C39.799 138.5 44.5 143.201 44.5 149Z" stroke="#059669" strokeWidth="1.5" stroke-linecap="round" stroke-linejoin="round"/>
    <path d="M67.625 146.42C67.5644 145.883 67.3144 145.466 66.875 145.17C66.4356 144.871 65.8826 144.722 65.2159 144.722C64.7386 144.722 64.3258 144.797 63.9773 144.949C63.6288 145.097 63.358 145.301 63.1648 145.562C62.9754 145.82 62.8807 146.114 62.8807 146.443C62.8807 146.72 62.9451 146.958 63.0739 147.159C63.2064 147.36 63.3788 147.528 63.5909 147.665C63.8068 147.797 64.0379 147.909 64.2841 148C64.5303 148.087 64.767 148.159 64.9943 148.216L66.1307 148.511C66.5019 148.602 66.8826 148.725 67.2727 148.881C67.6629 149.036 68.0246 149.241 68.358 149.494C68.6913 149.748 68.9602 150.062 69.1648 150.438C69.3731 150.812 69.4773 151.261 69.4773 151.784C69.4773 152.443 69.3068 153.028 68.9659 153.54C68.6288 154.051 68.1383 154.455 67.4943 154.75C66.8542 155.045 66.0795 155.193 65.1705 155.193C64.2992 155.193 63.5455 155.055 62.9091 154.778C62.2727 154.502 61.7746 154.11 61.4148 153.602C61.0549 153.091 60.8561 152.485 60.8182 151.784H62.5795C62.6136 152.205 62.75 152.555 62.9886 152.835C63.2311 153.112 63.5398 153.318 63.9148 153.455C64.2936 153.587 64.7083 153.653 65.1591 153.653C65.6553 153.653 66.0966 153.576 66.483 153.42C66.8731 153.261 67.1799 153.042 67.4034 152.761C67.6269 152.477 67.7386 152.146 67.7386 151.767C67.7386 151.422 67.6402 151.14 67.4432 150.92C67.25 150.701 66.9867 150.519 66.6534 150.375C66.3239 150.231 65.9508 150.104 65.5341 149.994L64.1591 149.619C63.2273 149.366 62.4886 148.992 61.9432 148.5C61.4015 148.008 61.1307 147.356 61.1307 146.545C61.1307 145.875 61.3125 145.29 61.6761 144.79C62.0398 144.29 62.5322 143.902 63.1534 143.625C63.7746 143.345 64.4754 143.205 65.2557 143.205C66.0436 143.205 66.7386 143.343 67.3409 143.619C67.947 143.896 68.4242 144.277 68.7727 144.761C69.1212 145.242 69.303 145.795 69.3182 146.42H67.625ZM75.2003 155.176C74.3404 155.176 73.5999 154.992 72.9787 154.625C72.3613 154.254 71.884 153.733 71.5469 153.062C71.2135 152.388 71.0469 151.598 71.0469 150.693C71.0469 149.799 71.2135 149.011 71.5469 148.33C71.884 147.648 72.3537 147.116 72.956 146.733C73.562 146.35 74.2704 146.159 75.081 146.159C75.5734 146.159 76.0507 146.241 76.5128 146.403C76.9749 146.566 77.3897 146.822 77.7571 147.17C78.1245 147.519 78.4143 147.972 78.6264 148.528C78.8385 149.081 78.9446 149.754 78.9446 150.545V151.148H72.0071V149.875H77.2798C77.2798 149.428 77.1889 149.032 77.0071 148.688C76.8253 148.339 76.5696 148.064 76.2401 147.864C75.9143 147.663 75.5317 147.562 75.0923 147.562C74.6151 147.562 74.1984 147.68 73.8423 147.915C73.4901 148.146 73.2173 148.449 73.0241 148.824C72.8348 149.195 72.7401 149.598 72.7401 150.034V151.028C72.7401 151.612 72.8423 152.108 73.0469 152.517C73.2552 152.926 73.545 153.239 73.9162 153.455C74.2874 153.667 74.7211 153.773 75.2173 153.773C75.5393 153.773 75.8329 153.727 76.098 153.636C76.3632 153.542 76.5923 153.402 76.7855 153.216C76.9787 153.03 77.1264 152.801 77.2287 152.528L78.8366 152.818C78.7079 153.292 78.4768 153.706 78.1435 154.062C77.8139 154.415 77.3991 154.689 76.8991 154.886C76.4029 155.08 75.8366 155.176 75.2003 155.176ZM84.9034 146.273V147.636H80.1364V146.273H84.9034ZM81.4148 144.182H83.1136V152.438C83.1136 152.767 83.1629 153.015 83.2614 153.182C83.3598 153.345 83.4867 153.456 83.642 153.517C83.8011 153.574 83.9735 153.602 84.1591 153.602C84.2955 153.602 84.4148 153.593 84.517 153.574C84.6193 153.555 84.6989 153.54 84.7557 153.528L85.0625 154.932C84.964 154.97 84.8239 155.008 84.642 155.045C84.4602 155.087 84.233 155.11 83.9602 155.114C83.5133 155.121 83.0966 155.042 82.7102 154.875C82.3239 154.708 82.0114 154.451 81.7727 154.102C81.5341 153.754 81.4148 153.316 81.4148 152.79V144.182ZM92.0909 158.273C91.8371 158.273 91.6061 158.252 91.3977 158.21C91.1894 158.172 91.0341 158.131 90.9318 158.085L91.3409 156.693C91.6515 156.777 91.928 156.813 92.1705 156.801C92.4129 156.79 92.6269 156.699 92.8125 156.528C93.0019 156.358 93.1686 156.08 93.3125 155.693L93.5227 155.114L90.3295 146.273H92.1477L94.358 153.045H94.4489L96.6591 146.273H98.483L94.8864 156.165C94.7197 156.619 94.5076 157.004 94.25 157.318C93.9924 157.636 93.6856 157.875 93.3295 158.034C92.9735 158.193 92.5606 158.273 92.0909 158.273ZM103.459 155.176C102.641 155.176 101.927 154.989 101.317 154.614C100.707 154.239 100.233 153.714 99.8963 153.04C99.5592 152.366 99.3906 151.578 99.3906 150.676C99.3906 149.771 99.5592 148.979 99.8963 148.301C100.233 147.623 100.707 147.097 101.317 146.722C101.927 146.347 102.641 146.159 103.459 146.159C104.277 146.159 104.991 146.347 105.601 146.722C106.211 147.097 106.684 147.623 107.021 148.301C107.358 148.979 107.527 149.771 107.527 150.676C107.527 151.578 107.358 152.366 107.021 153.04C106.684 153.714 106.211 154.239 105.601 154.614C104.991 154.989 104.277 155.176 103.459 155.176ZM103.464 153.75C103.995 153.75 104.434 153.61 104.783 153.33C105.131 153.049 105.389 152.676 105.555 152.21C105.726 151.744 105.811 151.231 105.811 150.67C105.811 150.114 105.726 149.602 105.555 149.136C105.389 148.667 105.131 148.29 104.783 148.006C104.434 147.722 103.995 147.58 103.464 147.58C102.93 147.58 102.487 147.722 102.135 148.006C101.786 148.29 101.527 148.667 101.357 149.136C101.19 149.602 101.107 150.114 101.107 150.67C101.107 151.231 101.19 151.744 101.357 152.21C101.527 152.676 101.786 153.049 102.135 153.33C102.487 153.61 102.93 153.75 103.464 153.75ZM114.952 151.381V146.273H116.656V155H114.986V153.489H114.895C114.694 153.955 114.372 154.343 113.929 154.653C113.49 154.96 112.942 155.114 112.287 155.114C111.726 155.114 111.23 154.991 110.798 154.744C110.37 154.494 110.033 154.125 109.787 153.636C109.545 153.148 109.423 152.544 109.423 151.824V146.273H111.122V151.619C111.122 152.214 111.287 152.687 111.616 153.04C111.946 153.392 112.374 153.568 112.901 153.568C113.219 153.568 113.535 153.489 113.849 153.33C114.168 153.17 114.431 152.93 114.639 152.608C114.851 152.286 114.955 151.877 114.952 151.381ZM118.939 155V146.273H120.581V147.659H120.672C120.831 147.189 121.111 146.82 121.513 146.551C121.918 146.278 122.376 146.142 122.888 146.142C122.994 146.142 123.119 146.146 123.263 146.153C123.411 146.161 123.526 146.17 123.609 146.182V147.807C123.541 147.788 123.42 147.767 123.246 147.744C123.071 147.718 122.897 147.705 122.723 147.705C122.321 147.705 121.964 147.79 121.649 147.96C121.339 148.127 121.092 148.36 120.911 148.659C120.729 148.955 120.638 149.292 120.638 149.67V155H118.939ZM131.854 155.193C131.301 155.193 130.801 155.091 130.354 154.886C129.907 154.678 129.553 154.377 129.291 153.983C129.034 153.589 128.905 153.106 128.905 152.534C128.905 152.042 129 151.636 129.189 151.318C129.378 151 129.634 150.748 129.956 150.562C130.278 150.377 130.638 150.237 131.036 150.142C131.433 150.047 131.839 149.975 132.251 149.926C132.774 149.866 133.198 149.816 133.524 149.778C133.85 149.737 134.087 149.67 134.234 149.58C134.382 149.489 134.456 149.341 134.456 149.136V149.097C134.456 148.6 134.316 148.216 134.036 147.943C133.759 147.67 133.346 147.534 132.797 147.534C132.225 147.534 131.774 147.661 131.445 147.915C131.119 148.165 130.893 148.443 130.768 148.75L129.172 148.386C129.361 147.856 129.638 147.428 130.001 147.102C130.369 146.773 130.791 146.534 131.268 146.386C131.746 146.235 132.248 146.159 132.774 146.159C133.123 146.159 133.492 146.201 133.882 146.284C134.276 146.364 134.643 146.511 134.984 146.727C135.329 146.943 135.611 147.252 135.831 147.653C136.051 148.051 136.161 148.568 136.161 149.205V155H134.501V153.807H134.433C134.323 154.027 134.159 154.242 133.939 154.455C133.719 154.667 133.437 154.843 133.092 154.983C132.748 155.123 132.335 155.193 131.854 155.193ZM132.223 153.83C132.693 153.83 133.094 153.737 133.428 153.551C133.765 153.366 134.02 153.123 134.195 152.824C134.373 152.521 134.462 152.197 134.462 151.852V150.727C134.401 150.788 134.284 150.845 134.109 150.898C133.939 150.947 133.744 150.991 133.524 151.028C133.304 151.062 133.09 151.095 132.882 151.125C132.674 151.152 132.5 151.174 132.359 151.193C132.03 151.235 131.729 151.305 131.456 151.403C131.187 151.502 130.971 151.644 130.808 151.83C130.649 152.011 130.57 152.254 130.57 152.557C130.57 152.977 130.725 153.295 131.036 153.511C131.346 153.723 131.742 153.83 132.223 153.83ZM145.577 146.273L142.412 155H140.594L137.423 146.273H139.247L141.457 152.989H141.548L143.753 146.273H145.577ZM149.463 155.193C148.91 155.193 148.41 155.091 147.963 154.886C147.516 154.678 147.162 154.377 146.901 153.983C146.643 153.589 146.514 153.106 146.514 152.534C146.514 152.042 146.609 151.636 146.798 151.318C146.988 151 147.243 150.748 147.565 150.562C147.887 150.377 148.247 150.237 148.645 150.142C149.043 150.047 149.448 149.975 149.861 149.926C150.384 149.866 150.808 149.816 151.134 149.778C151.459 149.737 151.696 149.67 151.844 149.58C151.991 149.489 152.065 149.341 152.065 149.136V149.097C152.065 148.6 151.925 148.216 151.645 147.943C151.368 147.67 150.955 147.534 150.406 147.534C149.834 147.534 149.384 147.661 149.054 147.915C148.728 148.165 148.503 148.443 148.378 148.75L146.781 148.386C146.971 147.856 147.247 147.428 147.611 147.102C147.978 146.773 148.401 146.534 148.878 146.386C149.355 146.235 149.857 146.159 150.384 146.159C150.732 146.159 151.101 146.201 151.491 146.284C151.885 146.364 152.253 146.511 152.594 146.727C152.938 146.943 153.221 147.252 153.44 147.653C153.66 148.051 153.77 148.568 153.77 149.205V155H152.111V153.807H152.043C151.933 154.027 151.768 154.242 151.548 154.455C151.329 154.667 151.046 154.843 150.702 154.983C150.357 155.123 149.944 155.193 149.463 155.193ZM149.832 153.83C150.302 153.83 150.704 153.737 151.037 153.551C151.374 153.366 151.63 153.123 151.804 152.824C151.982 152.521 152.071 152.197 152.071 151.852V150.727C152.01 150.788 151.893 150.845 151.719 150.898C151.548 150.947 151.353 150.991 151.134 151.028C150.914 151.062 150.7 151.095 150.491 151.125C150.283 151.152 150.109 151.174 149.969 151.193C149.639 151.235 149.338 151.305 149.065 151.403C148.796 151.502 148.58 151.644 148.418 151.83C148.259 152.011 148.179 152.254 148.179 152.557C148.179 152.977 148.334 153.295 148.645 153.511C148.955 153.723 149.351 153.83 149.832 153.83ZM160.107 146.273V147.636H155.339V146.273H160.107ZM156.618 144.182H158.317V152.438C158.317 152.767 158.366 153.015 158.464 153.182C158.563 153.345 158.69 153.456 158.845 153.517C159.004 153.574 159.177 153.602 159.362 153.602C159.499 153.602 159.618 153.593 159.72 153.574C159.822 153.555 159.902 153.54 159.959 153.528L160.266 154.932C160.167 154.97 160.027 155.008 159.845 155.045C159.663 155.087 159.436 155.11 159.163 155.114C158.716 155.121 158.3 155.042 157.913 154.875C157.527 154.708 157.214 154.451 156.976 154.102C156.737 153.754 156.618 153.316 156.618 152.79V144.182ZM164.526 155.193C163.973 155.193 163.473 155.091 163.026 154.886C162.579 154.678 162.224 154.377 161.963 153.983C161.705 153.589 161.577 153.106 161.577 152.534C161.577 152.042 161.671 151.636 161.861 151.318C162.05 151 162.306 150.748 162.628 150.562C162.95 150.377 163.31 150.237 163.707 150.142C164.105 150.047 164.51 149.975 164.923 149.926C165.446 149.866 165.87 149.816 166.196 149.778C166.522 149.737 166.759 149.67 166.906 149.58C167.054 149.489 167.128 149.341 167.128 149.136V149.097C167.128 148.6 166.988 148.216 166.707 147.943C166.431 147.67 166.018 147.534 165.469 147.534C164.897 147.534 164.446 147.661 164.116 147.915C163.791 148.165 163.565 148.443 163.44 148.75L161.844 148.386C162.033 147.856 162.31 147.428 162.673 147.102C163.041 146.773 163.463 146.534 163.94 146.386C164.418 146.235 164.92 146.159 165.446 146.159C165.795 146.159 166.164 146.201 166.554 146.284C166.948 146.364 167.315 146.511 167.656 146.727C168.001 146.943 168.283 147.252 168.503 147.653C168.723 148.051 168.832 148.568 168.832 149.205V155H167.173V153.807H167.105C166.995 154.027 166.83 154.242 166.611 154.455C166.391 154.667 166.109 154.843 165.764 154.983C165.42 155.123 165.007 155.193 164.526 155.193ZM164.895 153.83C165.365 153.83 165.766 153.737 166.099 153.551C166.437 153.366 166.692 153.123 166.866 152.824C167.045 152.521 167.134 152.197 167.134 151.852V150.727C167.073 150.788 166.955 150.845 166.781 150.898C166.611 150.947 166.416 150.991 166.196 151.028C165.976 151.062 165.762 151.095 165.554 151.125C165.346 151.152 165.171 151.174 165.031 151.193C164.702 151.235 164.401 151.305 164.128 151.403C163.859 151.502 163.643 151.644 163.48 151.83C163.321 152.011 163.241 152.254 163.241 152.557C163.241 152.977 163.397 153.295 163.707 153.511C164.018 153.723 164.414 153.83 164.895 153.83ZM171.095 155V146.273H172.737V147.659H172.828C172.987 147.189 173.268 146.82 173.669 146.551C174.074 146.278 174.533 146.142 175.044 146.142C175.15 146.142 175.275 146.146 175.419 146.153C175.567 146.161 175.682 146.17 175.766 146.182V147.807C175.697 147.788 175.576 147.767 175.402 147.744C175.228 147.718 175.054 147.705 174.879 147.705C174.478 147.705 174.12 147.79 173.805 147.96C173.495 148.127 173.249 148.36 173.067 148.659C172.885 148.955 172.794 149.292 172.794 149.67V155H171.095ZM181.47 155V146.273H183.169V155H181.47ZM182.328 144.926C182.033 144.926 181.779 144.828 181.567 144.631C181.358 144.43 181.254 144.191 181.254 143.915C181.254 143.634 181.358 143.396 181.567 143.199C181.779 142.998 182.033 142.898 182.328 142.898C182.624 142.898 182.875 142.998 183.084 143.199C183.296 143.396 183.402 143.634 183.402 143.915C183.402 144.191 183.296 144.43 183.084 144.631C182.875 144.828 182.624 144.926 182.328 144.926ZM185.455 155V146.273H187.085V147.693H187.193C187.375 147.212 187.672 146.837 188.085 146.568C188.498 146.295 188.992 146.159 189.568 146.159C190.152 146.159 190.64 146.295 191.034 146.568C191.432 146.841 191.725 147.216 191.915 147.693H192.006C192.214 147.227 192.545 146.856 193 146.58C193.455 146.299 193.996 146.159 194.625 146.159C195.417 146.159 196.062 146.407 196.562 146.903C197.066 147.4 197.318 148.148 197.318 149.148V155H195.619V149.307C195.619 148.716 195.458 148.288 195.136 148.023C194.814 147.758 194.43 147.625 193.983 147.625C193.43 147.625 193 147.795 192.693 148.136C192.386 148.473 192.233 148.907 192.233 149.438V155H190.54V149.199C190.54 148.725 190.392 148.345 190.097 148.057C189.801 147.769 189.417 147.625 188.943 147.625C188.621 147.625 188.324 147.71 188.051 147.881C187.782 148.047 187.564 148.28 187.398 148.58C187.235 148.879 187.153 149.225 187.153 149.619V155H185.455ZM202.135 155.193C201.582 155.193 201.082 155.091 200.635 154.886C200.188 154.678 199.834 154.377 199.572 153.983C199.315 153.589 199.186 153.106 199.186 152.534C199.186 152.042 199.281 151.636 199.47 151.318C199.66 151 199.915 150.748 200.237 150.562C200.559 150.377 200.919 150.237 201.317 150.142C201.714 150.047 202.12 149.975 202.533 149.926C203.055 149.866 203.48 149.816 203.805 149.778C204.131 149.737 204.368 149.67 204.516 149.58C204.663 149.489 204.737 149.341 204.737 149.136V149.097C204.737 148.6 204.597 148.216 204.317 147.943C204.04 147.67 203.627 147.534 203.078 147.534C202.506 147.534 202.055 147.661 201.726 147.915C201.4 148.165 201.175 148.443 201.05 148.75L199.453 148.386C199.643 147.856 199.919 147.428 200.283 147.102C200.65 146.773 201.072 146.534 201.55 146.386C202.027 146.235 202.529 146.159 203.055 146.159C203.404 146.159 203.773 146.201 204.163 146.284C204.557 146.364 204.925 146.511 205.266 146.727C205.61 146.943 205.893 147.252 206.112 147.653C206.332 148.051 206.442 148.568 206.442 149.205V155H204.783V153.807H204.714C204.605 154.027 204.44 154.242 204.22 154.455C204 154.667 203.718 154.843 203.374 154.983C203.029 155.123 202.616 155.193 202.135 155.193ZM202.504 153.83C202.974 153.83 203.375 153.737 203.709 153.551C204.046 153.366 204.302 153.123 204.476 152.824C204.654 152.521 204.743 152.197 204.743 151.852V150.727C204.682 150.788 204.565 150.845 204.391 150.898C204.22 150.947 204.025 150.991 203.805 151.028C203.586 151.062 203.372 151.095 203.163 151.125C202.955 151.152 202.781 151.174 202.641 151.193C202.311 151.235 202.01 151.305 201.737 151.403C201.468 151.502 201.252 151.644 201.089 151.83C200.93 152.011 200.851 152.254 200.851 152.557C200.851 152.977 201.006 153.295 201.317 153.511C201.627 153.723 202.023 153.83 202.504 153.83ZM212.364 158.455C211.67 158.455 211.074 158.364 210.574 158.182C210.078 158 209.672 157.759 209.358 157.46C209.044 157.161 208.809 156.833 208.653 156.477L210.114 155.875C210.216 156.042 210.352 156.218 210.523 156.403C210.697 156.593 210.932 156.754 211.227 156.886C211.527 157.019 211.911 157.085 212.381 157.085C213.025 157.085 213.557 156.928 213.977 156.614C214.398 156.303 214.608 155.807 214.608 155.125V153.409H214.5C214.398 153.595 214.25 153.801 214.057 154.028C213.867 154.256 213.606 154.453 213.273 154.619C212.939 154.786 212.506 154.869 211.972 154.869C211.282 154.869 210.661 154.708 210.108 154.386C209.559 154.061 209.123 153.581 208.801 152.949C208.483 152.312 208.324 151.53 208.324 150.602C208.324 149.674 208.481 148.879 208.795 148.216C209.114 147.553 209.549 147.045 210.102 146.693C210.655 146.337 211.282 146.159 211.983 146.159C212.525 146.159 212.962 146.25 213.295 146.432C213.629 146.61 213.888 146.818 214.074 147.057C214.263 147.295 214.409 147.506 214.511 147.688H214.636V146.273H216.301V155.193C216.301 155.943 216.127 156.559 215.778 157.04C215.43 157.521 214.958 157.877 214.364 158.108C213.773 158.339 213.106 158.455 212.364 158.455ZM212.347 153.46C212.835 153.46 213.248 153.347 213.585 153.119C213.926 152.888 214.184 152.559 214.358 152.131C214.536 151.699 214.625 151.182 214.625 150.58C214.625 149.992 214.538 149.475 214.364 149.028C214.189 148.581 213.934 148.233 213.597 147.983C213.259 147.729 212.843 147.602 212.347 147.602C211.835 147.602 211.409 147.735 211.068 148C210.727 148.261 210.47 148.617 210.295 149.068C210.125 149.519 210.04 150.023 210.04 150.58C210.04 151.152 210.127 151.653 210.301 152.085C210.475 152.517 210.733 152.854 211.074 153.097C211.419 153.339 211.843 153.46 212.347 153.46ZM222.341 155.176C221.481 155.176 220.741 154.992 220.119 154.625C219.502 154.254 219.025 153.733 218.688 153.062C218.354 152.388 218.188 151.598 218.188 150.693C218.188 149.799 218.354 149.011 218.688 148.33C219.025 147.648 219.494 147.116 220.097 146.733C220.703 146.35 221.411 146.159 222.222 146.159C222.714 146.159 223.191 146.241 223.653 146.403C224.116 146.566 224.53 146.822 224.898 147.17C225.265 147.519 225.555 147.972 225.767 148.528C225.979 149.081 226.085 149.754 226.085 150.545V151.148H219.148V149.875H224.42C224.42 149.428 224.33 149.032 224.148 148.688C223.966 148.339 223.71 148.064 223.381 147.864C223.055 147.663 222.672 147.562 222.233 147.562C221.756 147.562 221.339 147.68 220.983 147.915C220.631 148.146 220.358 148.449 220.165 148.824C219.975 149.195 219.881 149.598 219.881 150.034V151.028C219.881 151.612 219.983 152.108 220.188 152.517C220.396 152.926 220.686 153.239 221.057 153.455C221.428 153.667 221.862 153.773 222.358 153.773C222.68 153.773 222.973 153.727 223.239 153.636C223.504 153.542 223.733 153.402 223.926 153.216C224.119 153.03 224.267 152.801 224.369 152.528L225.977 152.818C225.848 153.292 225.617 153.706 225.284 154.062C224.955 154.415 224.54 154.689 224.04 154.886C223.544 155.08 222.977 155.176 222.341 155.176Z" fill="black"/>
    <rect x="20" y="175" width="408" height="1" fill="#EBEBEB"/>
    <path d="M30.5 202.875L33.125 205.5L37.5 199.375M44.5 202C44.5 207.799 39.799 212.5 34 212.5C28.201 212.5 23.5 207.799 23.5 202C23.5 196.201 28.201 191.5 34 191.5C39.799 191.5 44.5 196.201 44.5 202Z" stroke="#059669" strokeWidth="1.5" stroke-linecap="round" stroke-linejoin="round"/>
    <path d="M67.625 199.42C67.5644 198.883 67.3144 198.466 66.875 198.17C66.4356 197.871 65.8826 197.722 65.2159 197.722C64.7386 197.722 64.3258 197.797 63.9773 197.949C63.6288 198.097 63.358 198.301 63.1648 198.562C62.9754 198.82 62.8807 199.114 62.8807 199.443C62.8807 199.72 62.9451 199.958 63.0739 200.159C63.2064 200.36 63.3788 200.528 63.5909 200.665C63.8068 200.797 64.0379 200.909 64.2841 201C64.5303 201.087 64.767 201.159 64.9943 201.216L66.1307 201.511C66.5019 201.602 66.8826 201.725 67.2727 201.881C67.6629 202.036 68.0246 202.241 68.358 202.494C68.6913 202.748 68.9602 203.062 69.1648 203.438C69.3731 203.812 69.4773 204.261 69.4773 204.784C69.4773 205.443 69.3068 206.028 68.9659 206.54C68.6288 207.051 68.1383 207.455 67.4943 207.75C66.8542 208.045 66.0795 208.193 65.1705 208.193C64.2992 208.193 63.5455 208.055 62.9091 207.778C62.2727 207.502 61.7746 207.11 61.4148 206.602C61.0549 206.091 60.8561 205.485 60.8182 204.784H62.5795C62.6136 205.205 62.75 205.555 62.9886 205.835C63.2311 206.112 63.5398 206.318 63.9148 206.455C64.2936 206.587 64.7083 206.653 65.1591 206.653C65.6553 206.653 66.0966 206.576 66.483 206.42C66.8731 206.261 67.1799 206.042 67.4034 205.761C67.6269 205.477 67.7386 205.146 67.7386 204.767C67.7386 204.422 67.6402 204.14 67.4432 203.92C67.25 203.701 66.9867 203.519 66.6534 203.375C66.3239 203.231 65.9508 203.104 65.5341 202.994L64.1591 202.619C63.2273 202.366 62.4886 201.992 61.9432 201.5C61.4015 201.008 61.1307 200.356 61.1307 199.545C61.1307 198.875 61.3125 198.29 61.6761 197.79C62.0398 197.29 62.5322 196.902 63.1534 196.625C63.7746 196.345 64.4754 196.205 65.2557 196.205C66.0436 196.205 66.7386 196.343 67.3409 196.619C67.947 196.896 68.4242 197.277 68.7727 197.761C69.1212 198.242 69.303 198.795 69.3182 199.42H67.625ZM75.2003 208.176C74.3404 208.176 73.5999 207.992 72.9787 207.625C72.3613 207.254 71.884 206.733 71.5469 206.062C71.2135 205.388 71.0469 204.598 71.0469 203.693C71.0469 202.799 71.2135 202.011 71.5469 201.33C71.884 200.648 72.3537 200.116 72.956 199.733C73.562 199.35 74.2704 199.159 75.081 199.159C75.5734 199.159 76.0507 199.241 76.5128 199.403C76.9749 199.566 77.3897 199.822 77.7571 200.17C78.1245 200.519 78.4143 200.972 78.6264 201.528C78.8385 202.081 78.9446 202.754 78.9446 203.545V204.148H72.0071V202.875H77.2798C77.2798 202.428 77.1889 202.032 77.0071 201.688C76.8253 201.339 76.5696 201.064 76.2401 200.864C75.9143 200.663 75.5317 200.562 75.0923 200.562C74.6151 200.562 74.1984 200.68 73.8423 200.915C73.4901 201.146 73.2173 201.449 73.0241 201.824C72.8348 202.195 72.7401 202.598 72.7401 203.034V204.028C72.7401 204.612 72.8423 205.108 73.0469 205.517C73.2552 205.926 73.545 206.239 73.9162 206.455C74.2874 206.667 74.7211 206.773 75.2173 206.773C75.5393 206.773 75.8329 206.727 76.098 206.636C76.3632 206.542 76.5923 206.402 76.7855 206.216C76.9787 206.03 77.1264 205.801 77.2287 205.528L78.8366 205.818C78.7079 206.292 78.4768 206.706 78.1435 207.062C77.8139 207.415 77.3991 207.689 76.8991 207.886C76.4029 208.08 75.8366 208.176 75.2003 208.176ZM84.9034 199.273V200.636H80.1364V199.273H84.9034ZM81.4148 197.182H83.1136V205.438C83.1136 205.767 83.1629 206.015 83.2614 206.182C83.3598 206.345 83.4867 206.456 83.642 206.517C83.8011 206.574 83.9735 206.602 84.1591 206.602C84.2955 206.602 84.4148 206.593 84.517 206.574C84.6193 206.555 84.6989 206.54 84.7557 206.528L85.0625 207.932C84.964 207.97 84.8239 208.008 84.642 208.045C84.4602 208.087 84.233 208.11 83.9602 208.114C83.5133 208.121 83.0966 208.042 82.7102 207.875C82.3239 207.708 82.0114 207.451 81.7727 207.102C81.5341 206.754 81.4148 206.316 81.4148 205.79V197.182ZM92.0909 211.273C91.8371 211.273 91.6061 211.252 91.3977 211.21C91.1894 211.172 91.0341 211.131 90.9318 211.085L91.3409 209.693C91.6515 209.777 91.928 209.813 92.1705 209.801C92.4129 209.79 92.6269 209.699 92.8125 209.528C93.0019 209.358 93.1686 209.08 93.3125 208.693L93.5227 208.114L90.3295 199.273H92.1477L94.358 206.045H94.4489L96.6591 199.273H98.483L94.8864 209.165C94.7197 209.619 94.5076 210.004 94.25 210.318C93.9924 210.636 93.6856 210.875 93.3295 211.034C92.9735 211.193 92.5606 211.273 92.0909 211.273ZM103.459 208.176C102.641 208.176 101.927 207.989 101.317 207.614C100.707 207.239 100.233 206.714 99.8963 206.04C99.5592 205.366 99.3906 204.578 99.3906 203.676C99.3906 202.771 99.5592 201.979 99.8963 201.301C100.233 200.623 100.707 200.097 101.317 199.722C101.927 199.347 102.641 199.159 103.459 199.159C104.277 199.159 104.991 199.347 105.601 199.722C106.211 200.097 106.684 200.623 107.021 201.301C107.358 201.979 107.527 202.771 107.527 203.676C107.527 204.578 107.358 205.366 107.021 206.04C106.684 206.714 106.211 207.239 105.601 207.614C104.991 207.989 104.277 208.176 103.459 208.176ZM103.464 206.75C103.995 206.75 104.434 206.61 104.783 206.33C105.131 206.049 105.389 205.676 105.555 205.21C105.726 204.744 105.811 204.231 105.811 203.67C105.811 203.114 105.726 202.602 105.555 202.136C105.389 201.667 105.131 201.29 104.783 201.006C104.434 200.722 103.995 200.58 103.464 200.58C102.93 200.58 102.487 200.722 102.135 201.006C101.786 201.29 101.527 201.667 101.357 202.136C101.19 202.602 101.107 203.114 101.107 203.67C101.107 204.231 101.19 204.744 101.357 205.21C101.527 205.676 101.786 206.049 102.135 206.33C102.487 206.61 102.93 206.75 103.464 206.75ZM114.952 204.381V199.273H116.656V208H114.986V206.489H114.895C114.694 206.955 114.372 207.343 113.929 207.653C113.49 207.96 112.942 208.114 112.287 208.114C111.726 208.114 111.23 207.991 110.798 207.744C110.37 207.494 110.033 207.125 109.787 206.636C109.545 206.148 109.423 205.544 109.423 204.824V199.273H111.122V204.619C111.122 205.214 111.287 205.687 111.616 206.04C111.946 206.392 112.374 206.568 112.901 206.568C113.219 206.568 113.535 206.489 113.849 206.33C114.168 206.17 114.431 205.93 114.639 205.608C114.851 205.286 114.955 204.877 114.952 204.381ZM118.939 208V199.273H120.581V200.659H120.672C120.831 200.189 121.111 199.82 121.513 199.551C121.918 199.278 122.376 199.142 122.888 199.142C122.994 199.142 123.119 199.146 123.263 199.153C123.411 199.161 123.526 199.17 123.609 199.182V200.807C123.541 200.788 123.42 200.767 123.246 200.744C123.071 200.718 122.897 200.705 122.723 200.705C122.321 200.705 121.964 200.79 121.649 200.96C121.339 201.127 121.092 201.36 120.911 201.659C120.729 201.955 120.638 202.292 120.638 202.67V208H118.939ZM129.314 211.273V199.273H130.973V200.688H131.115C131.214 200.506 131.356 200.295 131.541 200.057C131.727 199.818 131.984 199.61 132.314 199.432C132.643 199.25 133.079 199.159 133.621 199.159C134.325 199.159 134.954 199.337 135.507 199.693C136.06 200.049 136.494 200.562 136.808 201.233C137.126 201.903 137.286 202.71 137.286 203.653C137.286 204.597 137.128 205.405 136.814 206.08C136.5 206.75 136.068 207.267 135.518 207.631C134.969 207.991 134.342 208.17 133.638 208.17C133.107 208.17 132.674 208.081 132.337 207.903C132.003 207.725 131.742 207.517 131.553 207.278C131.363 207.04 131.217 206.828 131.115 206.642H131.013V211.273H129.314ZM130.979 203.636C130.979 204.25 131.068 204.788 131.246 205.25C131.424 205.712 131.681 206.074 132.018 206.335C132.356 206.593 132.768 206.722 133.257 206.722C133.765 206.722 134.189 206.587 134.53 206.318C134.871 206.045 135.128 205.676 135.303 205.21C135.481 204.744 135.57 204.22 135.57 203.636C135.57 203.061 135.482 202.544 135.308 202.085C135.138 201.627 134.88 201.265 134.536 201C134.195 200.735 133.768 200.602 133.257 200.602C132.765 200.602 132.348 200.729 132.007 200.983C131.67 201.237 131.414 201.591 131.24 202.045C131.066 202.5 130.979 203.03 130.979 203.636ZM139.189 208V199.273H140.831V200.659H140.922C141.081 200.189 141.361 199.82 141.763 199.551C142.168 199.278 142.626 199.142 143.138 199.142C143.244 199.142 143.369 199.146 143.513 199.153C143.661 199.161 143.776 199.17 143.859 199.182V200.807C143.791 200.788 143.67 200.767 143.496 200.744C143.321 200.718 143.147 200.705 142.973 200.705C142.571 200.705 142.214 200.79 141.899 200.96C141.589 201.127 141.342 201.36 141.161 201.659C140.979 201.955 140.888 202.292 140.888 202.67V208H139.189ZM145.33 208V199.273H147.028V208H145.33ZM146.188 197.926C145.892 197.926 145.638 197.828 145.426 197.631C145.218 197.43 145.114 197.191 145.114 196.915C145.114 196.634 145.218 196.396 145.426 196.199C145.638 195.998 145.892 195.898 146.188 195.898C146.483 195.898 146.735 195.998 146.943 196.199C147.155 196.396 147.261 196.634 147.261 196.915C147.261 197.191 147.155 197.43 146.943 197.631C146.735 197.828 146.483 197.926 146.188 197.926ZM149.314 208V199.273H150.945V200.693H151.053C151.234 200.212 151.532 199.837 151.945 199.568C152.357 199.295 152.852 199.159 153.428 199.159C154.011 199.159 154.5 199.295 154.893 199.568C155.291 199.841 155.585 200.216 155.774 200.693H155.865C156.073 200.227 156.405 199.856 156.859 199.58C157.314 199.299 157.856 199.159 158.484 199.159C159.276 199.159 159.922 199.407 160.422 199.903C160.926 200.4 161.178 201.148 161.178 202.148V208H159.479V202.307C159.479 201.716 159.318 201.288 158.996 201.023C158.674 200.758 158.289 200.625 157.842 200.625C157.289 200.625 156.859 200.795 156.553 201.136C156.246 201.473 156.092 201.907 156.092 202.438V208H154.399V202.199C154.399 201.725 154.251 201.345 153.956 201.057C153.661 200.769 153.276 200.625 152.803 200.625C152.481 200.625 152.183 200.71 151.911 200.881C151.642 201.047 151.424 201.28 151.257 201.58C151.094 201.879 151.013 202.225 151.013 202.619V208H149.314ZM165.994 208.193C165.441 208.193 164.941 208.091 164.494 207.886C164.047 207.678 163.693 207.377 163.432 206.983C163.174 206.589 163.045 206.106 163.045 205.534C163.045 205.042 163.14 204.636 163.33 204.318C163.519 204 163.775 203.748 164.097 203.562C164.419 203.377 164.778 203.237 165.176 203.142C165.574 203.047 165.979 202.975 166.392 202.926C166.915 202.866 167.339 202.816 167.665 202.778C167.991 202.737 168.227 202.67 168.375 202.58C168.523 202.489 168.597 202.341 168.597 202.136V202.097C168.597 201.6 168.456 201.216 168.176 200.943C167.9 200.67 167.487 200.534 166.938 200.534C166.366 200.534 165.915 200.661 165.585 200.915C165.259 201.165 165.034 201.443 164.909 201.75L163.312 201.386C163.502 200.856 163.778 200.428 164.142 200.102C164.509 199.773 164.932 199.534 165.409 199.386C165.886 199.235 166.388 199.159 166.915 199.159C167.263 199.159 167.633 199.201 168.023 199.284C168.417 199.364 168.784 199.511 169.125 199.727C169.47 199.943 169.752 200.252 169.972 200.653C170.191 201.051 170.301 201.568 170.301 202.205V208H168.642V206.807H168.574C168.464 207.027 168.299 207.242 168.08 207.455C167.86 207.667 167.578 207.843 167.233 207.983C166.888 208.123 166.475 208.193 165.994 208.193ZM166.364 206.83C166.833 206.83 167.235 206.737 167.568 206.551C167.905 206.366 168.161 206.123 168.335 205.824C168.513 205.521 168.602 205.197 168.602 204.852V203.727C168.542 203.788 168.424 203.845 168.25 203.898C168.08 203.947 167.884 203.991 167.665 204.028C167.445 204.062 167.231 204.095 167.023 204.125C166.814 204.152 166.64 204.174 166.5 204.193C166.17 204.235 165.869 204.305 165.597 204.403C165.328 204.502 165.112 204.644 164.949 204.83C164.79 205.011 164.71 205.254 164.71 205.557C164.71 205.977 164.866 206.295 165.176 206.511C165.487 206.723 165.883 206.83 166.364 206.83ZM172.564 208V199.273H174.206V200.659H174.297C174.456 200.189 174.736 199.82 175.138 199.551C175.543 199.278 176.001 199.142 176.513 199.142C176.619 199.142 176.744 199.146 176.888 199.153C177.036 199.161 177.151 199.17 177.234 199.182V200.807C177.166 200.788 177.045 200.767 176.871 200.744C176.696 200.718 176.522 200.705 176.348 200.705C175.946 200.705 175.589 200.79 175.274 200.96C174.964 201.127 174.717 201.36 174.536 201.659C174.354 201.955 174.263 202.292 174.263 202.67V208H172.564ZM180.044 211.273C179.79 211.273 179.559 211.252 179.351 211.21C179.143 211.172 178.987 211.131 178.885 211.085L179.294 209.693C179.605 209.777 179.881 209.813 180.124 209.801C180.366 209.79 180.58 209.699 180.766 209.528C180.955 209.358 181.122 209.08 181.266 208.693L181.476 208.114L178.283 199.273H180.101L182.311 206.045H182.402L184.612 199.273H186.436L182.839 209.165C182.673 209.619 182.461 210.004 182.203 210.318C181.946 210.636 181.639 210.875 181.283 211.034C180.927 211.193 180.514 211.273 180.044 211.273ZM193.966 202.818V208H192.267V199.273H193.898V200.693H194.006C194.206 200.231 194.521 199.86 194.949 199.58C195.381 199.299 195.924 199.159 196.58 199.159C197.174 199.159 197.695 199.284 198.142 199.534C198.589 199.78 198.936 200.148 199.182 200.636C199.428 201.125 199.551 201.729 199.551 202.449V208H197.852V202.653C197.852 202.021 197.688 201.527 197.358 201.17C197.028 200.811 196.576 200.631 196 200.631C195.606 200.631 195.256 200.716 194.949 200.886C194.646 201.057 194.405 201.307 194.227 201.636C194.053 201.962 193.966 202.356 193.966 202.818ZM204.369 208.193C203.816 208.193 203.316 208.091 202.869 207.886C202.422 207.678 202.068 207.377 201.807 206.983C201.549 206.589 201.42 206.106 201.42 205.534C201.42 205.042 201.515 204.636 201.705 204.318C201.894 204 202.15 203.748 202.472 203.562C202.794 203.377 203.153 203.237 203.551 203.142C203.949 203.047 204.354 202.975 204.767 202.926C205.29 202.866 205.714 202.816 206.04 202.778C206.366 202.737 206.602 202.67 206.75 202.58C206.898 202.489 206.972 202.341 206.972 202.136V202.097C206.972 201.6 206.831 201.216 206.551 200.943C206.275 200.67 205.862 200.534 205.312 200.534C204.741 200.534 204.29 200.661 203.96 200.915C203.634 201.165 203.409 201.443 203.284 201.75L201.688 201.386C201.877 200.856 202.153 200.428 202.517 200.102C202.884 199.773 203.307 199.534 203.784 199.386C204.261 199.235 204.763 199.159 205.29 199.159C205.638 199.159 206.008 199.201 206.398 199.284C206.792 199.364 207.159 199.511 207.5 199.727C207.845 199.943 208.127 200.252 208.347 200.653C208.566 201.051 208.676 201.568 208.676 202.205V208H207.017V206.807H206.949C206.839 207.027 206.674 207.242 206.455 207.455C206.235 207.667 205.953 207.843 205.608 207.983C205.263 208.123 204.85 208.193 204.369 208.193ZM204.739 206.83C205.208 206.83 205.61 206.737 205.943 206.551C206.28 206.366 206.536 206.123 206.71 205.824C206.888 205.521 206.977 205.197 206.977 204.852V203.727C206.917 203.788 206.799 203.845 206.625 203.898C206.455 203.947 206.259 203.991 206.04 204.028C205.82 204.062 205.606 204.095 205.398 204.125C205.189 204.152 205.015 204.174 204.875 204.193C204.545 204.235 204.244 204.305 203.972 204.403C203.703 204.502 203.487 204.644 203.324 204.83C203.165 205.011 203.085 205.254 203.085 205.557C203.085 205.977 203.241 206.295 203.551 206.511C203.862 206.723 204.258 206.83 204.739 206.83ZM210.939 208V199.273H212.57V200.693H212.678C212.859 200.212 213.157 199.837 213.57 199.568C213.982 199.295 214.477 199.159 215.053 199.159C215.636 199.159 216.125 199.295 216.518 199.568C216.916 199.841 217.21 200.216 217.399 200.693H217.49C217.698 200.227 218.03 199.856 218.484 199.58C218.939 199.299 219.481 199.159 220.109 199.159C220.901 199.159 221.547 199.407 222.047 199.903C222.551 200.4 222.803 201.148 222.803 202.148V208H221.104V202.307C221.104 201.716 220.943 201.288 220.621 201.023C220.299 200.758 219.914 200.625 219.467 200.625C218.914 200.625 218.484 200.795 218.178 201.136C217.871 201.473 217.717 201.907 217.717 202.438V208H216.024V202.199C216.024 201.725 215.876 201.345 215.581 201.057C215.286 200.769 214.901 200.625 214.428 200.625C214.106 200.625 213.808 200.71 213.536 200.881C213.267 201.047 213.049 201.28 212.882 201.58C212.719 201.879 212.638 202.225 212.638 202.619V208H210.939ZM228.841 208.176C227.981 208.176 227.241 207.992 226.619 207.625C226.002 207.254 225.525 206.733 225.188 206.062C224.854 205.388 224.688 204.598 224.688 203.693C224.688 202.799 224.854 202.011 225.188 201.33C225.525 200.648 225.994 200.116 226.597 199.733C227.203 199.35 227.911 199.159 228.722 199.159C229.214 199.159 229.691 199.241 230.153 199.403C230.616 199.566 231.03 199.822 231.398 200.17C231.765 200.519 232.055 200.972 232.267 201.528C232.479 202.081 232.585 202.754 232.585 203.545V204.148H225.648V202.875H230.92C230.92 202.428 230.83 202.032 230.648 201.688C230.466 201.339 230.21 201.064 229.881 200.864C229.555 200.663 229.172 200.562 228.733 200.562C228.256 200.562 227.839 200.68 227.483 200.915C227.131 201.146 226.858 201.449 226.665 201.824C226.475 202.195 226.381 202.598 226.381 203.034V204.028C226.381 204.612 226.483 205.108 226.688 205.517C226.896 205.926 227.186 206.239 227.557 206.455C227.928 206.667 228.362 206.773 228.858 206.773C229.18 206.773 229.473 206.727 229.739 206.636C230.004 206.542 230.233 206.402 230.426 206.216C230.619 206.03 230.767 205.801 230.869 205.528L232.477 205.818C232.348 206.292 232.117 206.706 231.784 207.062C231.455 207.415 231.04 207.689 230.54 207.886C230.044 208.08 229.477 208.176 228.841 208.176Z" fill="black"/>
    <rect x="20" y="228" width="408" height="1" fill="#EBEBEB"/>
    <path d="M31.375 252.375L36.625 257.625M36.625 252.375L31.375 257.625M44.5 255C44.5 260.799 39.799 265.5 34 265.5C28.201 265.5 23.5 260.799 23.5 255C23.5 249.201 28.201 244.5 34 244.5C39.799 244.5 44.5 249.201 44.5 255Z" stroke="#DBDBDB" strokeWidth="1.5" stroke-linecap="round" stroke-linejoin="round"/>
    <path d="M54.2614 261H52.3977L56.5852 249.364H58.6136L62.8011 261H60.9375L57.6477 251.477H57.5568L54.2614 261ZM54.5739 256.443H60.6193V257.92H54.5739V256.443ZM67.4716 261.17C66.767 261.17 66.1383 260.991 65.5852 260.631C65.036 260.267 64.6042 259.75 64.2898 259.08C63.9792 258.405 63.8239 257.597 63.8239 256.653C63.8239 255.71 63.9811 254.903 64.2955 254.233C64.6136 253.562 65.0492 253.049 65.6023 252.693C66.1553 252.337 66.7822 252.159 67.483 252.159C68.0246 252.159 68.4602 252.25 68.7898 252.432C69.1231 252.61 69.3807 252.818 69.5625 253.057C69.7481 253.295 69.892 253.506 69.9943 253.688H70.0966V249.364H71.7955V261H70.1364V259.642H69.9943C69.892 259.828 69.7443 260.04 69.5511 260.278C69.3617 260.517 69.1004 260.725 68.767 260.903C68.4337 261.081 68.0019 261.17 67.4716 261.17ZM67.8466 259.722C68.3352 259.722 68.7481 259.593 69.0852 259.335C69.4261 259.074 69.6837 258.712 69.858 258.25C70.036 257.788 70.125 257.25 70.125 256.636C70.125 256.03 70.0379 255.5 69.8636 255.045C69.6894 254.591 69.4337 254.237 69.0966 253.983C68.7595 253.729 68.3428 253.602 67.8466 253.602C67.3352 253.602 66.9091 253.735 66.5682 254C66.2273 254.265 65.9697 254.627 65.7955 255.085C65.625 255.544 65.5398 256.061 65.5398 256.636C65.5398 257.22 65.6269 257.744 65.8011 258.21C65.9754 258.676 66.233 259.045 66.5739 259.318C66.9186 259.587 67.3428 259.722 67.8466 259.722ZM77.4872 261.17C76.7827 261.17 76.1539 260.991 75.6009 260.631C75.0516 260.267 74.6198 259.75 74.3054 259.08C73.9948 258.405 73.8395 257.597 73.8395 256.653C73.8395 255.71 73.9967 254.903 74.3111 254.233C74.6293 253.562 75.0649 253.049 75.6179 252.693C76.1709 252.337 76.7978 252.159 77.4986 252.159C78.0402 252.159 78.4759 252.25 78.8054 252.432C79.1387 252.61 79.3963 252.818 79.5781 253.057C79.7637 253.295 79.9077 253.506 80.0099 253.688H80.1122V249.364H81.8111V261H80.152V259.642H80.0099C79.9077 259.828 79.7599 260.04 79.5668 260.278C79.3774 260.517 79.116 260.725 78.7827 260.903C78.4493 261.081 78.0175 261.17 77.4872 261.17ZM77.8622 259.722C78.3509 259.722 78.7637 259.593 79.1009 259.335C79.4418 259.074 79.6993 258.712 79.8736 258.25C80.0516 257.788 80.1406 257.25 80.1406 256.636C80.1406 256.03 80.0535 255.5 79.8793 255.045C79.705 254.591 79.4493 254.237 79.1122 253.983C78.7751 253.729 78.3584 253.602 77.8622 253.602C77.3509 253.602 76.9247 253.735 76.5838 254C76.2429 254.265 75.9853 254.627 75.8111 255.085C75.6406 255.544 75.5554 256.061 75.5554 256.636C75.5554 257.22 75.6425 257.744 75.8168 258.21C75.991 258.676 76.2486 259.045 76.5895 259.318C76.9342 259.587 77.3584 259.722 77.8622 259.722ZM91.0099 261.193C90.4569 261.193 89.9569 261.091 89.5099 260.886C89.063 260.678 88.7088 260.377 88.4474 259.983C88.1899 259.589 88.0611 259.106 88.0611 258.534C88.0611 258.042 88.1558 257.636 88.3452 257.318C88.5346 257 88.7902 256.748 89.1122 256.562C89.4342 256.377 89.794 256.237 90.1918 256.142C90.5895 256.047 90.9948 255.975 91.4077 255.926C91.9304 255.866 92.3546 255.816 92.6804 255.778C93.0062 255.737 93.2429 255.67 93.3906 255.58C93.5384 255.489 93.6122 255.341 93.6122 255.136V255.097C93.6122 254.6 93.4721 254.216 93.1918 253.943C92.9152 253.67 92.5024 253.534 91.9531 253.534C91.3812 253.534 90.9304 253.661 90.6009 253.915C90.2751 254.165 90.0497 254.443 89.9247 254.75L88.3281 254.386C88.5175 253.856 88.794 253.428 89.1577 253.102C89.5251 252.773 89.9474 252.534 90.4247 252.386C90.902 252.235 91.4039 252.159 91.9304 252.159C92.2789 252.159 92.6482 252.201 93.0384 252.284C93.4323 252.364 93.7997 252.511 94.1406 252.727C94.4853 252.943 94.7675 253.252 94.9872 253.653C95.2069 254.051 95.3168 254.568 95.3168 255.205V261H93.6577V259.807H93.5895C93.4796 260.027 93.3149 260.242 93.0952 260.455C92.8755 260.667 92.5933 260.843 92.2486 260.983C91.9039 261.123 91.491 261.193 91.0099 261.193ZM91.3793 259.83C91.849 259.83 92.2505 259.737 92.5838 259.551C92.9209 259.366 93.1766 259.123 93.3509 258.824C93.5289 258.521 93.6179 258.197 93.6179 257.852V256.727C93.5573 256.788 93.4399 256.845 93.2656 256.898C93.0952 256.947 92.9001 256.991 92.6804 257.028C92.4607 257.062 92.2467 257.095 92.0384 257.125C91.83 257.152 91.6558 257.174 91.5156 257.193C91.1861 257.235 90.8849 257.305 90.6122 257.403C90.3433 257.502 90.1274 257.644 89.9645 257.83C89.8054 258.011 89.7259 258.254 89.7259 258.557C89.7259 258.977 89.8812 259.295 90.1918 259.511C90.5024 259.723 90.8982 259.83 91.3793 259.83ZM108.354 254.403L106.814 254.676C106.75 254.479 106.647 254.292 106.507 254.114C106.371 253.936 106.185 253.79 105.95 253.676C105.715 253.562 105.422 253.506 105.07 253.506C104.589 253.506 104.187 253.614 103.865 253.83C103.543 254.042 103.382 254.316 103.382 254.653C103.382 254.945 103.49 255.18 103.706 255.358C103.922 255.536 104.27 255.682 104.751 255.795L106.138 256.114C106.941 256.299 107.539 256.585 107.933 256.972C108.327 257.358 108.524 257.86 108.524 258.477C108.524 259 108.373 259.466 108.07 259.875C107.77 260.28 107.352 260.598 106.814 260.83C106.28 261.061 105.661 261.176 104.956 261.176C103.979 261.176 103.181 260.968 102.564 260.551C101.946 260.131 101.568 259.534 101.428 258.761L103.07 258.511C103.172 258.939 103.382 259.263 103.7 259.483C104.018 259.699 104.433 259.807 104.945 259.807C105.501 259.807 105.946 259.691 106.28 259.46C106.613 259.225 106.78 258.939 106.78 258.602C106.78 258.33 106.678 258.1 106.473 257.915C106.272 257.729 105.964 257.589 105.547 257.494L104.07 257.17C103.255 256.985 102.653 256.689 102.263 256.284C101.876 255.879 101.683 255.366 101.683 254.744C101.683 254.229 101.827 253.778 102.115 253.392C102.403 253.006 102.801 252.705 103.308 252.489C103.816 252.269 104.397 252.159 105.053 252.159C105.996 252.159 106.738 252.364 107.28 252.773C107.821 253.178 108.179 253.722 108.354 254.403ZM114.068 261.176C113.25 261.176 112.536 260.989 111.926 260.614C111.316 260.239 110.843 259.714 110.506 259.04C110.169 258.366 110 257.578 110 256.676C110 255.771 110.169 254.979 110.506 254.301C110.843 253.623 111.316 253.097 111.926 252.722C112.536 252.347 113.25 252.159 114.068 252.159C114.886 252.159 115.6 252.347 116.21 252.722C116.82 253.097 117.294 253.623 117.631 254.301C117.968 254.979 118.136 255.771 118.136 256.676C118.136 257.578 117.968 258.366 117.631 259.04C117.294 259.714 116.82 260.239 116.21 260.614C115.6 260.989 114.886 261.176 114.068 261.176ZM114.074 259.75C114.604 259.75 115.044 259.61 115.392 259.33C115.741 259.049 115.998 258.676 116.165 258.21C116.335 257.744 116.42 257.231 116.42 256.67C116.42 256.114 116.335 255.602 116.165 255.136C115.998 254.667 115.741 254.29 115.392 254.006C115.044 253.722 114.604 253.58 114.074 253.58C113.54 253.58 113.097 253.722 112.744 254.006C112.396 254.29 112.136 254.667 111.966 255.136C111.799 255.602 111.716 256.114 111.716 256.67C111.716 257.231 111.799 257.744 111.966 258.21C112.136 258.676 112.396 259.049 112.744 259.33C113.097 259.61 113.54 259.75 114.074 259.75ZM123.709 261.176C122.864 261.176 122.137 260.985 121.527 260.602C120.921 260.216 120.455 259.684 120.129 259.006C119.804 258.328 119.641 257.551 119.641 256.676C119.641 255.79 119.807 255.008 120.141 254.33C120.474 253.648 120.944 253.116 121.55 252.733C122.156 252.35 122.87 252.159 123.692 252.159C124.355 252.159 124.946 252.282 125.464 252.528C125.983 252.771 126.402 253.112 126.72 253.551C127.042 253.991 127.233 254.504 127.294 255.091H125.641C125.55 254.682 125.341 254.33 125.016 254.034C124.694 253.739 124.262 253.591 123.72 253.591C123.247 253.591 122.832 253.716 122.476 253.966C122.124 254.212 121.849 254.564 121.652 255.023C121.455 255.477 121.357 256.015 121.357 256.636C121.357 257.273 121.453 257.822 121.646 258.284C121.839 258.746 122.112 259.104 122.464 259.358C122.821 259.612 123.239 259.739 123.72 259.739C124.042 259.739 124.334 259.68 124.595 259.562C124.86 259.441 125.082 259.269 125.26 259.045C125.442 258.822 125.569 258.553 125.641 258.239H127.294C127.233 258.803 127.05 259.307 126.743 259.75C126.436 260.193 126.025 260.542 125.51 260.795C124.999 261.049 124.398 261.176 123.709 261.176ZM129.111 261V252.273H130.81V261H129.111ZM129.969 250.926C129.673 250.926 129.42 250.828 129.207 250.631C128.999 250.43 128.895 250.191 128.895 249.915C128.895 249.634 128.999 249.396 129.207 249.199C129.42 248.998 129.673 248.898 129.969 248.898C130.264 248.898 130.516 248.998 130.724 249.199C130.937 249.396 131.043 249.634 131.043 249.915C131.043 250.191 130.937 250.43 130.724 250.631C130.516 250.828 130.264 250.926 129.969 250.926ZM135.635 261.193C135.082 261.193 134.582 261.091 134.135 260.886C133.688 260.678 133.334 260.377 133.072 259.983C132.815 259.589 132.686 259.106 132.686 258.534C132.686 258.042 132.781 257.636 132.97 257.318C133.16 257 133.415 256.748 133.737 256.562C134.059 256.377 134.419 256.237 134.817 256.142C135.214 256.047 135.62 255.975 136.033 255.926C136.555 255.866 136.98 255.816 137.305 255.778C137.631 255.737 137.868 255.67 138.016 255.58C138.163 255.489 138.237 255.341 138.237 255.136V255.097C138.237 254.6 138.097 254.216 137.817 253.943C137.54 253.67 137.127 253.534 136.578 253.534C136.006 253.534 135.555 253.661 135.226 253.915C134.9 254.165 134.675 254.443 134.55 254.75L132.953 254.386C133.143 253.856 133.419 253.428 133.783 253.102C134.15 252.773 134.572 252.534 135.05 252.386C135.527 252.235 136.029 252.159 136.555 252.159C136.904 252.159 137.273 252.201 137.663 252.284C138.057 252.364 138.425 252.511 138.766 252.727C139.11 252.943 139.393 253.252 139.612 253.653C139.832 254.051 139.942 254.568 139.942 255.205V261H138.283V259.807H138.214C138.105 260.027 137.94 260.242 137.72 260.455C137.5 260.667 137.218 260.843 136.874 260.983C136.529 261.123 136.116 261.193 135.635 261.193ZM136.004 259.83C136.474 259.83 136.875 259.737 137.209 259.551C137.546 259.366 137.802 259.123 137.976 258.824C138.154 258.521 138.243 258.197 138.243 257.852V256.727C138.182 256.788 138.065 256.845 137.891 256.898C137.72 256.947 137.525 256.991 137.305 257.028C137.086 257.062 136.872 257.095 136.663 257.125C136.455 257.152 136.281 257.174 136.141 257.193C135.811 257.235 135.51 257.305 135.237 257.403C134.968 257.502 134.752 257.644 134.589 257.83C134.43 258.011 134.351 258.254 134.351 258.557C134.351 258.977 134.506 259.295 134.817 259.511C135.127 259.723 135.523 259.83 136.004 259.83ZM143.903 249.364V261H142.205V249.364H143.903ZM152.122 249.364V261H150.423V249.364H152.122ZM154.408 261V252.273H156.107V261H154.408ZM155.266 250.926C154.97 250.926 154.716 250.828 154.504 250.631C154.296 250.43 154.192 250.191 154.192 249.915C154.192 249.634 154.296 249.396 154.504 249.199C154.716 248.998 154.97 248.898 155.266 248.898C155.561 248.898 155.813 248.998 156.021 249.199C156.233 249.396 156.339 249.634 156.339 249.915C156.339 250.191 156.233 250.43 156.021 250.631C155.813 250.828 155.561 250.926 155.266 250.926ZM160.091 255.818V261H158.392V252.273H160.023V253.693H160.131C160.331 253.231 160.646 252.86 161.074 252.58C161.506 252.299 162.049 252.159 162.705 252.159C163.299 252.159 163.82 252.284 164.267 252.534C164.714 252.78 165.061 253.148 165.307 253.636C165.553 254.125 165.676 254.729 165.676 255.449V261H163.977V255.653C163.977 255.021 163.813 254.527 163.483 254.17C163.153 253.811 162.701 253.631 162.125 253.631C161.731 253.631 161.381 253.716 161.074 253.886C160.771 254.057 160.53 254.307 160.352 254.636C160.178 254.962 160.091 255.356 160.091 255.818ZM169.517 258.04L169.506 255.966H169.801L173.278 252.273H175.312L171.347 256.477H171.08L169.517 258.04ZM167.955 261V249.364H169.653V261H167.955ZM173.466 261L170.341 256.852L171.511 255.665L175.551 261H173.466Z" fill="#AFAFAF"/>
    <rect x="367" y="243" width="61" height="24" rx="12" fill="black" fill-opacity="0.05"/>
    <path d="M382.992 259.354V252.632H384.33V259.354H382.992ZM380.303 256.659V255.322H387.024V256.659H380.303ZM393.167 249.818V260H391.625V251.359H391.566L389.13 252.95V251.479L391.67 249.818H393.167ZM399.282 260.139C398.658 260.139 398.098 260.02 397.601 259.781C397.107 259.539 396.713 259.208 396.418 258.787C396.123 258.366 395.966 257.885 395.946 257.345H397.437C397.474 257.783 397.667 258.142 398.019 258.424C398.37 258.706 398.791 258.847 399.282 258.847C399.673 258.847 400.019 258.757 400.321 258.578C400.626 258.396 400.864 258.146 401.037 257.827C401.212 257.509 401.3 257.146 401.3 256.739C401.3 256.324 401.211 255.955 401.032 255.63C400.853 255.305 400.606 255.05 400.291 254.864C399.979 254.679 399.621 254.584 399.217 254.581C398.909 254.581 398.599 254.634 398.287 254.74C397.976 254.846 397.724 254.985 397.532 255.158L396.125 254.949L396.696 249.818H402.294V251.136H397.974L397.651 253.984H397.711C397.909 253.792 398.173 253.631 398.501 253.502C398.833 253.373 399.187 253.308 399.565 253.308C400.185 253.308 400.737 253.456 401.221 253.751C401.708 254.046 402.091 254.448 402.369 254.959C402.651 255.466 402.79 256.049 402.787 256.709C402.79 257.368 402.641 257.957 402.339 258.474C402.041 258.991 401.627 259.398 401.096 259.697C400.569 259.992 399.964 260.139 399.282 260.139ZM409.917 258.091V257.554C409.917 257.17 409.997 256.818 410.156 256.5C410.318 256.179 410.553 255.922 410.862 255.729C411.173 255.534 411.549 255.436 411.99 255.436C412.441 255.436 412.819 255.532 413.124 255.724C413.429 255.917 413.659 256.174 413.815 256.495C413.974 256.817 414.053 257.17 414.053 257.554V258.091C414.053 258.475 413.974 258.828 413.815 259.15C413.656 259.468 413.422 259.725 413.114 259.92C412.809 260.113 412.434 260.209 411.99 260.209C411.543 260.209 411.165 260.113 410.857 259.92C410.548 259.725 410.315 259.468 410.156 259.15C409.997 258.828 409.917 258.475 409.917 258.091ZM411.075 257.554V258.091C411.075 258.376 411.143 258.634 411.279 258.866C411.415 259.098 411.652 259.214 411.99 259.214C412.325 259.214 412.559 259.098 412.691 258.866C412.824 258.634 412.89 258.376 412.89 258.091V257.554C412.89 257.269 412.825 257.01 412.696 256.778C412.57 256.546 412.335 256.43 411.99 256.43C411.659 256.43 411.423 256.546 411.284 256.778C411.145 257.01 411.075 257.269 411.075 257.554ZM404.796 252.264V251.727C404.796 251.343 404.876 250.99 405.035 250.668C405.197 250.347 405.433 250.09 405.741 249.898C406.052 249.705 406.429 249.609 406.869 249.609C407.32 249.609 407.698 249.705 408.003 249.898C408.308 250.09 408.538 250.347 408.694 250.668C408.85 250.99 408.928 251.343 408.928 251.727V252.264C408.928 252.649 408.848 253.002 408.689 253.323C408.533 253.641 408.301 253.898 407.993 254.094C407.688 254.286 407.314 254.382 406.869 254.382C406.419 254.382 406.039 254.286 405.731 254.094C405.426 253.898 405.194 253.641 405.035 253.323C404.876 253.002 404.796 252.649 404.796 252.264ZM405.96 251.727V252.264C405.96 252.549 406.026 252.808 406.159 253.04C406.294 253.272 406.531 253.388 406.869 253.388C407.201 253.388 407.433 253.272 407.566 253.04C407.701 252.808 407.769 252.549 407.769 252.264V251.727C407.769 251.442 407.705 251.184 407.575 250.952C407.446 250.72 407.211 250.604 406.869 250.604C406.538 250.604 406.303 250.72 406.164 250.952C406.028 251.184 405.96 251.442 405.96 251.727ZM405.269 260L412.269 249.818H413.457L406.457 260H405.269Z" fill="black"/>
    <rect x="20" y="281" width="408" height="1" fill="#EBEBEB"/>
    <path d="M31.375 305.375L36.625 310.625M36.625 305.375L31.375 310.625M44.5 308C44.5 313.799 39.799 318.5 34 318.5C28.201 318.5 23.5 313.799 23.5 308C23.5 302.201 28.201 297.5 34 297.5C39.799 297.5 44.5 302.201 44.5 308Z" stroke="#DBDBDB" strokeWidth="1.5" stroke-linecap="round" stroke-linejoin="round"/>
    <path d="M53.2784 314V302.364H60.4943V303.875H55.0341V307.42H59.9773V308.926H55.0341V314H53.2784ZM65.5526 314.176C64.7344 314.176 64.0204 313.989 63.4105 313.614C62.8007 313.239 62.3272 312.714 61.9901 312.04C61.6529 311.366 61.4844 310.578 61.4844 309.676C61.4844 308.771 61.6529 307.979 61.9901 307.301C62.3272 306.623 62.8007 306.097 63.4105 305.722C64.0204 305.347 64.7344 305.159 65.5526 305.159C66.3707 305.159 67.0848 305.347 67.6946 305.722C68.3045 306.097 68.7779 306.623 69.1151 307.301C69.4522 307.979 69.6207 308.771 69.6207 309.676C69.6207 310.578 69.4522 311.366 69.1151 312.04C68.7779 312.714 68.3045 313.239 67.6946 313.614C67.0848 313.989 66.3707 314.176 65.5526 314.176ZM65.5582 312.75C66.0885 312.75 66.5279 312.61 66.8764 312.33C67.2249 312.049 67.4825 311.676 67.6491 311.21C67.8196 310.744 67.9048 310.231 67.9048 309.67C67.9048 309.114 67.8196 308.602 67.6491 308.136C67.4825 307.667 67.2249 307.29 66.8764 307.006C66.5279 306.722 66.0885 306.58 65.5582 306.58C65.0241 306.58 64.581 306.722 64.2287 307.006C63.8802 307.29 63.6207 307.667 63.4503 308.136C63.2836 308.602 63.2003 309.114 63.2003 309.67C63.2003 310.231 63.2836 310.744 63.4503 311.21C63.6207 311.676 63.8802 312.049 64.2287 312.33C64.581 312.61 65.0241 312.75 65.5582 312.75ZM73.2159 302.364V314H71.517V302.364H73.2159ZM77.2003 302.364V314H75.5014V302.364H77.2003ZM83.1619 314.176C82.3438 314.176 81.6297 313.989 81.0199 313.614C80.41 313.239 79.9366 312.714 79.5994 312.04C79.2623 311.366 79.0938 310.578 79.0938 309.676C79.0938 308.771 79.2623 307.979 79.5994 307.301C79.9366 306.623 80.41 306.097 81.0199 305.722C81.6297 305.347 82.3438 305.159 83.1619 305.159C83.9801 305.159 84.6941 305.347 85.304 305.722C85.9138 306.097 86.3873 306.623 86.7244 307.301C87.0616 307.979 87.2301 308.771 87.2301 309.676C87.2301 310.578 87.0616 311.366 86.7244 312.04C86.3873 312.714 85.9138 313.239 85.304 313.614C84.6941 313.989 83.9801 314.176 83.1619 314.176ZM83.1676 312.75C83.6979 312.75 84.1373 312.61 84.4858 312.33C84.8343 312.049 85.0919 311.676 85.2585 311.21C85.429 310.744 85.5142 310.231 85.5142 309.67C85.5142 309.114 85.429 308.602 85.2585 308.136C85.0919 307.667 84.8343 307.29 84.4858 307.006C84.1373 306.722 83.6979 306.58 83.1676 306.58C82.6335 306.58 82.1903 306.722 81.8381 307.006C81.4896 307.29 81.2301 307.667 81.0597 308.136C80.893 308.602 80.8097 309.114 80.8097 309.67C80.8097 310.231 80.893 310.744 81.0597 311.21C81.2301 311.676 81.4896 312.049 81.8381 312.33C82.1903 312.61 82.6335 312.75 83.1676 312.75ZM90.7528 314L88.1847 305.273H89.9403L91.6506 311.682H91.7358L93.4517 305.273H95.2074L96.9119 311.653H96.9972L98.696 305.273H100.452L97.8892 314H96.1562L94.3835 307.699H94.2528L92.4801 314H90.7528ZM107.997 308.818V314H106.298V305.273H107.929V306.693H108.037C108.238 306.231 108.552 305.86 108.98 305.58C109.412 305.299 109.955 305.159 110.611 305.159C111.205 305.159 111.726 305.284 112.173 305.534C112.62 305.78 112.967 306.148 113.213 306.636C113.459 307.125 113.582 307.729 113.582 308.449V314H111.884V308.653C111.884 308.021 111.719 307.527 111.389 307.17C111.06 306.811 110.607 306.631 110.031 306.631C109.637 306.631 109.287 306.716 108.98 306.886C108.677 307.057 108.437 307.307 108.259 307.636C108.084 307.962 107.997 308.356 107.997 308.818ZM119.622 314.176C118.762 314.176 118.022 313.992 117.401 313.625C116.783 313.254 116.306 312.733 115.969 312.062C115.635 311.388 115.469 310.598 115.469 309.693C115.469 308.799 115.635 308.011 115.969 307.33C116.306 306.648 116.776 306.116 117.378 305.733C117.984 305.35 118.692 305.159 119.503 305.159C119.995 305.159 120.473 305.241 120.935 305.403C121.397 305.566 121.812 305.822 122.179 306.17C122.546 306.519 122.836 306.972 123.048 307.528C123.26 308.081 123.366 308.754 123.366 309.545V310.148H116.429V308.875H121.702C121.702 308.428 121.611 308.032 121.429 307.688C121.247 307.339 120.991 307.064 120.662 306.864C120.336 306.663 119.954 306.562 119.514 306.562C119.037 306.562 118.62 306.68 118.264 306.915C117.912 307.146 117.639 307.449 117.446 307.824C117.257 308.195 117.162 308.598 117.162 309.034V310.028C117.162 310.612 117.264 311.108 117.469 311.517C117.677 311.926 117.967 312.239 118.338 312.455C118.709 312.667 119.143 312.773 119.639 312.773C119.961 312.773 120.255 312.727 120.52 312.636C120.785 312.542 121.014 312.402 121.207 312.216C121.401 312.03 121.548 311.801 121.651 311.528L123.259 311.818C123.13 312.292 122.899 312.706 122.565 313.062C122.236 313.415 121.821 313.689 121.321 313.886C120.825 314.08 120.259 314.176 119.622 314.176ZM127.128 314L124.56 305.273H126.315L128.026 311.682H128.111L129.827 305.273H131.582L133.287 311.653H133.372L135.071 305.273H136.827L134.264 314H132.531L130.759 307.699H130.628L128.855 314H127.128ZM146.827 305.273V306.636H141.895V305.273H146.827ZM143.247 314V304.261C143.247 303.716 143.366 303.263 143.605 302.903C143.844 302.54 144.16 302.269 144.554 302.091C144.948 301.909 145.376 301.818 145.838 301.818C146.179 301.818 146.471 301.847 146.713 301.903C146.955 301.956 147.135 302.006 147.253 302.051L146.855 303.426C146.776 303.403 146.673 303.377 146.548 303.347C146.423 303.312 146.272 303.295 146.094 303.295C145.681 303.295 145.385 303.398 145.207 303.602C145.033 303.807 144.946 304.102 144.946 304.489V314H143.247ZM148.58 314V305.273H150.222V306.659H150.312C150.472 306.189 150.752 305.82 151.153 305.551C151.559 305.278 152.017 305.142 152.528 305.142C152.634 305.142 152.759 305.146 152.903 305.153C153.051 305.161 153.167 305.17 153.25 305.182V306.807C153.182 306.788 153.061 306.767 152.886 306.744C152.712 306.718 152.538 306.705 152.364 306.705C151.962 306.705 151.604 306.79 151.29 306.96C150.979 307.127 150.733 307.36 150.551 307.659C150.369 307.955 150.278 308.292 150.278 308.67V314H148.58ZM158.169 314.176C157.309 314.176 156.569 313.992 155.947 313.625C155.33 313.254 154.853 312.733 154.516 312.062C154.182 311.388 154.016 310.598 154.016 309.693C154.016 308.799 154.182 308.011 154.516 307.33C154.853 306.648 155.322 306.116 155.925 305.733C156.531 305.35 157.239 305.159 158.05 305.159C158.542 305.159 159.019 305.241 159.482 305.403C159.944 305.566 160.358 305.822 160.726 306.17C161.093 306.519 161.383 306.972 161.595 307.528C161.807 308.081 161.913 308.754 161.913 309.545V310.148H154.976V308.875H160.249C160.249 308.428 160.158 308.032 159.976 307.688C159.794 307.339 159.538 307.064 159.209 306.864C158.883 306.663 158.5 306.562 158.061 306.562C157.584 306.562 157.167 306.68 156.811 306.915C156.459 307.146 156.186 307.449 155.993 307.824C155.804 308.195 155.709 308.598 155.709 309.034V310.028C155.709 310.612 155.811 311.108 156.016 311.517C156.224 311.926 156.514 312.239 156.885 312.455C157.256 312.667 157.69 312.773 158.186 312.773C158.508 312.773 158.802 312.727 159.067 312.636C159.332 312.542 159.561 312.402 159.754 312.216C159.947 312.03 160.095 311.801 160.197 311.528L161.805 311.818C161.677 312.292 161.446 312.706 161.112 313.062C160.783 313.415 160.368 313.689 159.868 313.886C159.372 314.08 158.805 314.176 158.169 314.176ZM165.497 308.818V314H163.798V305.273H165.429V306.693H165.537C165.738 306.231 166.052 305.86 166.48 305.58C166.912 305.299 167.455 305.159 168.111 305.159C168.705 305.159 169.226 305.284 169.673 305.534C170.12 305.78 170.467 306.148 170.713 306.636C170.959 307.125 171.082 307.729 171.082 308.449V314H169.384V308.653C169.384 308.021 169.219 307.527 168.889 307.17C168.56 306.811 168.107 306.631 167.531 306.631C167.137 306.631 166.787 306.716 166.48 306.886C166.177 307.057 165.937 307.307 165.759 307.636C165.584 307.962 165.497 308.356 165.497 308.818ZM179.901 307.403L178.361 307.676C178.296 307.479 178.194 307.292 178.054 307.114C177.918 306.936 177.732 306.79 177.497 306.676C177.262 306.562 176.969 306.506 176.616 306.506C176.135 306.506 175.734 306.614 175.412 306.83C175.09 307.042 174.929 307.316 174.929 307.653C174.929 307.945 175.037 308.18 175.253 308.358C175.469 308.536 175.817 308.682 176.298 308.795L177.685 309.114C178.488 309.299 179.086 309.585 179.48 309.972C179.874 310.358 180.071 310.86 180.071 311.477C180.071 312 179.92 312.466 179.616 312.875C179.317 313.28 178.899 313.598 178.361 313.83C177.827 314.061 177.207 314.176 176.503 314.176C175.526 314.176 174.728 313.968 174.111 313.551C173.493 313.131 173.115 312.534 172.974 311.761L174.616 311.511C174.719 311.939 174.929 312.263 175.247 312.483C175.565 312.699 175.98 312.807 176.491 312.807C177.048 312.807 177.493 312.691 177.827 312.46C178.16 312.225 178.327 311.939 178.327 311.602C178.327 311.33 178.224 311.1 178.02 310.915C177.819 310.729 177.51 310.589 177.094 310.494L175.616 310.17C174.802 309.985 174.2 309.689 173.81 309.284C173.423 308.879 173.23 308.366 173.23 307.744C173.23 307.229 173.374 306.778 173.662 306.392C173.95 306.006 174.348 305.705 174.855 305.489C175.363 305.269 175.944 305.159 176.599 305.159C177.543 305.159 178.285 305.364 178.827 305.773C179.368 306.178 179.726 306.722 179.901 307.403ZM191.702 310.381V305.273H193.406V314H191.736V312.489H191.645C191.444 312.955 191.122 313.343 190.679 313.653C190.24 313.96 189.692 314.114 189.037 314.114C188.476 314.114 187.98 313.991 187.548 313.744C187.12 313.494 186.783 313.125 186.537 312.636C186.295 312.148 186.173 311.544 186.173 310.824V305.273H187.872V310.619C187.872 311.214 188.037 311.687 188.366 312.04C188.696 312.392 189.124 312.568 189.651 312.568C189.969 312.568 190.285 312.489 190.599 312.33C190.918 312.17 191.181 311.93 191.389 311.608C191.601 311.286 191.705 310.877 191.702 310.381ZM202.229 307.403L200.689 307.676C200.625 307.479 200.522 307.292 200.382 307.114C200.246 306.936 200.06 306.79 199.825 306.676C199.59 306.562 199.297 306.506 198.945 306.506C198.464 306.506 198.062 306.614 197.74 306.83C197.418 307.042 197.257 307.316 197.257 307.653C197.257 307.945 197.365 308.18 197.581 308.358C197.797 308.536 198.145 308.682 198.626 308.795L200.013 309.114C200.816 309.299 201.414 309.585 201.808 309.972C202.202 310.358 202.399 310.86 202.399 311.477C202.399 312 202.248 312.466 201.945 312.875C201.645 313.28 201.227 313.598 200.689 313.83C200.155 314.061 199.536 314.176 198.831 314.176C197.854 314.176 197.056 313.968 196.439 313.551C195.821 313.131 195.443 312.534 195.303 311.761L196.945 311.511C197.047 311.939 197.257 312.263 197.575 312.483C197.893 312.699 198.308 312.807 198.82 312.807C199.376 312.807 199.821 312.691 200.155 312.46C200.488 312.225 200.655 311.939 200.655 311.602C200.655 311.33 200.553 311.1 200.348 310.915C200.147 310.729 199.839 310.589 199.422 310.494L197.945 310.17C197.13 309.985 196.528 309.689 196.138 309.284C195.751 308.879 195.558 308.366 195.558 307.744C195.558 307.229 195.702 306.778 195.99 306.392C196.278 306.006 196.676 305.705 197.183 305.489C197.691 305.269 198.272 305.159 198.928 305.159C199.871 305.159 200.613 305.364 201.155 305.773C201.696 306.178 202.054 306.722 202.229 307.403ZM204.267 314V305.273H205.966V314H204.267ZM205.125 303.926C204.83 303.926 204.576 303.828 204.364 303.631C204.155 303.43 204.051 303.191 204.051 302.915C204.051 302.634 204.155 302.396 204.364 302.199C204.576 301.998 204.83 301.898 205.125 301.898C205.42 301.898 205.672 301.998 205.881 302.199C206.093 302.396 206.199 302.634 206.199 302.915C206.199 303.191 206.093 303.43 205.881 303.631C205.672 303.828 205.42 303.926 205.125 303.926ZM209.95 308.818V314H208.251V305.273H209.882V306.693H209.99C210.191 306.231 210.505 305.86 210.933 305.58C211.365 305.299 211.909 305.159 212.564 305.159C213.159 305.159 213.679 305.284 214.126 305.534C214.573 305.78 214.92 306.148 215.166 306.636C215.412 307.125 215.536 307.729 215.536 308.449V314H213.837V308.653C213.837 308.021 213.672 307.527 213.342 307.17C213.013 306.811 212.56 306.631 211.984 306.631C211.59 306.631 211.24 306.716 210.933 306.886C210.63 307.057 210.39 307.307 210.212 307.636C210.037 307.962 209.95 308.356 209.95 308.818ZM221.473 317.455C220.78 317.455 220.183 317.364 219.683 317.182C219.187 317 218.782 316.759 218.467 316.46C218.153 316.161 217.918 315.833 217.763 315.477L219.223 314.875C219.325 315.042 219.462 315.218 219.632 315.403C219.806 315.593 220.041 315.754 220.337 315.886C220.636 316.019 221.02 316.085 221.49 316.085C222.134 316.085 222.666 315.928 223.087 315.614C223.507 315.303 223.717 314.807 223.717 314.125V312.409H223.609C223.507 312.595 223.359 312.801 223.166 313.028C222.977 313.256 222.715 313.453 222.382 313.619C222.049 313.786 221.615 313.869 221.081 313.869C220.392 313.869 219.77 313.708 219.217 313.386C218.668 313.061 218.232 312.581 217.911 311.949C217.592 311.312 217.433 310.53 217.433 309.602C217.433 308.674 217.59 307.879 217.905 307.216C218.223 306.553 218.659 306.045 219.212 305.693C219.765 305.337 220.392 305.159 221.092 305.159C221.634 305.159 222.071 305.25 222.405 305.432C222.738 305.61 222.998 305.818 223.183 306.057C223.373 306.295 223.518 306.506 223.621 306.688H223.746V305.273H225.411V314.193C225.411 314.943 225.236 315.559 224.888 316.04C224.539 316.521 224.068 316.877 223.473 317.108C222.882 317.339 222.215 317.455 221.473 317.455ZM221.456 312.46C221.945 312.46 222.357 312.347 222.695 312.119C223.036 311.888 223.293 311.559 223.467 311.131C223.645 310.699 223.734 310.182 223.734 309.58C223.734 308.992 223.647 308.475 223.473 308.028C223.299 307.581 223.043 307.233 222.706 306.983C222.369 306.729 221.952 306.602 221.456 306.602C220.945 306.602 220.518 306.735 220.178 307C219.837 307.261 219.579 307.617 219.405 308.068C219.234 308.519 219.149 309.023 219.149 309.58C219.149 310.152 219.236 310.653 219.411 311.085C219.585 311.517 219.842 311.854 220.183 312.097C220.528 312.339 220.952 312.46 221.456 312.46ZM232.06 314V302.364H239.355V303.875H233.815V307.42H238.974V308.926H233.815V312.489H239.423V314H232.06ZM241.7 314V302.364H248.916V303.875H243.456V307.42H248.399V308.926H243.456V314H241.7ZM251.075 314V302.364H255.223C256.128 302.364 256.878 302.528 257.473 302.858C258.068 303.187 258.513 303.638 258.808 304.21C259.104 304.778 259.251 305.419 259.251 306.131C259.251 306.847 259.102 307.491 258.803 308.062C258.507 308.631 258.06 309.081 257.462 309.415C256.867 309.744 256.119 309.909 255.217 309.909H252.365V308.42H255.058C255.63 308.42 256.094 308.322 256.45 308.125C256.806 307.924 257.068 307.652 257.234 307.307C257.401 306.962 257.484 306.57 257.484 306.131C257.484 305.691 257.401 305.301 257.234 304.96C257.068 304.619 256.804 304.352 256.445 304.159C256.089 303.966 255.619 303.869 255.036 303.869H252.831V314H251.075Z" fill="#AFAFAF"/>
    <rect x="367" y="296" width="61" height="24" rx="12" fill="black" fill-opacity="0.05"/>
    <path d="M382.992 312.354V305.632H384.33V312.354H382.992ZM380.303 309.659V308.322H387.024V309.659H380.303ZM393.167 302.818V313H391.625V304.359H391.566L389.13 305.95V304.479L391.67 302.818H393.167ZM399.282 313.139C398.658 313.139 398.098 313.02 397.601 312.781C397.107 312.539 396.713 312.208 396.418 311.787C396.123 311.366 395.966 310.885 395.946 310.345H397.437C397.474 310.783 397.667 311.142 398.019 311.424C398.37 311.706 398.791 311.847 399.282 311.847C399.673 311.847 400.019 311.757 400.321 311.578C400.626 311.396 400.864 311.146 401.037 310.827C401.212 310.509 401.3 310.146 401.3 309.739C401.3 309.324 401.211 308.955 401.032 308.63C400.853 308.305 400.606 308.05 400.291 307.864C399.979 307.679 399.621 307.584 399.217 307.581C398.909 307.581 398.599 307.634 398.287 307.74C397.976 307.846 397.724 307.985 397.532 308.158L396.125 307.949L396.696 302.818H402.294V304.136H397.974L397.651 306.984H397.711C397.909 306.792 398.173 306.631 398.501 306.502C398.833 306.373 399.187 306.308 399.565 306.308C400.185 306.308 400.737 306.456 401.221 306.751C401.708 307.046 402.091 307.448 402.369 307.959C402.651 308.466 402.79 309.049 402.787 309.709C402.79 310.368 402.641 310.957 402.339 311.474C402.041 311.991 401.627 312.398 401.096 312.697C400.569 312.992 399.964 313.139 399.282 313.139ZM409.917 311.091V310.554C409.917 310.17 409.997 309.818 410.156 309.5C410.318 309.179 410.553 308.922 410.862 308.729C411.173 308.534 411.549 308.436 411.99 308.436C412.441 308.436 412.819 308.532 413.124 308.724C413.429 308.917 413.659 309.174 413.815 309.495C413.974 309.817 414.053 310.17 414.053 310.554V311.091C414.053 311.475 413.974 311.828 413.815 312.15C413.656 312.468 413.422 312.725 413.114 312.92C412.809 313.113 412.434 313.209 411.99 313.209C411.543 313.209 411.165 313.113 410.857 312.92C410.548 312.725 410.315 312.468 410.156 312.15C409.997 311.828 409.917 311.475 409.917 311.091ZM411.075 310.554V311.091C411.075 311.376 411.143 311.634 411.279 311.866C411.415 312.098 411.652 312.214 411.99 312.214C412.325 312.214 412.559 312.098 412.691 311.866C412.824 311.634 412.89 311.376 412.89 311.091V310.554C412.89 310.269 412.825 310.01 412.696 309.778C412.57 309.546 412.335 309.43 411.99 309.43C411.659 309.43 411.423 309.546 411.284 309.778C411.145 310.01 411.075 310.269 411.075 310.554ZM404.796 305.264V304.727C404.796 304.343 404.876 303.99 405.035 303.668C405.197 303.347 405.433 303.09 405.741 302.898C406.052 302.705 406.429 302.609 406.869 302.609C407.32 302.609 407.698 302.705 408.003 302.898C408.308 303.09 408.538 303.347 408.694 303.668C408.85 303.99 408.928 304.343 408.928 304.727V305.264C408.928 305.649 408.848 306.002 408.689 306.323C408.533 306.641 408.301 306.898 407.993 307.094C407.688 307.286 407.314 307.382 406.869 307.382C406.419 307.382 406.039 307.286 405.731 307.094C405.426 306.898 405.194 306.641 405.035 306.323C404.876 306.002 404.796 305.649 404.796 305.264ZM405.96 304.727V305.264C405.96 305.549 406.026 305.808 406.159 306.04C406.294 306.272 406.531 306.388 406.869 306.388C407.201 306.388 407.433 306.272 407.566 306.04C407.701 305.808 407.769 305.549 407.769 305.264V304.727C407.769 304.442 407.705 304.184 407.575 303.952C407.446 303.72 407.211 303.604 406.869 303.604C406.538 303.604 406.303 303.72 406.164 303.952C406.028 304.184 405.96 304.442 405.96 304.727ZM405.269 313L412.269 302.818H413.457L406.457 313H405.269Z" fill="black"/>
    <rect x="267.5" y="0.5" width="216" height="216" rx="108" fill="white"/>
    <rect x="267.5" y="0.5" width="216" height="216" rx="108" stroke="#EBEBEB"/>
    <circle cx="375.5" cy="108.5" r="76.5" stroke="#F6F6F6" strokeWidth="16"/>
    <path d="M361.281 128.437C359.073 128.437 357.104 128.031 355.375 127.219C353.656 126.406 352.292 125.286 351.281 123.859C350.271 122.432 349.745 120.797 349.703 118.953H356.266C356.339 120.193 356.859 121.198 357.828 121.969C358.797 122.74 359.948 123.125 361.281 123.125C362.344 123.125 363.281 122.891 364.094 122.422C364.917 121.943 365.557 121.281 366.016 120.438C366.484 119.583 366.719 118.604 366.719 117.5C366.719 116.375 366.479 115.385 366 114.531C365.531 113.677 364.88 113.01 364.047 112.531C363.214 112.052 362.26 111.807 361.188 111.797C360.25 111.797 359.339 111.99 358.453 112.375C357.578 112.76 356.896 113.286 356.406 113.953L350.391 112.875L351.906 96H371.469V101.531H357.484L356.656 109.547H356.844C357.406 108.755 358.255 108.099 359.391 107.578C360.526 107.057 361.797 106.797 363.203 106.797C365.13 106.797 366.849 107.25 368.359 108.156C369.87 109.062 371.062 110.307 371.938 111.891C372.813 113.464 373.245 115.276 373.234 117.328C373.245 119.484 372.745 121.401 371.734 123.078C370.734 124.745 369.333 126.057 367.531 127.016C365.74 127.964 363.656 128.437 361.281 128.437ZM390.5 128.703C387.813 128.693 385.5 128.031 383.563 126.719C381.635 125.406 380.151 123.505 379.109 121.016C378.078 118.526 377.568 115.531 377.578 112.031C377.578 108.542 378.094 105.568 379.125 103.109C380.167 100.651 381.651 98.7812 383.578 97.5C385.516 96.2083 387.823 95.5625 390.5 95.5625C393.177 95.5625 395.479 96.2083 397.406 97.5C399.344 98.7917 400.833 100.667 401.875 103.125C402.917 105.573 403.432 108.542 403.422 112.031C403.422 115.542 402.901 118.542 401.859 121.031C400.828 123.521 399.349 125.422 397.422 126.734C395.495 128.047 393.188 128.703 390.5 128.703ZM390.5 123.094C392.333 123.094 393.797 122.172 394.891 120.328C395.984 118.484 396.526 115.719 396.516 112.031C396.516 109.604 396.266 107.583 395.766 105.969C395.276 104.354 394.578 103.141 393.672 102.328C392.776 101.516 391.719 101.109 390.5 101.109C388.677 101.109 387.219 102.021 386.125 103.844C385.031 105.667 384.479 108.396 384.469 112.031C384.469 114.49 384.714 116.542 385.203 118.187C385.703 119.823 386.406 121.052 387.313 121.875C388.219 122.687 389.281 123.094 390.5 123.094Z" fill="black"/>
    <path d="M414.398 106.091V105.554C414.398 105.146 414.485 104.772 414.657 104.43C414.833 104.086 415.086 103.811 415.418 103.605C415.752 103.396 416.16 103.292 416.641 103.292C417.128 103.292 417.537 103.395 417.869 103.6C418.203 103.806 418.455 104.081 418.624 104.425C418.797 104.767 418.883 105.143 418.883 105.554V106.091C418.883 106.499 418.797 106.875 418.624 107.219C418.452 107.561 418.198 107.834 417.864 108.04C417.529 108.249 417.121 108.353 416.641 108.353C416.153 108.353 415.744 108.249 415.413 108.04C415.081 107.834 414.829 107.561 414.657 107.219C414.485 106.875 414.398 106.499 414.398 106.091ZM415.845 105.554V106.091C415.845 106.326 415.902 106.548 416.014 106.757C416.13 106.966 416.339 107.07 416.641 107.07C416.942 107.07 417.148 106.968 417.257 106.762C417.37 106.557 417.426 106.333 417.426 106.091V105.554C417.426 105.312 417.373 105.087 417.267 104.878C417.161 104.669 416.952 104.565 416.641 104.565C416.342 104.565 416.135 104.669 416.019 104.878C415.903 105.087 415.845 105.312 415.845 105.554ZM409.173 100.264V99.7273C409.173 99.3163 409.261 98.9401 409.437 98.5987C409.612 98.254 409.866 97.9789 410.197 97.7734C410.532 97.5679 410.937 97.4652 411.411 97.4652C411.901 97.4652 412.312 97.5679 412.643 97.7734C412.975 97.9789 413.227 98.254 413.399 98.5987C413.571 98.9401 413.658 99.3163 413.658 99.7273V100.264C413.658 100.675 413.57 101.051 413.394 101.393C413.222 101.734 412.968 102.008 412.634 102.213C412.302 102.415 411.894 102.516 411.411 102.516C410.927 102.516 410.517 102.414 410.183 102.208C409.851 101.999 409.599 101.726 409.427 101.388C409.258 101.046 409.173 100.672 409.173 100.264ZM410.63 99.7273V100.264C410.63 100.506 410.686 100.73 410.799 100.935C410.915 101.141 411.119 101.244 411.411 101.244C411.715 101.244 411.923 101.141 412.032 100.935C412.145 100.73 412.201 100.506 412.201 100.264V99.7273C412.201 99.4853 412.148 99.2599 412.042 99.0511C411.936 98.8423 411.725 98.7379 411.411 98.7379C411.116 98.7379 410.912 98.844 410.799 99.0561C410.686 99.2682 410.63 99.492 410.63 99.7273ZM409.83 108L416.83 97.8182H418.132L411.132 108H409.83Z" fill="#808080"/>
    <path d="M337.961 79V70.2727H343.432V71.4062H339.278V74.0653H343.147V75.1946H339.278V77.8665H343.483V79H337.961ZM352.535 70.2727V79H351.325L346.889 72.5994H346.808V79H345.491V70.2727H346.71L351.15 76.6818H351.231V70.2727H352.535ZM359.516 72.5653C359.471 72.1619 359.283 71.8494 358.954 71.6278C358.624 71.4034 358.209 71.2912 357.709 71.2912C357.351 71.2912 357.042 71.348 356.78 71.4616C356.519 71.5724 356.316 71.7259 356.171 71.9219C356.029 72.1151 355.958 72.3352 355.958 72.5824C355.958 72.7898 356.006 72.9687 356.103 73.1193C356.202 73.2699 356.331 73.3963 356.49 73.4986C356.652 73.598 356.826 73.6818 357.01 73.75C357.195 73.8153 357.373 73.8693 357.543 73.9119L358.395 74.1335C358.674 74.2017 358.959 74.294 359.252 74.4105C359.544 74.527 359.816 74.6804 360.066 74.8707C360.316 75.0611 360.517 75.2969 360.671 75.5781C360.827 75.8594 360.905 76.196 360.905 76.5881C360.905 77.0824 360.777 77.5213 360.522 77.9048C360.269 78.2884 359.901 78.5909 359.418 78.8125C358.938 79.0341 358.357 79.1449 357.675 79.1449C357.022 79.1449 356.456 79.0412 355.979 78.8338C355.502 78.6264 355.128 78.3324 354.858 77.9517C354.588 77.5682 354.439 77.1136 354.411 76.5881H355.732C355.757 76.9034 355.86 77.1662 356.039 77.3764C356.221 77.5838 356.452 77.7386 356.733 77.8409C357.017 77.9403 357.329 77.9901 357.667 77.9901C358.039 77.9901 358.37 77.9318 358.659 77.8153C358.952 77.696 359.182 77.5312 359.35 77.321C359.517 77.108 359.601 76.8594 359.601 76.5753C359.601 76.3168 359.527 76.1051 359.38 75.9403C359.235 75.7756 359.037 75.6392 358.787 75.5312C358.54 75.4233 358.26 75.3281 357.948 75.2457L356.917 74.9645C356.218 74.7741 355.664 74.4943 355.255 74.125C354.848 73.7557 354.645 73.267 354.645 72.6591C354.645 72.1562 354.782 71.7173 355.054 71.3423C355.327 70.9673 355.696 70.6761 356.162 70.4688C356.628 70.2585 357.154 70.1534 357.739 70.1534C358.33 70.1534 358.851 70.2571 359.303 70.4645C359.757 70.6719 360.115 70.9574 360.377 71.321C360.638 71.6818 360.775 72.0966 360.786 72.5653H359.516ZM366.255 79V70.2727H369.365C370.044 70.2727 370.607 70.3963 371.053 70.6435C371.499 70.8906 371.833 71.2287 372.054 71.6577C372.276 72.0838 372.387 72.5639 372.387 73.098C372.387 73.6349 372.274 74.1179 372.05 74.5469C371.828 74.973 371.493 75.3111 371.044 75.5611C370.598 75.8082 370.037 75.9318 369.361 75.9318H367.222V74.8153H369.242C369.671 74.8153 370.019 74.7415 370.286 74.5938C370.553 74.4432 370.749 74.2386 370.874 73.9801C370.999 73.7216 371.061 73.4276 371.061 73.098C371.061 72.7685 370.999 72.4759 370.874 72.2202C370.749 71.9645 370.551 71.7642 370.281 71.6193C370.014 71.4744 369.662 71.402 369.225 71.402H367.571V79H366.255ZM374.23 79V70.2727H377.341C378.017 70.2727 378.578 70.3892 379.024 70.6222C379.473 70.8551 379.808 71.1776 380.03 71.5895C380.252 71.9986 380.362 72.4716 380.362 73.0085C380.362 73.5426 380.25 74.0128 380.026 74.419C379.804 74.8224 379.469 75.1364 379.02 75.3608C378.574 75.5852 378.013 75.6974 377.337 75.6974H374.98V74.5639H377.218C377.644 74.5639 377.99 74.5028 378.257 74.3807C378.527 74.2585 378.725 74.081 378.85 73.848C378.975 73.6151 379.037 73.3352 379.037 73.0085C379.037 72.679 378.973 72.3935 378.845 72.152C378.72 71.9105 378.523 71.7259 378.253 71.598C377.986 71.4673 377.635 71.402 377.2 71.402H375.547V79H374.23ZM378.539 75.0625L380.695 79H379.195L377.081 75.0625H378.539ZM389.846 74.6364C389.846 75.5682 389.675 76.3693 389.334 77.0398C388.993 77.7074 388.526 78.2216 387.932 78.5824C387.341 78.9403 386.669 79.1193 385.917 79.1193C385.161 79.1193 384.486 78.9403 383.893 78.5824C383.302 78.2216 382.836 77.706 382.495 77.0355C382.154 76.3651 381.983 75.5653 381.983 74.6364C381.983 73.7045 382.154 72.9048 382.495 72.2372C382.836 71.5668 383.302 71.0526 383.893 70.6946C384.486 70.3338 385.161 70.1534 385.917 70.1534C386.669 70.1534 387.341 70.3338 387.932 70.6946C388.526 71.0526 388.993 71.5668 389.334 72.2372C389.675 72.9048 389.846 73.7045 389.846 74.6364ZM388.542 74.6364C388.542 73.9261 388.427 73.3281 388.196 72.8423C387.969 72.3537 387.657 71.9844 387.259 71.7344C386.864 71.4815 386.417 71.3551 385.917 71.3551C385.414 71.3551 384.965 71.4815 384.57 71.7344C384.175 71.9844 383.863 72.3537 383.633 72.8423C383.405 73.3281 383.292 73.9261 383.292 74.6364C383.292 75.3466 383.405 75.946 383.633 76.4347C383.863 76.9205 384.175 77.2898 384.57 77.5426C384.965 77.7926 385.414 77.9176 385.917 77.9176C386.417 77.9176 386.864 77.7926 387.259 77.5426C387.657 77.2898 387.969 76.9205 388.196 76.4347C388.427 75.946 388.542 75.3466 388.542 74.6364ZM391.787 79V70.2727H397.199V71.4062H393.104V74.0653H396.811V75.1946H393.104V79H391.787ZM400.435 70.2727V79H399.119V70.2727H400.435ZM402.653 79V70.2727H403.97V77.8665H407.924V79H402.653ZM409.726 79V70.2727H415.198V71.4062H411.043V74.0653H414.912V75.1946H411.043V77.8665H415.249V79H409.726Z" fill="#808080"/>
    <path d="M360.752 146.565C360.706 146.162 360.519 145.849 360.189 145.628C359.86 145.403 359.445 145.291 358.945 145.291C358.587 145.291 358.277 145.348 358.016 145.462C357.754 145.572 357.551 145.726 357.406 145.922C357.264 146.115 357.193 146.335 357.193 146.582C357.193 146.79 357.242 146.969 357.338 147.119C357.438 147.27 357.567 147.396 357.726 147.499C357.888 147.598 358.061 147.682 358.246 147.75C358.431 147.815 358.608 147.869 358.779 147.912L359.631 148.134C359.909 148.202 360.195 148.294 360.487 148.411C360.78 148.527 361.051 148.68 361.301 148.871C361.551 149.061 361.753 149.297 361.906 149.578C362.063 149.859 362.141 150.196 362.141 150.588C362.141 151.082 362.013 151.521 361.757 151.905C361.504 152.288 361.137 152.591 360.654 152.812C360.173 153.034 359.592 153.145 358.911 153.145C358.257 153.145 357.692 153.041 357.215 152.834C356.737 152.626 356.364 152.332 356.094 151.952C355.824 151.568 355.675 151.114 355.646 150.588H356.967C356.993 150.903 357.095 151.166 357.274 151.376C357.456 151.584 357.688 151.739 357.969 151.841C358.253 151.94 358.564 151.99 358.902 151.99C359.274 151.99 359.605 151.932 359.895 151.815C360.188 151.696 360.418 151.531 360.585 151.321C360.753 151.108 360.837 150.859 360.837 150.575C360.837 150.317 360.763 150.105 360.615 149.94C360.47 149.776 360.273 149.639 360.023 149.531C359.776 149.423 359.496 149.328 359.183 149.246L358.152 148.964C357.453 148.774 356.899 148.494 356.49 148.125C356.084 147.756 355.881 147.267 355.881 146.659C355.881 146.156 356.017 145.717 356.29 145.342C356.563 144.967 356.932 144.676 357.398 144.469C357.864 144.259 358.389 144.153 358.975 144.153C359.565 144.153 360.087 144.257 360.538 144.464C360.993 144.672 361.351 144.957 361.612 145.321C361.874 145.682 362.01 146.097 362.021 146.565H360.752ZM371.263 147.111H369.933C369.882 146.827 369.787 146.577 369.648 146.361C369.509 146.145 369.338 145.962 369.136 145.811C368.935 145.661 368.709 145.547 368.459 145.47C368.212 145.393 367.949 145.355 367.671 145.355C367.168 145.355 366.717 145.482 366.32 145.734C365.925 145.987 365.612 146.358 365.382 146.847C365.155 147.335 365.041 147.932 365.041 148.636C365.041 149.347 365.155 149.946 365.382 150.435C365.612 150.923 365.926 151.293 366.324 151.543C366.722 151.793 367.169 151.918 367.666 151.918C367.942 151.918 368.203 151.881 368.45 151.807C368.7 151.73 368.926 151.618 369.128 151.47C369.33 151.322 369.5 151.142 369.639 150.929C369.781 150.713 369.879 150.466 369.933 150.188L371.263 150.192C371.192 150.621 371.054 151.016 370.85 151.376C370.648 151.734 370.388 152.044 370.07 152.305C369.754 152.564 369.394 152.764 368.987 152.906C368.581 153.048 368.138 153.119 367.658 153.119C366.902 153.119 366.229 152.94 365.638 152.582C365.047 152.222 364.581 151.706 364.24 151.036C363.902 150.365 363.733 149.565 363.733 148.636C363.733 147.705 363.903 146.905 364.244 146.237C364.585 145.567 365.051 145.053 365.642 144.695C366.233 144.334 366.905 144.153 367.658 144.153C368.121 144.153 368.553 144.22 368.953 144.354C369.357 144.484 369.719 144.678 370.04 144.933C370.361 145.186 370.626 145.496 370.837 145.862C371.047 146.226 371.189 146.642 371.263 147.111ZM380.719 148.636C380.719 149.568 380.549 150.369 380.208 151.04C379.867 151.707 379.4 152.222 378.806 152.582C378.215 152.94 377.543 153.119 376.79 153.119C376.035 153.119 375.36 152.94 374.766 152.582C374.175 152.222 373.71 151.706 373.369 151.036C373.028 150.365 372.857 149.565 372.857 148.636C372.857 147.705 373.028 146.905 373.369 146.237C373.71 145.567 374.175 145.053 374.766 144.695C375.36 144.334 376.035 144.153 376.79 144.153C377.543 144.153 378.215 144.334 378.806 144.695C379.4 145.053 379.867 145.567 380.208 146.237C380.549 146.905 380.719 147.705 380.719 148.636ZM379.415 148.636C379.415 147.926 379.3 147.328 379.07 146.842C378.843 146.354 378.531 145.984 378.133 145.734C377.738 145.482 377.29 145.355 376.79 145.355C376.288 145.355 375.839 145.482 375.444 145.734C375.049 145.984 374.737 146.354 374.506 146.842C374.279 147.328 374.165 147.926 374.165 148.636C374.165 149.347 374.279 149.946 374.506 150.435C374.737 150.92 375.049 151.29 375.444 151.543C375.839 151.793 376.288 151.918 376.79 151.918C377.29 151.918 377.738 151.793 378.133 151.543C378.531 151.29 378.843 150.92 379.07 150.435C379.3 149.946 379.415 149.347 379.415 148.636ZM382.661 153V144.273H385.772C386.448 144.273 387.009 144.389 387.455 144.622C387.904 144.855 388.239 145.178 388.461 145.589C388.682 145.999 388.793 146.472 388.793 147.009C388.793 147.543 388.681 148.013 388.457 148.419C388.235 148.822 387.9 149.136 387.451 149.361C387.005 149.585 386.444 149.697 385.768 149.697H383.411V148.564H385.648C386.075 148.564 386.421 148.503 386.688 148.381C386.958 148.259 387.155 148.081 387.28 147.848C387.405 147.615 387.468 147.335 387.468 147.009C387.468 146.679 387.404 146.393 387.276 146.152C387.151 145.911 386.954 145.726 386.684 145.598C386.417 145.467 386.066 145.402 385.631 145.402H383.978V153H382.661ZM386.969 149.062L389.126 153H387.626L385.512 149.062H386.969ZM390.696 153V144.273H396.167V145.406H392.012V148.065H395.882V149.195H392.012V151.866H396.218V153H390.696Z" fill="#808080"/>
    <path d="M376 185C418.25 185 452.5 150.75 452.5 108.5C452.5 66.2502 418.25 32 376 32" stroke="url(#paint0_linear_27_361)" strokeWidth="16" stroke-linecap="round" stroke-linejoin="round"/>
    <defs>
        <linearGradient id="paint0_linear_27_361" x1="414.25" y1="32" x2="414.25" y2="185" gradientUnits="userSpaceOnUse">
            <stop stopColor="#FFAE02"/>
            <stop offset="1" stopColor="#EA14D7"/>
        </linearGradient>
    </defs>
</svg>
