<svg width="720" height="479" viewBox="0 0 720 479" fill="none" xmlns="http://www.w3.org/2000/svg">
    <rect x="148.306" y="83.1363" width="393.353" height="85.9816" rx="12.3474" fill="white"/>
    <rect x="148.306" y="83.1363" width="393.353" height="85.9816" rx="12.3474" stroke="#EBEBEB" stroke-width="0.905805"/>
    <path d="M186.361 150.712V107.569H199.811V112.99H193.384V145.275H199.811V150.712H186.361ZM222.571 111.95L225.367 113.399L212.173 139.343L209.514 137.723L222.571 111.95ZM217.44 143.843C214.508 143.843 211.986 143.127 209.872 141.695C207.77 140.252 206.15 138.178 205.014 135.473C203.889 132.757 203.332 129.49 203.343 125.672C203.343 121.854 203.906 118.609 205.031 115.939C206.167 113.257 207.787 111.217 209.889 109.819C212.003 108.41 214.52 107.706 217.44 107.706C220.361 107.706 222.872 108.41 224.975 109.819C227.088 111.217 228.713 113.257 229.85 115.939C230.986 118.621 231.549 121.865 231.537 125.672C231.537 129.502 230.969 132.774 229.833 135.49C228.708 138.206 227.094 140.28 224.992 141.712C222.889 143.133 220.372 143.843 217.44 143.843ZM217.44 137.723C219.44 137.723 221.037 136.723 222.23 134.723C223.423 132.712 224.014 129.695 224.003 125.672C224.003 123.024 223.73 120.82 223.185 119.058C222.651 117.297 221.889 115.973 220.901 115.086C219.923 114.2 218.77 113.757 217.44 113.757C215.452 113.757 213.861 114.751 212.667 116.74C211.474 118.729 210.872 121.706 210.861 125.672C210.861 128.342 211.128 130.575 211.662 132.371C212.207 134.155 212.974 135.496 213.963 136.394C214.952 137.28 216.111 137.723 217.44 137.723ZM255.619 111.95L258.414 113.399L245.221 139.343L242.562 137.723L255.619 111.95ZM250.488 143.843C247.556 143.843 245.033 143.127 242.92 141.695C240.817 140.252 239.198 138.178 238.062 135.473C236.936 132.757 236.38 129.49 236.391 125.672C236.391 121.854 236.954 118.609 238.079 115.939C239.215 113.257 240.834 111.217 242.937 109.819C245.05 108.41 247.567 107.706 250.488 107.706C253.408 107.706 255.92 108.41 258.022 109.819C260.136 111.217 261.761 113.257 262.897 115.939C264.034 118.621 264.596 121.865 264.585 125.672C264.585 129.502 264.017 132.774 262.88 135.49C261.755 138.206 260.142 140.28 258.039 141.712C255.937 143.133 253.42 143.843 250.488 143.843ZM250.488 137.723C252.488 137.723 254.085 136.723 255.278 134.723C256.471 132.712 257.062 129.695 257.051 125.672C257.051 123.024 256.778 120.82 256.232 119.058C255.698 117.297 254.937 115.973 253.948 115.086C252.971 114.2 251.818 113.757 250.488 113.757C248.499 113.757 246.908 114.751 245.715 116.74C244.522 118.729 243.92 121.706 243.908 125.672C243.908 128.342 244.175 130.575 244.709 132.371C245.255 134.155 246.022 135.496 247.011 136.394C247.999 137.28 249.158 137.723 250.488 137.723ZM270.052 143.127V108.217H277.314V121.342H277.536C277.854 120.638 278.314 119.922 278.916 119.195C279.53 118.456 280.325 117.842 281.303 117.354C282.291 116.854 283.519 116.604 284.985 116.604C286.894 116.604 288.655 117.104 290.269 118.104C291.882 119.092 293.172 120.587 294.138 122.587C295.104 124.575 295.587 127.07 295.587 130.07C295.587 132.99 295.116 135.456 294.172 137.468C293.24 139.468 291.968 140.985 290.354 142.019C288.752 143.042 286.956 143.553 284.968 143.553C283.558 143.553 282.36 143.32 281.371 142.854C280.394 142.388 279.592 141.803 278.967 141.098C278.342 140.383 277.865 139.661 277.536 138.934H277.212V143.127H270.052ZM277.161 130.036C277.161 131.593 277.376 132.951 277.808 134.11C278.24 135.269 278.865 136.172 279.683 136.82C280.502 137.456 281.496 137.775 282.666 137.775C283.848 137.775 284.848 137.451 285.666 136.803C286.485 136.144 287.104 135.235 287.524 134.076C287.956 132.905 288.172 131.558 288.172 130.036C288.172 128.524 287.962 127.195 287.541 126.047C287.121 124.899 286.502 124.001 285.683 123.354C284.865 122.706 283.86 122.382 282.666 122.382C281.484 122.382 280.484 122.695 279.666 123.32C278.859 123.945 278.24 124.831 277.808 125.979C277.376 127.127 277.161 128.479 277.161 130.036Z" fill="url(#paint0_linear_30_2957)"/>
    <path d="M330.931 143.638C328.249 143.638 325.942 143.07 324.011 141.934C322.09 140.786 320.613 139.195 319.579 137.161C318.556 135.127 318.045 132.786 318.045 130.138C318.045 127.456 318.562 125.104 319.596 123.081C320.641 121.047 322.124 119.462 324.045 118.325C325.965 117.178 328.249 116.604 330.897 116.604C333.181 116.604 335.181 117.018 336.897 117.848C338.613 118.678 339.971 119.842 340.971 121.342C341.971 122.842 342.522 124.604 342.625 126.627H335.772C335.579 125.32 335.068 124.269 334.238 123.473C333.42 122.666 332.346 122.263 331.016 122.263C329.891 122.263 328.908 122.57 328.068 123.183C327.238 123.786 326.59 124.666 326.124 125.825C325.658 126.985 325.425 128.388 325.425 130.036C325.425 131.706 325.653 133.127 326.107 134.297C326.573 135.468 327.227 136.36 328.068 136.974C328.908 137.587 329.891 137.894 331.016 137.894C331.846 137.894 332.59 137.724 333.25 137.383C333.92 137.042 334.471 136.547 334.903 135.9C335.346 135.241 335.636 134.451 335.772 133.53H342.625C342.511 135.53 341.966 137.292 340.988 138.814C340.022 140.326 338.687 141.508 336.983 142.36C335.278 143.212 333.261 143.638 330.931 143.638ZM359.104 143.638C356.456 143.638 354.166 143.076 352.234 141.951C350.314 140.815 348.831 139.235 347.785 137.212C346.74 135.178 346.217 132.82 346.217 130.138C346.217 127.433 346.74 125.07 347.785 123.047C348.831 121.013 350.314 119.433 352.234 118.308C354.166 117.172 356.456 116.604 359.104 116.604C361.752 116.604 364.036 117.172 365.956 118.308C367.888 119.433 369.377 121.013 370.422 123.047C371.468 125.07 371.991 127.433 371.991 130.138C371.991 132.82 371.468 135.178 370.422 137.212C369.377 139.235 367.888 140.815 365.956 141.951C364.036 143.076 361.752 143.638 359.104 143.638ZM359.138 138.013C360.343 138.013 361.348 137.672 362.155 136.991C362.962 136.297 363.57 135.354 363.979 134.161C364.399 132.968 364.61 131.61 364.61 130.087C364.61 128.564 364.399 127.206 363.979 126.013C363.57 124.82 362.962 123.877 362.155 123.183C361.348 122.49 360.343 122.144 359.138 122.144C357.922 122.144 356.899 122.49 356.07 123.183C355.251 123.877 354.632 124.82 354.212 126.013C353.803 127.206 353.598 128.564 353.598 130.087C353.598 131.61 353.803 132.968 354.212 134.161C354.632 135.354 355.251 136.297 356.07 136.991C356.899 137.672 357.922 138.013 359.138 138.013ZM376.712 143.127V116.945H383.974V143.127H376.712ZM380.36 113.57C379.281 113.57 378.354 113.212 377.582 112.496C376.82 111.768 376.44 110.899 376.44 109.888C376.44 108.888 376.82 108.03 377.582 107.314C378.354 106.586 379.281 106.223 380.36 106.223C381.44 106.223 382.36 106.586 383.122 107.314C383.894 108.03 384.281 108.888 384.281 109.888C384.281 110.899 383.894 111.768 383.122 112.496C382.36 113.212 381.44 113.57 380.36 113.57ZM397.052 127.99V143.127H389.791V116.945H396.711V121.564H397.018C397.598 120.041 398.569 118.837 399.933 117.95C401.297 117.053 402.95 116.604 404.893 116.604C406.712 116.604 408.297 117.001 409.649 117.797C411.001 118.592 412.053 119.729 412.803 121.206C413.553 122.672 413.928 124.422 413.928 126.456V143.127H406.666V127.752C406.678 126.149 406.268 124.899 405.439 124.002C404.609 123.092 403.467 122.638 402.013 122.638C401.035 122.638 400.172 122.848 399.422 123.269C398.683 123.689 398.103 124.303 397.683 125.11C397.274 125.905 397.064 126.865 397.052 127.99ZM423.895 143.57C422.77 143.57 421.804 143.173 420.997 142.377C420.202 141.57 419.804 140.604 419.804 139.479C419.804 138.366 420.202 137.411 420.997 136.616C421.804 135.82 422.77 135.422 423.895 135.422C424.986 135.422 425.941 135.82 426.759 136.616C427.577 137.411 427.986 138.366 427.986 139.479C427.986 140.229 427.793 140.917 427.407 141.542C427.032 142.155 426.537 142.65 425.924 143.025C425.31 143.388 424.634 143.57 423.895 143.57ZM445.88 143.638C443.187 143.638 440.869 143.093 438.925 142.002C436.994 140.9 435.505 139.343 434.459 137.331C433.414 135.309 432.891 132.917 432.891 130.155C432.891 127.462 433.414 125.098 434.459 123.064C435.505 121.03 436.977 119.445 438.874 118.308C440.783 117.172 443.022 116.604 445.59 116.604C447.318 116.604 448.926 116.882 450.414 117.439C451.914 117.984 453.221 118.808 454.335 119.911C455.46 121.013 456.335 122.399 456.96 124.07C457.585 125.729 457.898 127.672 457.898 129.899V131.894H435.789V127.394H451.062C451.062 126.348 450.835 125.422 450.38 124.615C449.926 123.808 449.295 123.178 448.488 122.723C447.693 122.257 446.767 122.024 445.71 122.024C444.607 122.024 443.63 122.28 442.778 122.791C441.937 123.291 441.278 123.967 440.801 124.82C440.323 125.661 440.079 126.598 440.068 127.632V131.911C440.068 133.206 440.306 134.326 440.783 135.269C441.272 136.212 441.96 136.939 442.846 137.451C443.732 137.962 444.784 138.218 446 138.218C446.806 138.218 447.545 138.104 448.216 137.877C448.886 137.65 449.46 137.309 449.937 136.854C450.414 136.4 450.778 135.843 451.028 135.184L457.744 135.627C457.403 137.241 456.704 138.65 455.648 139.854C454.602 141.047 453.25 141.979 451.591 142.65C449.943 143.309 448.039 143.638 445.88 143.638ZM476.563 116.945V122.399H460.795V116.945H476.563ZM464.375 110.672H471.637V135.081C471.637 135.752 471.739 136.275 471.943 136.65C472.148 137.013 472.432 137.269 472.796 137.417C473.171 137.564 473.603 137.638 474.091 137.638C474.432 137.638 474.773 137.61 475.114 137.553C475.455 137.485 475.716 137.434 475.898 137.4L477.04 142.803C476.676 142.917 476.165 143.048 475.506 143.195C474.847 143.354 474.046 143.451 473.103 143.485C471.352 143.553 469.818 143.32 468.5 142.786C467.193 142.252 466.176 141.422 465.449 140.297C464.722 139.172 464.364 137.752 464.375 136.036V110.672ZM489.117 127.99V143.127H481.856V108.217H488.913V121.564H489.219C489.81 120.019 490.765 118.808 492.083 117.933C493.401 117.047 495.055 116.604 497.043 116.604C498.862 116.604 500.447 117.001 501.799 117.797C503.163 118.581 504.22 119.712 504.97 121.189C505.731 122.655 506.106 124.411 506.095 126.456V143.127H498.833V127.752C498.845 126.138 498.436 124.882 497.606 123.985C496.788 123.087 495.64 122.638 494.163 122.638C493.174 122.638 492.299 122.848 491.538 123.269C490.788 123.689 490.197 124.303 489.765 125.11C489.344 125.905 489.128 126.865 489.117 127.99Z" fill="url(#paint1_linear_30_2957)"/>
    <g filter="url(#filter0_d_30_2957)">
        <rect x="117" y="193.765" width="509.858" height="116.157" rx="14.5196" fill="white" shape-rendering="crispEdges"/>
        <rect x="117.454" y="194.219" width="508.95" height="115.249" rx="14.0658" stroke="#EBEBEB" stroke-width="0.907473" shape-rendering="crispEdges"/>
        <path d="M151.94 279.448V230.51H167.195V236.659H159.906V273.28H167.195V279.448H151.94ZM193.013 235.479L196.184 237.123L181.218 266.551L178.202 264.714L193.013 235.479ZM187.193 271.656C183.867 271.656 181.006 270.843 178.608 269.219C176.223 267.582 174.386 265.23 173.097 262.162C171.821 259.081 171.19 255.375 171.203 251.044C171.203 246.713 171.841 243.033 173.117 240.004C174.406 236.961 176.243 234.648 178.627 233.062C181.025 231.464 183.88 230.665 187.193 230.665C190.506 230.665 193.354 231.464 195.739 233.062C198.137 234.648 199.98 236.961 201.269 240.004C202.558 243.046 203.196 246.726 203.183 251.044C203.183 255.388 202.539 259.1 201.25 262.181C199.974 265.262 198.143 267.614 195.758 269.239C193.374 270.85 190.519 271.656 187.193 271.656ZM187.193 264.714C189.462 264.714 191.273 263.58 192.626 261.311C193.98 259.03 194.65 255.607 194.637 251.044C194.637 248.041 194.328 245.54 193.709 243.542C193.103 241.544 192.239 240.042 191.118 239.037C190.009 238.031 188.701 237.529 187.193 237.529C184.937 237.529 183.132 238.656 181.779 240.912C180.426 243.168 179.742 246.545 179.729 251.044C179.729 254.073 180.032 256.606 180.638 258.643C181.257 260.667 182.127 262.188 183.248 263.206C184.37 264.211 185.685 264.714 187.193 264.714ZM230.499 235.479L233.67 237.123L218.705 266.551L215.688 264.714L230.499 235.479ZM224.679 271.656C221.354 271.656 218.492 270.843 216.094 269.219C213.71 267.582 211.873 265.23 210.584 262.162C209.308 259.081 208.676 255.375 208.689 251.044C208.689 246.713 209.327 243.033 210.603 240.004C211.892 236.961 213.729 234.648 216.114 233.062C218.511 231.464 221.367 230.665 224.679 230.665C227.992 230.665 230.841 231.464 233.226 233.062C235.623 234.648 237.466 236.961 238.755 240.004C240.045 243.046 240.683 246.726 240.67 251.044C240.67 255.388 240.025 259.1 238.736 262.181C237.46 265.262 235.63 267.614 233.245 269.239C230.86 270.85 228.005 271.656 224.679 271.656ZM224.679 264.714C226.948 264.714 228.759 263.58 230.113 261.311C231.466 259.03 232.136 255.607 232.123 251.044C232.123 248.041 231.814 245.54 231.195 243.542C230.59 241.544 229.726 240.042 228.604 239.037C227.496 238.031 226.187 237.529 224.679 237.529C222.424 237.529 220.619 238.656 219.265 240.912C217.912 243.168 217.229 246.545 217.216 251.044C217.216 254.073 217.519 256.606 218.125 258.643C218.743 260.667 219.613 262.188 220.735 263.206C221.856 264.211 223.171 264.714 224.679 264.714ZM261.102 271.385C258.37 271.385 255.933 270.882 253.794 269.877C251.667 268.871 249.978 267.486 248.728 265.72C247.477 263.954 246.826 261.93 246.775 259.648H254.896C254.986 261.182 255.63 262.426 256.829 263.38C258.028 264.334 259.452 264.811 261.102 264.811C262.417 264.811 263.577 264.521 264.583 263.941C265.601 263.348 266.394 262.529 266.961 261.485C267.541 260.428 267.831 259.216 267.831 257.85C267.831 256.458 267.535 255.233 266.942 254.176C266.362 253.119 265.556 252.294 264.525 251.701C263.493 251.108 262.314 250.806 260.986 250.793C259.826 250.793 258.698 251.031 257.603 251.508C256.52 251.985 255.676 252.636 255.07 253.461L247.626 252.127L249.501 231.245H273.709V238.089H256.404L255.379 248.008H255.611C256.307 247.029 257.358 246.217 258.763 245.572C260.168 244.928 261.74 244.605 263.481 244.605C265.865 244.605 267.992 245.166 269.861 246.288C271.73 247.409 273.206 248.949 274.289 250.909C275.372 252.855 275.907 255.098 275.894 257.637C275.907 260.306 275.288 262.677 274.038 264.753C272.8 266.815 271.067 268.439 268.836 269.625C266.619 270.798 264.041 271.385 261.102 271.385ZM281.811 231.245H290.047V261.949C290.06 262.89 290.228 263.573 290.55 263.999C290.885 264.411 291.452 264.617 292.252 264.617C292.664 264.605 292.986 264.579 293.218 264.54C293.45 264.501 293.644 264.45 293.798 264.385L295.113 270.379C294.688 270.508 294.166 270.644 293.547 270.785C292.941 270.914 292.123 270.998 291.091 271.037C287.933 271.153 285.6 270.56 284.092 269.258C282.584 267.943 281.823 265.874 281.811 263.051V231.245Z" fill="url(#paint2_linear_30_2957)"/>
        <path d="M333.756 271.424C330.714 271.424 328.097 270.779 325.906 269.49C323.727 268.188 322.051 266.383 320.878 264.076C319.718 261.769 319.138 259.113 319.138 256.11C319.138 253.068 319.725 250.4 320.898 248.105C322.084 245.798 323.766 244 325.944 242.71C328.123 241.409 330.714 240.758 333.717 240.758C336.308 240.758 338.577 241.228 340.523 242.169C342.47 243.11 344.01 244.431 345.144 246.133C346.279 247.834 346.904 249.832 347.02 252.127H339.247C339.028 250.644 338.448 249.452 337.507 248.55C336.579 247.635 335.361 247.177 333.853 247.177C332.576 247.177 331.461 247.525 330.507 248.221C329.567 248.904 328.832 249.903 328.303 251.218C327.775 252.533 327.511 254.125 327.511 255.994C327.511 257.889 327.768 259.5 328.284 260.828C328.812 262.155 329.554 263.167 330.507 263.863C331.461 264.559 332.576 264.907 333.853 264.907C334.794 264.907 335.638 264.714 336.385 264.327C337.146 263.941 337.771 263.38 338.261 262.645C338.764 261.898 339.092 261.002 339.247 259.958H347.02C346.891 262.226 346.272 264.224 345.164 265.952C344.068 267.666 342.553 269.007 340.62 269.973C338.686 270.94 336.398 271.424 333.756 271.424ZM352.294 270.843V241.144H360.279V246.326H360.588C361.13 244.483 362.039 243.091 363.315 242.15C364.591 241.196 366.06 240.719 367.723 240.719C368.522 240.719 369.264 240.816 369.947 241.009C370.63 241.202 371.242 241.467 371.784 241.802L369.309 248.608C368.922 248.414 368.497 248.253 368.033 248.124C367.581 247.983 367.072 247.912 366.505 247.912C365.397 247.912 364.391 248.176 363.489 248.704C362.586 249.22 361.871 249.935 361.343 250.851C360.814 251.766 360.543 252.829 360.53 254.041V270.843H352.294ZM380.828 281.981C379.784 281.981 378.804 281.897 377.889 281.729C376.987 281.575 376.239 281.375 375.646 281.13L377.502 274.981C378.469 275.278 379.339 275.439 380.112 275.465C380.899 275.49 381.575 275.31 382.143 274.923C382.723 274.537 383.193 273.879 383.554 272.951L384.037 271.694L373.384 241.144H382.046L388.195 262.955H388.504L394.711 241.144H403.431L391.888 274.053C391.333 275.652 390.579 277.044 389.625 278.23C388.684 279.428 387.492 280.35 386.048 280.995C384.605 281.652 382.864 281.981 380.828 281.981ZM407.646 281.981V241.144H415.767V246.133H416.134C416.495 245.334 417.017 244.522 417.7 243.697C418.396 242.859 419.299 242.163 420.407 241.608C421.529 241.041 422.921 240.758 424.584 240.758C426.749 240.758 428.747 241.325 430.578 242.459C432.408 243.581 433.871 245.276 434.967 247.544C436.063 249.8 436.61 252.63 436.61 256.033C436.61 259.345 436.075 262.143 435.006 264.424C433.949 266.693 432.505 268.414 430.674 269.587C428.857 270.747 426.82 271.327 424.564 271.327C422.966 271.327 421.606 271.063 420.485 270.534C419.376 270.006 418.467 269.342 417.758 268.543C417.049 267.73 416.508 266.912 416.134 266.087H415.883V281.981H407.646ZM415.709 255.994C415.709 257.76 415.954 259.3 416.444 260.615C416.933 261.93 417.642 262.955 418.57 263.689C419.499 264.411 420.626 264.772 421.954 264.772C423.295 264.772 424.429 264.405 425.357 263.67C426.285 262.922 426.988 261.891 427.465 260.576C427.955 259.249 428.199 257.721 428.199 255.994C428.199 254.279 427.961 252.771 427.484 251.469C427.007 250.167 426.305 249.149 425.376 248.414C424.448 247.68 423.308 247.312 421.954 247.312C420.614 247.312 419.479 247.667 418.551 248.376C417.636 249.085 416.933 250.09 416.444 251.392C415.954 252.694 415.709 254.228 415.709 255.994ZM457.899 241.144V247.332H440.013V241.144H457.899ZM444.074 234.029H452.311V261.717C452.311 262.478 452.427 263.071 452.659 263.496C452.891 263.908 453.213 264.199 453.625 264.366C454.051 264.534 454.541 264.617 455.095 264.617C455.482 264.617 455.868 264.585 456.255 264.521C456.642 264.443 456.938 264.385 457.144 264.347L458.44 270.476C458.027 270.605 457.447 270.753 456.7 270.921C455.952 271.101 455.043 271.211 453.973 271.249C451.988 271.327 450.248 271.063 448.753 270.457C447.271 269.851 446.117 268.91 445.292 267.634C444.467 266.358 444.061 264.746 444.074 262.8V234.029ZM476.364 271.424C473.36 271.424 470.763 270.785 468.572 269.509C466.393 268.22 464.711 266.429 463.525 264.134C462.339 261.827 461.746 259.152 461.746 256.11C461.746 253.042 462.339 250.361 463.525 248.066C464.711 245.759 466.393 243.967 468.572 242.691C470.763 241.402 473.36 240.758 476.364 240.758C479.367 240.758 481.958 241.402 484.137 242.691C486.328 243.967 488.017 245.759 489.203 248.066C490.388 250.361 490.981 253.042 490.981 256.11C490.981 259.152 490.388 261.827 489.203 264.134C488.017 266.429 486.328 268.22 484.137 269.509C481.958 270.785 479.367 271.424 476.364 271.424ZM476.403 265.043C477.769 265.043 478.91 264.656 479.825 263.883C480.74 263.096 481.43 262.027 481.894 260.673C482.371 259.32 482.609 257.779 482.609 256.052C482.609 254.325 482.371 252.784 481.894 251.431C481.43 250.077 480.74 249.007 479.825 248.221C478.91 247.435 477.769 247.042 476.403 247.042C475.023 247.042 473.863 247.435 472.922 248.221C471.994 249.007 471.292 250.077 470.815 251.431C470.351 252.784 470.119 254.325 470.119 256.052C470.119 257.779 470.351 259.32 470.815 260.673C471.292 262.027 471.994 263.096 472.922 263.883C473.863 264.656 475.023 265.043 476.403 265.043ZM501.152 271.346C499.876 271.346 498.78 270.895 497.865 269.993C496.962 269.077 496.511 267.982 496.511 266.706C496.511 265.442 496.962 264.36 497.865 263.457C498.78 262.555 499.876 262.104 501.152 262.104C502.389 262.104 503.472 262.555 504.4 263.457C505.328 264.36 505.792 265.442 505.792 266.706C505.792 267.556 505.573 268.336 505.135 269.045C504.71 269.741 504.149 270.302 503.453 270.727C502.757 271.14 501.99 271.346 501.152 271.346ZM526.09 271.424C523.035 271.424 520.405 270.805 518.201 269.567C516.009 268.317 514.321 266.551 513.135 264.269C511.949 261.975 511.356 259.262 511.356 256.129C511.356 253.074 511.949 250.393 513.135 248.086C514.321 245.778 515.99 243.98 518.143 242.691C520.308 241.402 522.848 240.758 525.761 240.758C527.72 240.758 529.544 241.073 531.233 241.705C532.934 242.324 534.417 243.258 535.68 244.509C536.956 245.759 537.949 247.332 538.658 249.227C539.367 251.108 539.721 253.313 539.721 255.839V258.101H514.643V252.997H531.968C531.968 251.811 531.71 250.76 531.194 249.845C530.679 248.93 529.963 248.215 529.048 247.699C528.146 247.171 527.095 246.906 525.896 246.906C524.646 246.906 523.537 247.196 522.571 247.776C521.617 248.344 520.869 249.11 520.328 250.077C519.786 251.031 519.509 252.095 519.496 253.268V258.121C519.496 259.59 519.767 260.86 520.308 261.93C520.863 263 521.642 263.825 522.648 264.405C523.653 264.985 524.846 265.275 526.225 265.275C527.14 265.275 527.978 265.146 528.739 264.888C529.499 264.63 530.15 264.244 530.691 263.728C531.233 263.212 531.645 262.581 531.929 261.833L539.547 262.336C539.16 264.166 538.368 265.765 537.169 267.131C535.983 268.485 534.449 269.542 532.567 270.302C530.698 271.05 528.539 271.424 526.09 271.424ZM560.893 241.144V247.332H543.008V241.144H560.893ZM547.068 234.029H555.305V261.717C555.305 262.478 555.421 263.071 555.653 263.496C555.885 263.908 556.208 264.199 556.62 264.366C557.046 264.534 557.535 264.617 558.09 264.617C558.476 264.617 558.863 264.585 559.25 264.521C559.636 264.443 559.933 264.385 560.139 264.347L561.435 270.476C561.022 270.605 560.442 270.753 559.694 270.921C558.947 271.101 558.038 271.211 556.968 271.249C554.983 271.327 553.243 271.063 551.748 270.457C550.265 269.851 549.112 268.91 548.287 267.634C547.462 266.358 547.056 264.746 547.068 262.8V234.029ZM575.134 253.674V270.843H566.897V231.245H574.902V246.384H575.25C575.92 244.631 577.003 243.258 578.498 242.266C579.993 241.26 581.869 240.758 584.125 240.758C586.187 240.758 587.985 241.209 589.519 242.111C591.066 243.001 592.265 244.283 593.116 245.959C593.979 247.622 594.405 249.613 594.392 251.933V270.843H586.155V253.403C586.168 251.573 585.704 250.148 584.763 249.13C583.835 248.111 582.533 247.602 580.857 247.602C579.736 247.602 578.743 247.841 577.879 248.318C577.029 248.795 576.358 249.491 575.868 250.406C575.392 251.308 575.147 252.398 575.134 253.674Z" fill="url(#paint3_linear_30_2957)"/>
    </g>
    <rect x="183.716" y="334.192" width="342.256" height="61.6336" rx="8.58368" fill="white"/>
    <rect x="183.716" y="334.192" width="342.256" height="61.6336" rx="8.58368" stroke="#EBEBEB" stroke-width="0.982097"/>
    <path d="M209.833 381.172V351.809H218.986V355.498H214.612V377.471H218.986V381.172H209.833ZM234.477 354.79L236.379 355.776L227.4 373.434L225.59 372.331L234.477 354.79ZM230.985 376.496C228.989 376.496 227.272 376.009 225.834 375.035C224.403 374.052 223.301 372.641 222.527 370.8C221.762 368.952 221.383 366.728 221.39 364.129C221.39 361.531 221.773 359.323 222.539 357.505C223.312 355.68 224.414 354.292 225.845 353.34C227.284 352.381 228.997 351.902 230.985 351.902C232.972 351.902 234.682 352.381 236.112 353.34C237.551 354.292 238.657 355.68 239.43 357.505C240.204 359.33 240.587 361.538 240.579 364.129C240.579 366.736 240.192 368.963 239.419 370.812C238.653 372.66 237.555 374.072 236.124 375.046C234.693 376.013 232.98 376.496 230.985 376.496ZM230.985 372.331C232.346 372.331 233.432 371.651 234.245 370.29C235.057 368.921 235.459 366.867 235.451 364.129C235.451 362.327 235.265 360.827 234.894 359.628C234.531 358.429 234.013 357.528 233.34 356.925C232.675 356.322 231.89 356.02 230.985 356.02C229.631 356.02 228.548 356.697 227.736 358.05C226.924 359.404 226.514 361.43 226.507 364.129C226.507 365.947 226.688 367.467 227.052 368.689C227.423 369.903 227.945 370.816 228.618 371.427C229.291 372.03 230.08 372.331 230.985 372.331ZM256.968 354.79L258.871 355.776L249.892 373.434L248.082 372.331L256.968 354.79ZM253.476 376.496C251.481 376.496 249.764 376.009 248.326 375.035C246.895 374.052 245.793 372.641 245.019 370.8C244.254 368.952 243.875 366.728 243.882 364.129C243.882 361.531 244.265 359.323 245.031 357.505C245.804 355.68 246.906 354.292 248.337 353.34C249.776 352.381 251.489 351.902 253.476 351.902C255.464 351.902 257.173 352.381 258.604 353.34C260.043 354.292 261.149 355.68 261.922 357.505C262.696 359.33 263.078 361.538 263.071 364.129C263.071 366.736 262.684 368.963 261.911 370.812C261.145 372.66 260.047 374.072 258.616 375.046C257.185 376.013 255.472 376.496 253.476 376.496ZM253.476 372.331C254.838 372.331 255.924 371.651 256.736 370.29C257.549 368.921 257.951 366.867 257.943 364.129C257.943 362.327 257.757 360.827 257.386 359.628C257.023 358.429 256.504 357.528 255.832 356.925C255.166 356.322 254.381 356.02 253.476 356.02C252.123 356.02 251.04 356.697 250.228 358.05C249.416 359.404 249.006 361.43 248.998 364.129C248.998 365.947 249.18 367.467 249.544 368.689C249.915 369.903 250.437 370.816 251.11 371.427C251.783 372.03 252.572 372.331 253.476 372.331ZM266.281 369.292H271.351C271.397 369.887 271.599 370.406 271.954 370.846C272.318 371.28 272.793 371.612 273.381 371.844C273.969 372.076 274.619 372.192 275.33 372.192C276.104 372.192 276.78 372.061 277.361 371.798C277.948 371.535 278.408 371.156 278.741 370.661C279.074 370.166 279.24 369.582 279.24 368.909C279.24 368.252 279.074 367.668 278.741 367.157C278.408 366.639 277.91 366.233 277.244 365.939C276.579 365.638 275.756 365.487 274.773 365.487H272.21V361.995L277.477 356.519V356.357H267.476V352.25H283.648V355.869L277.268 362.32V362.505C278.521 362.629 279.6 362.9 280.504 363.317C281.417 363.735 282.163 364.257 282.743 364.883C283.324 365.502 283.757 366.187 284.043 366.937C284.329 367.687 284.472 368.457 284.472 369.245C284.472 370.645 284.07 371.879 283.266 372.946C282.469 374.014 281.382 374.845 280.006 375.441C278.629 376.036 277.067 376.334 275.319 376.334C273.579 376.334 272.036 376.04 270.69 375.452C269.352 374.864 268.292 374.045 267.511 372.993C266.738 371.933 266.328 370.7 266.281 369.292ZM297.721 358.19V361.902H286.723V358.19H297.721ZM289.24 376.009V356.902C289.24 355.61 289.492 354.539 289.994 353.688C290.505 352.837 291.201 352.199 292.082 351.774C292.964 351.349 293.966 351.136 295.087 351.136C295.845 351.136 296.537 351.194 297.164 351.31C297.798 351.426 298.27 351.53 298.579 351.623L297.697 355.336C297.504 355.274 297.264 355.216 296.978 355.162C296.7 355.107 296.414 355.08 296.12 355.08C295.393 355.08 294.886 355.251 294.6 355.591C294.314 355.923 294.171 356.391 294.171 356.995V376.009H289.24Z" fill="url(#paint4_linear_30_2957)"/>
    <path d="M316.013 376.009V358.19H320.723V361.333H320.932C321.303 360.289 321.922 359.466 322.788 358.862C323.654 358.259 324.691 357.958 325.897 357.958C327.119 357.958 328.159 358.263 329.018 358.874C329.876 359.477 330.449 360.297 330.735 361.333H330.92C331.284 360.313 331.941 359.497 332.893 358.886C333.852 358.267 334.985 357.958 336.292 357.958C337.955 357.958 339.304 358.487 340.341 359.547C341.385 360.599 341.907 362.091 341.907 364.025V376.009H336.976V364.999C336.976 364.009 336.713 363.267 336.187 362.772C335.661 362.277 335.004 362.03 334.215 362.03C333.318 362.03 332.618 362.316 332.115 362.888C331.613 363.453 331.361 364.199 331.361 365.127V376.009H326.57V364.895C326.57 364.021 326.319 363.325 325.816 362.807C325.321 362.289 324.667 362.03 323.855 362.03C323.306 362.03 322.811 362.169 322.37 362.447C321.937 362.718 321.593 363.101 321.338 363.596C321.083 364.083 320.955 364.655 320.955 365.313V376.009H316.013ZM345.811 376.009V358.19H350.753V376.009H345.811ZM348.293 355.892C347.558 355.892 346.928 355.649 346.402 355.162C345.884 354.667 345.625 354.075 345.625 353.387C345.625 352.706 345.884 352.122 346.402 351.635C346.928 351.14 347.558 350.892 348.293 350.892C349.028 350.892 349.654 351.14 350.173 351.635C350.699 352.122 350.961 352.706 350.961 353.387C350.961 354.075 350.699 354.667 350.173 355.162C349.654 355.649 349.028 355.892 348.293 355.892ZM362.763 376.357C360.938 376.357 359.368 375.97 358.053 375.197C356.746 374.416 355.74 373.333 355.036 371.949C354.34 370.564 353.992 368.971 353.992 367.169C353.992 365.344 354.344 363.743 355.048 362.366C355.76 360.982 356.769 359.903 358.076 359.129C359.383 358.348 360.938 357.958 362.74 357.958C364.294 357.958 365.655 358.24 366.823 358.804C367.991 359.369 368.915 360.162 369.596 361.183C370.277 362.204 370.652 363.402 370.721 364.779H366.058C365.926 363.89 365.578 363.174 365.013 362.633C364.457 362.084 363.726 361.809 362.821 361.809C362.055 361.809 361.386 362.018 360.814 362.436C360.249 362.845 359.808 363.445 359.491 364.234C359.174 365.023 359.016 365.978 359.016 367.099C359.016 368.236 359.17 369.203 359.48 370C359.797 370.796 360.242 371.403 360.814 371.821C361.386 372.239 362.055 372.447 362.821 372.447C363.385 372.447 363.892 372.331 364.341 372.099C364.797 371.867 365.172 371.531 365.466 371.09C365.768 370.642 365.965 370.104 366.058 369.478H370.721C370.644 370.839 370.273 372.038 369.608 373.074C368.95 374.103 368.041 374.907 366.881 375.487C365.721 376.067 364.348 376.357 362.763 376.357ZM378.828 365.707V376.009H373.886V352.25H378.688V361.333H378.897C379.299 360.282 379.949 359.458 380.846 358.862C381.743 358.259 382.869 357.958 384.222 357.958C385.46 357.958 386.539 358.228 387.459 358.77C388.387 359.303 389.106 360.073 389.617 361.078C390.135 362.076 390.39 363.271 390.382 364.663V376.009H385.44V365.545C385.448 364.446 385.17 363.592 384.605 362.981C384.048 362.37 383.267 362.064 382.262 362.064C381.589 362.064 380.993 362.207 380.475 362.494C379.965 362.78 379.562 363.197 379.268 363.747C378.982 364.288 378.835 364.941 378.828 365.707ZM400.838 376.299C399.485 376.299 398.259 375.951 397.16 375.255C396.07 374.551 395.204 373.519 394.562 372.157C393.928 370.788 393.61 369.11 393.61 367.122C393.61 365.081 393.939 363.383 394.597 362.03C395.254 360.668 396.128 359.651 397.218 358.978C398.317 358.298 399.519 357.958 400.826 357.958C401.824 357.958 402.656 358.128 403.321 358.468C403.994 358.801 404.535 359.218 404.945 359.721C405.363 360.216 405.68 360.703 405.896 361.183H406.047V358.19H410.978V376.009H406.105V373.155H405.896C405.664 373.65 405.335 374.141 404.91 374.628C404.492 375.108 403.947 375.506 403.274 375.823C402.609 376.14 401.797 376.299 400.838 376.299ZM402.404 372.366C403.201 372.366 403.874 372.15 404.423 371.717C404.98 371.276 405.405 370.661 405.699 369.872C406.001 369.083 406.151 368.159 406.151 367.099C406.151 366.04 406.004 365.119 405.711 364.338C405.417 363.557 404.991 362.954 404.434 362.528C403.878 362.103 403.201 361.89 402.404 361.89C401.592 361.89 400.908 362.111 400.351 362.552C399.794 362.992 399.372 363.603 399.086 364.385C398.8 365.166 398.657 366.071 398.657 367.099C398.657 368.136 398.8 369.052 399.086 369.849C399.38 370.638 399.802 371.256 400.351 371.705C400.908 372.146 401.592 372.366 402.404 372.366ZM423.162 376.357C421.329 376.357 419.751 375.986 418.428 375.243C417.114 374.493 416.1 373.434 415.389 372.065C414.677 370.688 414.322 369.06 414.322 367.18C414.322 365.347 414.677 363.739 415.389 362.354C416.1 360.97 417.102 359.891 418.394 359.118C419.693 358.344 421.217 357.958 422.964 357.958C424.14 357.958 425.234 358.147 426.248 358.526C427.269 358.897 428.158 359.458 428.916 360.208C429.682 360.958 430.277 361.902 430.702 363.039C431.128 364.168 431.341 365.491 431.341 367.006V368.364H416.294V365.301H426.688C426.688 364.59 426.534 363.959 426.224 363.41C425.915 362.861 425.486 362.432 424.937 362.122C424.395 361.805 423.765 361.647 423.046 361.647C422.295 361.647 421.63 361.821 421.05 362.169C420.478 362.509 420.029 362.969 419.705 363.549C419.38 364.122 419.213 364.76 419.206 365.463V368.375C419.206 369.257 419.368 370.019 419.693 370.661C420.026 371.303 420.493 371.798 421.097 372.146C421.7 372.494 422.415 372.668 423.243 372.668C423.792 372.668 424.295 372.591 424.751 372.436C425.207 372.281 425.598 372.049 425.923 371.74C426.248 371.43 426.495 371.051 426.665 370.603L431.236 370.904C431.004 372.003 430.528 372.962 429.809 373.782C429.098 374.594 428.177 375.228 427.048 375.684C425.927 376.133 424.631 376.357 423.162 376.357ZM434.566 352.25H439.508V370.672C439.516 371.237 439.616 371.647 439.809 371.902C440.011 372.15 440.351 372.273 440.83 372.273C441.078 372.266 441.271 372.25 441.41 372.227C441.55 372.204 441.666 372.173 441.758 372.134L442.547 375.731C442.292 375.808 441.979 375.889 441.608 375.974C441.244 376.052 440.753 376.102 440.134 376.125C438.239 376.195 436.84 375.839 435.935 375.058C435.03 374.269 434.573 373.027 434.566 371.334V352.25ZM447.281 376.311C446.515 376.311 445.858 376.04 445.308 375.499C444.767 374.949 444.496 374.292 444.496 373.526C444.496 372.768 444.767 372.119 445.308 371.577C445.858 371.036 446.515 370.765 447.281 370.765C448.023 370.765 448.673 371.036 449.23 371.577C449.786 372.119 450.065 372.768 450.065 373.526C450.065 374.037 449.933 374.505 449.67 374.93C449.415 375.348 449.079 375.684 448.661 375.939C448.244 376.187 447.783 376.311 447.281 376.311ZM462.243 376.357C460.41 376.357 458.833 375.986 457.51 375.243C456.195 374.493 455.182 373.434 454.47 372.065C453.759 370.688 453.403 369.06 453.403 367.18C453.403 365.347 453.759 363.739 454.47 362.354C455.182 360.97 456.184 359.891 457.475 359.118C458.775 358.344 460.298 357.958 462.046 357.958C463.222 357.958 464.316 358.147 465.329 358.526C466.35 358.897 467.24 359.458 467.998 360.208C468.763 360.958 469.359 361.902 469.784 363.039C470.209 364.168 470.422 365.491 470.422 367.006V368.364H455.375V365.301H465.77C465.77 364.59 465.615 363.959 465.306 363.41C464.997 362.861 464.567 362.432 464.018 362.122C463.477 361.805 462.847 361.647 462.127 361.647C461.377 361.647 460.712 361.821 460.132 362.169C459.56 362.509 459.111 362.969 458.786 363.549C458.461 364.122 458.295 364.76 458.287 365.463V368.375C458.287 369.257 458.45 370.019 458.775 370.661C459.107 371.303 459.575 371.798 460.178 372.146C460.782 372.494 461.497 372.668 462.325 372.668C462.874 372.668 463.376 372.591 463.833 372.436C464.289 372.281 464.68 372.049 465.004 371.74C465.329 371.43 465.577 371.051 465.747 370.603L470.318 370.904C470.086 372.003 469.61 372.962 468.891 373.782C468.179 374.594 467.259 375.228 466.13 375.684C465.008 376.133 463.713 376.357 462.243 376.357ZM483.126 358.19V361.902H472.394V358.19H483.126ZM474.831 353.92H479.773V370.533C479.773 370.99 479.842 371.345 479.982 371.601C480.121 371.848 480.314 372.022 480.562 372.123C480.817 372.223 481.111 372.273 481.443 372.273C481.675 372.273 481.907 372.254 482.139 372.215C482.371 372.169 482.549 372.134 482.673 372.111L483.45 375.789C483.203 375.866 482.855 375.955 482.406 376.055C481.958 376.164 481.412 376.229 480.77 376.253C479.579 376.299 478.535 376.14 477.638 375.777C476.749 375.413 476.057 374.849 475.562 374.083C475.067 373.318 474.823 372.351 474.831 371.183V353.92ZM491.67 365.707V376.009H486.728V352.25H491.531V361.333H491.739C492.142 360.282 492.791 359.458 493.688 358.862C494.586 358.259 495.711 357.958 497.064 357.958C498.302 357.958 499.381 358.228 500.301 358.77C501.229 359.303 501.948 360.073 502.459 361.078C502.977 362.076 503.232 363.271 503.225 364.663V376.009H498.283V365.545C498.29 364.446 498.012 363.592 497.447 362.981C496.89 362.37 496.109 362.064 495.104 362.064C494.431 362.064 493.835 362.207 493.317 362.494C492.807 362.78 492.405 363.197 492.111 363.747C491.824 364.288 491.678 364.941 491.67 365.707Z" fill="url(#paint5_linear_30_2957)"/>
    <path d="M305 40H309V440H305V40Z" fill="url(#paint6_linear_30_2957)"/>
    <defs>
        <filter id="filter0_d_30_2957" x="80.7011" y="161.096" width="582.456" height="188.754" filterUnits="userSpaceOnUse" color-interpolation-filters="sRGB">
            <feFlood flood-opacity="0" result="BackgroundImageFix"/>
            <feColorMatrix in="SourceAlpha" type="matrix" values="0 0 0 0 0 0 0 0 0 0 0 0 0 0 0 0 0 0 127 0" result="hardAlpha"/>
            <feOffset dy="3.62989"/>
            <feGaussianBlur stdDeviation="18.1495"/>
            <feComposite in2="hardAlpha" operator="out"/>
            <feColorMatrix type="matrix" values="0 0 0 0 0 0 0 0 0 0 0 0 0 0 0 0 0 0 0.1 0"/>
            <feBlend mode="normal" in2="BackgroundImageFix" result="effect1_dropShadow_30_2957"/>
            <feBlend mode="normal" in="SourceGraphic" in2="effect1_dropShadow_30_2957" result="shape"/>
        </filter>
        <linearGradient id="paint0_linear_30_2957" x1="180.523" y1="126.458" x2="297.523" y2="126.458" gradientUnits="userSpaceOnUse">
            <stop stop-color="#EF4444"/>
            <stop offset="1" stop-color="#EF4444" stop-opacity="0"/>
        </linearGradient>
        <linearGradient id="paint1_linear_30_2957" x1="508.673" y1="126.458" x2="315.673" y2="126.458" gradientUnits="userSpaceOnUse">
            <stop/>
            <stop offset="1" stop-opacity="0"/>
        </linearGradient>
        <linearGradient id="paint2_linear_30_2957" x1="146.039" y1="251.843" x2="295.039" y2="251.843" gradientUnits="userSpaceOnUse">
            <stop stop-color="#EF4444"/>
            <stop offset="1" stop-color="#EF4444" stop-opacity="0"/>
        </linearGradient>
        <linearGradient id="paint3_linear_30_2957" x1="597.819" y1="251.844" x2="316.819" y2="251.844" gradientUnits="userSpaceOnUse">
            <stop/>
            <stop offset="1" stop-opacity="0"/>
        </linearGradient>
        <linearGradient id="paint4_linear_30_2957" x1="208.491" y1="365.468" x2="298.96" y2="365.468" gradientUnits="userSpaceOnUse">
            <stop stop-color="#EF4444"/>
            <stop offset="1" stop-color="#EF4444" stop-opacity="0"/>
        </linearGradient>
        <linearGradient id="paint5_linear_30_2957" x1="505.451" y1="365.468" x2="313.451" y2="365.468" gradientUnits="userSpaceOnUse">
            <stop/>
            <stop offset="1" stop-opacity="0"/>
        </linearGradient>
        <linearGradient id="paint6_linear_30_2957" x1="307" y1="40" x2="307" y2="440" gradientUnits="userSpaceOnUse">
            <stop stop-color="#EF4444" stop-opacity="0"/>
            <stop offset="0.5" stop-color="#EF4444"/>
            <stop offset="1" stop-color="#EF4444" stop-opacity="0"/>
        </linearGradient>
    </defs>
</svg>
