<svg width="137" height="27" viewBox="0 0 137 27" fill="none" xmlns="http://www.w3.org/2000/svg">
<rect x="108.992" width="28.0158" height="14" rx="2.63094" fill="white"/>
<path d="M130.766 9.14978C130.493 9.14978 130.247 9.10119 130.029 9.00403C129.812 8.90499 129.64 8.75925 129.513 8.56678C129.388 8.37432 129.325 8.13701 129.325 7.85486C129.325 7.61195 129.37 7.41108 129.46 7.25225C129.549 7.09342 129.672 6.96636 129.827 6.87106C129.982 6.77577 130.157 6.70383 130.351 6.65524C130.547 6.60479 130.75 6.56836 130.959 6.54593C131.211 6.51977 131.416 6.49642 131.573 6.47586C131.73 6.45344 131.844 6.4198 131.915 6.37496C131.988 6.32824 132.024 6.2563 132.024 6.15914V6.14232C132.024 5.93118 131.962 5.76768 131.836 5.65182C131.711 5.53597 131.531 5.47805 131.295 5.47805C131.047 5.47805 130.85 5.53224 130.704 5.64061C130.56 5.74899 130.463 5.87699 130.413 6.0246L129.465 5.89007C129.54 5.62847 129.663 5.40985 129.835 5.2342C130.007 5.05669 130.217 4.92402 130.466 4.8362C130.714 4.74651 130.989 4.70166 131.29 4.70166C131.497 4.70166 131.704 4.72595 131.909 4.77453C132.115 4.82312 132.303 4.90346 132.473 5.01558C132.643 5.12582 132.779 5.27624 132.882 5.46684C132.987 5.65743 133.039 5.89567 133.039 6.18156V9.06289H132.063V8.47149H132.03C131.968 8.59108 131.881 8.70319 131.769 8.80783C131.659 8.9106 131.52 8.99375 131.352 9.05728C131.185 9.11895 130.99 9.14978 130.766 9.14978ZM131.029 8.40422C131.233 8.40422 131.409 8.36405 131.559 8.2837C131.708 8.20148 131.823 8.0931 131.904 7.95857C131.986 7.82403 132.027 7.67735 132.027 7.51852V7.01121C131.995 7.03737 131.941 7.06166 131.864 7.08408C131.79 7.1065 131.706 7.12612 131.612 7.14294C131.519 7.15976 131.426 7.1747 131.335 7.18778C131.243 7.20086 131.164 7.21208 131.096 7.22142C130.945 7.24197 130.81 7.27561 130.69 7.32232C130.57 7.36904 130.476 7.43443 130.407 7.51852C130.338 7.60074 130.303 7.70725 130.303 7.83804C130.303 8.0249 130.371 8.16598 130.508 8.26127C130.644 8.35657 130.818 8.40422 131.029 8.40422Z" fill="black"/>
<path d="M125.701 6.54042V9.06298H124.686V3.32275H125.679V5.48935H125.729C125.83 5.24644 125.986 5.05491 126.197 4.91477C126.41 4.77276 126.681 4.70175 127.01 4.70175C127.309 4.70175 127.57 4.76435 127.792 4.88954C128.014 5.01474 128.186 5.19786 128.308 5.4389C128.431 5.67995 128.493 5.97425 128.493 6.3218V9.06298H127.478V6.47876C127.478 6.18913 127.403 5.96397 127.254 5.80327C127.106 5.64071 126.899 5.55942 126.632 5.55942C126.452 5.55942 126.291 5.59866 126.149 5.67714C126.009 5.75376 125.899 5.86494 125.819 6.01068C125.74 6.15643 125.701 6.33301 125.701 6.54042Z" fill="black"/>
<path d="M119.753 10.6773V4.75772H120.751V5.46964H120.81C120.862 5.365 120.936 5.25382 121.031 5.1361C121.127 5.01651 121.256 4.91468 121.418 4.83059C121.581 4.74464 121.788 4.70166 122.04 4.70166C122.373 4.70166 122.673 4.78668 122.94 4.95672C123.209 5.12489 123.422 5.37434 123.579 5.70508C123.738 6.03395 123.817 6.43756 123.817 6.91591C123.817 7.38866 123.74 7.7904 123.585 8.12113C123.43 8.45187 123.219 8.70412 122.951 8.8779C122.684 9.05168 122.381 9.13857 122.043 9.13857C121.797 9.13857 121.592 9.09746 121.429 9.01524C121.267 8.93302 121.136 8.83399 121.037 8.71814C120.94 8.60042 120.864 8.48924 120.81 8.3846H120.768V10.6773H119.753ZM120.748 6.9103C120.748 7.18872 120.788 7.43257 120.866 7.64185C120.946 7.85112 121.061 8.01462 121.211 8.13234C121.362 8.24819 121.545 8.30612 121.76 8.30612C121.984 8.30612 122.172 8.24633 122.324 8.12674C122.475 8.00528 122.589 7.83991 122.666 7.63063C122.744 7.41949 122.783 7.17938 122.783 6.9103C122.783 6.6431 122.745 6.40579 122.668 6.19838C122.592 5.99097 122.478 5.8284 122.326 5.71068C122.175 5.59296 121.986 5.53411 121.76 5.53411C121.543 5.53411 121.359 5.5911 121.208 5.70508C121.057 5.81906 120.942 5.97882 120.863 6.18437C120.787 6.38991 120.748 6.63189 120.748 6.9103Z" fill="black"/>
<path d="M118.71 3.32275V9.06298H117.695V3.32275H118.71Z" fill="black"/>
<path d="M114.402 9.14978C114.129 9.14978 113.884 9.10119 113.665 9.00403C113.448 8.90499 113.276 8.75925 113.149 8.56678C113.024 8.37432 112.961 8.13701 112.961 7.85486C112.961 7.61195 113.006 7.41108 113.096 7.25225C113.186 7.09342 113.308 6.96636 113.463 6.87106C113.618 6.77577 113.793 6.70383 113.987 6.65524C114.183 6.60479 114.386 6.56836 114.595 6.54593C114.848 6.51977 115.052 6.49642 115.209 6.47586C115.366 6.45344 115.48 6.4198 115.551 6.37496C115.624 6.32824 115.661 6.2563 115.661 6.15914V6.14232C115.661 5.93118 115.598 5.76768 115.473 5.65182C115.348 5.53597 115.167 5.47805 114.932 5.47805C114.683 5.47805 114.486 5.53224 114.34 5.64061C114.196 5.74899 114.099 5.87699 114.049 6.0246L113.102 5.89007C113.176 5.62847 113.3 5.40985 113.471 5.2342C113.643 5.05669 113.854 4.92402 114.102 4.8362C114.351 4.74651 114.625 4.70166 114.926 4.70166C115.134 4.70166 115.34 4.72595 115.546 4.77453C115.751 4.82312 115.939 4.90346 116.109 5.01558C116.279 5.12582 116.415 5.27624 116.518 5.46684C116.623 5.65743 116.675 5.89567 116.675 6.18156V9.06289H115.7V8.47149H115.666C115.604 8.59108 115.518 8.70319 115.405 8.80783C115.295 8.9106 115.156 8.99375 114.988 9.05728C114.822 9.11895 114.626 9.14978 114.402 9.14978ZM114.665 8.40422C114.869 8.40422 115.046 8.36405 115.195 8.2837C115.345 8.20148 115.46 8.0931 115.54 7.95857C115.622 7.82403 115.663 7.67735 115.663 7.51852V7.01121C115.632 7.03737 115.577 7.06166 115.501 7.08408C115.426 7.1065 115.342 7.12612 115.248 7.14294C115.155 7.15976 115.063 7.1747 114.971 7.18778C114.879 7.20086 114.8 7.21208 114.733 7.22142C114.581 7.24197 114.446 7.27561 114.326 7.32232C114.207 7.36904 114.112 7.43443 114.043 7.51852C113.974 7.60074 113.94 7.70725 113.94 7.83804C113.94 8.0249 114.008 8.16598 114.144 8.26127C114.281 8.35657 114.454 8.40422 114.665 8.40422Z" fill="black"/>
<path d="M104.224 12.018V15.0795H95.3743V12.018H104.224ZM97.3834 8.49731H101.459V22.1975C101.459 22.5738 101.516 22.8672 101.631 23.0777C101.746 23.2818 101.905 23.4253 102.11 23.5082C102.32 23.5911 102.562 23.6326 102.837 23.6326C103.028 23.6326 103.219 23.6167 103.411 23.5848C103.602 23.5465 103.749 23.5178 103.851 23.4987L104.492 26.5315C104.288 26.5952 104.001 26.6686 103.631 26.7515C103.261 26.8408 102.811 26.895 102.282 26.9141C101.3 26.9524 100.438 26.8217 99.6986 26.5219C98.9652 26.2221 98.3943 25.7565 97.9861 25.1251C97.5779 24.4936 97.377 23.6964 97.3834 22.7333V8.49731Z" fill="white"/>
<path d="M90.1448 26.7129V12.0178H94.2204V26.7129H90.1448ZM92.1921 10.1235C91.5862 10.1235 91.0664 9.92254 90.6327 9.52072C90.2054 9.11252 89.9917 8.6246 89.9917 8.05694C89.9917 7.49567 90.2054 7.01412 90.6327 6.6123C91.0664 6.2041 91.5862 6 92.1921 6C92.7981 6 93.3147 6.2041 93.742 6.6123C94.1757 7.01412 94.3926 7.49567 94.3926 8.05694C94.3926 8.6246 94.1757 9.11252 93.742 9.52072C93.3147 9.92254 92.7981 10.1235 92.1921 10.1235Z" fill="white"/>
<path d="M71.8035 26.7127V7.11914H75.9461V15.7583H76.2044L83.2554 7.11914H88.2208L80.9498 15.8922L88.3069 26.7127H83.3511L77.9839 18.6572L75.9461 21.1446V26.7127H71.8035Z" fill="white"/>
<path d="M63.4003 27.0002C61.8887 27.0002 60.5875 26.6941 59.4969 26.0818C58.4126 25.4631 57.5771 24.5893 56.9903 23.4604C56.4035 22.325 56.1101 20.9825 56.1101 19.4326C56.1101 17.921 56.4035 16.5943 56.9903 15.4526C57.5771 14.3109 58.403 13.4212 59.4682 12.7834C60.5397 12.1456 61.7962 11.8267 63.2377 11.8267C64.2071 11.8267 65.1096 11.9829 65.9452 12.2955C66.7871 12.6016 67.5206 13.064 68.1456 13.6827C68.7771 14.3014 69.2682 15.0795 69.619 16.0171C69.9698 16.9483 70.1452 18.0389 70.1452 19.2891V20.4084H57.7365V17.8827H66.3087C66.3087 17.2959 66.1812 16.7761 65.926 16.3232C65.6709 15.8704 65.3169 15.5164 64.8641 15.2613C64.4176 14.9998 63.8978 14.869 63.3046 14.869C62.6859 14.869 62.1374 15.0125 61.6591 15.2995C61.1871 15.5802 60.8172 15.9597 60.5493 16.438C60.2814 16.91 60.1443 17.4362 60.1379 18.0166V20.418C60.1379 21.1451 60.2718 21.7733 60.5397 22.3027C60.814 22.8321 61.1998 23.2403 61.6973 23.5273C62.1948 23.8143 62.7848 23.9578 63.4673 23.9578C63.9201 23.9578 64.3347 23.8941 64.711 23.7665C65.0873 23.6389 65.4094 23.4476 65.6773 23.1925C65.9452 22.9373 66.1493 22.6248 66.2896 22.2549L70.0591 22.5036C69.8677 23.4093 69.4755 24.2002 68.8823 24.8763C68.2955 25.546 67.5365 26.069 66.6053 26.4453C65.6805 26.8152 64.6121 27.0002 63.4003 27.0002Z" fill="white"/>
<path d="M33.2076 26.7132V12.018H37.0919V14.6107H37.2641C37.5703 13.7497 38.0805 13.0704 38.7949 12.5729C39.5092 12.0754 40.3639 11.8267 41.3589 11.8267C42.3666 11.8267 43.2245 12.0786 43.9325 12.5825C44.6404 13.08 45.1124 13.756 45.3484 14.6107H45.5015C45.8012 13.7688 46.3434 13.0959 47.1279 12.592C47.9188 12.0818 48.8532 11.8267 49.9311 11.8267C51.3024 11.8267 52.4154 12.2636 53.27 13.1374C54.1311 14.0048 54.5616 15.2358 54.5616 16.8303V26.7132H50.4955V17.6339C50.4955 16.8175 50.2787 16.2052 49.845 15.797C49.4113 15.3888 48.8691 15.1847 48.2185 15.1847C47.4787 15.1847 46.9015 15.4207 46.4869 15.8927C46.0723 16.3583 45.865 16.9738 45.865 17.7392V26.7132H41.9138V17.5478C41.9138 16.8271 41.7065 16.2531 41.2919 15.8257C40.8837 15.3984 40.3448 15.1847 39.6751 15.1847C39.2222 15.1847 38.814 15.2995 38.4505 15.5292C38.0933 15.7524 37.8095 16.0681 37.599 16.4763C37.3885 16.8781 37.2833 17.3501 37.2833 17.8923V26.7132H33.2076Z" fill="white"/>
<path d="M22.8475 26.9906C21.9099 26.9906 21.0743 26.828 20.3409 26.5027C19.6074 26.1711 19.027 25.6831 18.5996 25.0389C18.1787 24.3884 17.9682 23.5783 17.9682 22.6089C17.9682 21.7925 18.1181 21.1068 18.4179 20.5519C18.7176 19.997 19.1258 19.5506 19.6425 19.2125C20.1591 18.8745 20.7459 18.6194 21.4028 18.4471C22.0661 18.2749 22.7614 18.1538 23.4885 18.0836C24.3431 17.9943 25.032 17.9114 25.555 17.8348C26.078 17.7519 26.4575 17.6307 26.6935 17.4713C26.9295 17.3118 27.0475 17.0759 27.0475 16.7633V16.7059C27.0475 16.1 26.8561 15.6312 26.4734 15.2995C26.0971 14.9679 25.5614 14.8021 24.8661 14.8021C24.1327 14.8021 23.5491 14.9647 23.1153 15.29C22.6816 15.6089 22.3946 16.0107 22.2543 16.4954L18.4848 16.1893C18.6762 15.2964 19.0525 14.5246 19.6138 13.874C20.175 13.2171 20.8989 12.7132 21.7855 12.3624C22.6784 12.0052 23.7117 11.8267 24.8853 11.8267C25.7017 11.8267 26.483 11.9223 27.2292 12.1137C27.9819 12.305 28.6484 12.6016 29.2288 13.0034C29.8156 13.4052 30.278 13.9219 30.616 14.5533C30.9541 15.1784 31.1231 15.9278 31.1231 16.8016V26.7132H27.2579V24.6754H27.1431C26.9071 25.1346 26.5914 25.5396 26.196 25.8904C25.8005 26.2348 25.3254 26.5059 24.7705 26.7036C24.2156 26.895 23.5746 26.9906 22.8475 26.9906ZM24.0147 24.1779C24.6142 24.1779 25.1436 24.0599 25.6028 23.8239C26.062 23.5815 26.4224 23.2563 26.6839 22.8481C26.9454 22.4399 27.0762 21.9774 27.0762 21.4608V19.9014C26.9486 19.9843 26.7732 20.0608 26.55 20.131C26.3331 20.1948 26.0875 20.2553 25.8133 20.3127C25.539 20.3638 25.2648 20.4116 24.9905 20.4563C24.7163 20.4945 24.4675 20.5296 24.2443 20.5615C23.7659 20.6317 23.3481 20.7433 22.991 20.8963C22.6338 21.0494 22.3563 21.2567 22.1586 21.5182C21.9609 21.7733 21.862 22.0922 21.862 22.4749C21.862 23.0298 22.063 23.454 22.4648 23.7474C22.873 24.0344 23.3896 24.1779 24.0147 24.1779Z" fill="white"/>
<path d="M16.3886 7.11914V26.7127H12.8105L4.28616 14.3806H4.14265V26.7127H6.10352e-05V7.11914H3.63559L12.093 19.4417H12.2652V7.11914H16.3886Z" fill="white"/>
</svg>
