<svg width="588" height="588" viewBox="0 0 588 588" fill="none" xmlns="http://www.w3.org/2000/svg">
<path d="M393.587 473.34C394.272 473.35 394.995 473.346 395.656 473.551C396.734 473.887 397.74 474.628 398.214 475.675C398.624 476.579 398.603 477.62 398.244 478.538C397.624 480.123 396.425 480.752 394.951 481.414C394.252 481.404 393.495 481.322 392.822 481.124C391.793 480.82 390.852 480.043 390.386 479.074C390.331 478.958 390.282 478.838 390.239 478.716C390.198 478.596 390.162 478.472 390.133 478.347C390.104 478.221 390.081 478.095 390.066 477.969C390.05 477.841 390.041 477.712 390.04 477.584C390.037 477.455 390.043 477.327 390.054 477.199C390.066 477.07 390.084 476.944 390.11 476.817C390.135 476.692 390.166 476.567 390.205 476.444C390.244 476.322 390.288 476.201 390.34 476.084C390.989 474.575 392.136 473.946 393.587 473.34Z" fill="#E93749"/>
<path d="M78.7853 406.706C79.5878 406.703 80.4462 406.666 81.2343 406.824C82.5077 407.081 83.6819 407.995 84.3495 409.096C84.8634 409.945 85.0084 410.898 84.7557 411.857C84.3609 413.358 83.4838 414.113 82.2062 414.897C81.8014 414.917 81.3951 414.937 80.9889 414.932C79.6366 414.912 78.3762 414.363 77.4718 413.345C76.7138 412.493 76.3535 411.432 76.4568 410.295C76.6047 408.676 77.5909 407.688 78.7853 406.706Z" fill="#E93749"/>
<path d="M50.325 153.86C51.1663 153.876 52.0348 153.979 52.7913 154.38C53.9426 154.987 54.7594 156.1 55.0824 157.353C55.1169 157.488 55.1456 157.623 55.1672 157.761C55.1873 157.898 55.2016 158.036 55.2088 158.175C55.2159 158.315 55.2145 158.453 55.2073 158.592C55.2001 158.731 55.1844 158.869 55.1628 159.005C55.1413 159.143 55.1126 159.278 55.0752 159.413C55.0394 159.546 54.9963 159.678 54.9475 159.809C54.8973 159.938 54.8413 160.066 54.7781 160.19C54.7149 160.313 54.6461 160.434 54.5714 160.551C53.8752 161.645 53.0425 162.093 51.8152 162.405C51.1074 162.429 50.3178 162.435 49.6273 162.242C48.7545 162 47.9837 161.283 47.5473 160.507C46.9501 159.446 46.8984 158.175 47.2917 157.036C47.8329 155.474 48.8766 154.564 50.325 153.86Z" fill="#F68625"/>
<path d="M334.442 503.72C335.144 503.727 335.875 503.74 336.564 503.891C337.666 504.134 338.624 504.948 339.188 505.905C339.765 506.884 339.934 508.021 339.632 509.122C339.174 510.785 338.157 511.54 336.707 512.331C336.1 512.361 335.484 512.368 334.883 512.266C333.678 512.064 332.497 511.3 331.842 510.266C331.225 509.296 331.104 508.142 331.38 507.036C331.825 505.258 332.925 504.582 334.442 503.72Z" fill="#50BCE4"/>
<path d="M235.848 264.108C236.596 264.025 237.466 263.908 238.217 264.02C239.176 264.162 240.129 264.863 240.682 265.638C241.322 266.54 241.503 267.697 241.298 268.77C240.929 270.707 239.908 271.619 238.339 272.672C237.726 272.702 237.081 272.751 236.471 272.681C235.397 272.557 234.249 271.686 233.666 270.805C233.022 269.828 232.867 268.669 233.096 267.533C233.442 265.822 234.446 265.015 235.848 264.108Z" fill="#88C0E0"/>
<path d="M83.9077 297.127C84.6617 297.084 85.4369 297.008 86.1908 297.059C87.372 297.143 88.7013 297.997 89.3812 298.943C89.9451 299.727 90.1455 300.684 89.9772 301.633C89.6677 303.377 88.5152 304.332 87.1779 305.354C86.4756 305.509 85.7263 305.615 85.0068 305.509C83.9031 305.345 82.8414 304.617 82.1868 303.732C81.4762 302.77 81.2125 301.581 81.3928 300.404C81.6416 298.779 82.6174 297.998 83.9077 297.127Z" fill="#E93749"/>
<path d="M233.634 419.721C234.411 419.674 235.279 419.604 236.04 419.809C237.141 420.106 238.11 420.933 238.69 421.898C239.287 422.891 239.464 424.019 239.173 425.145C238.759 426.744 237.797 427.592 236.406 428.372C235.696 428.492 234.905 428.607 234.185 428.472C233.082 428.263 232.001 427.445 231.416 426.5C230.732 425.396 230.608 424.014 230.948 422.775C231.383 421.187 232.28 420.55 233.634 419.721Z" fill="#42BA77"/>
<path d="M419.151 301.386C419.82 301.336 420.443 301.306 421.105 301.472C422.408 301.803 423.624 302.615 424.292 303.798C424.359 303.916 424.42 304.036 424.476 304.16C424.53 304.283 424.579 304.41 424.622 304.539C424.664 304.666 424.699 304.797 424.73 304.929C424.76 305.061 424.783 305.193 424.8 305.328C424.816 305.463 424.826 305.597 424.829 305.733C424.833 305.868 424.829 306.003 424.819 306.138C424.809 306.273 424.793 306.408 424.768 306.54C424.745 306.673 424.717 306.805 424.679 306.936C424.233 308.521 423.14 309.302 421.754 310.047C421.056 310.172 420.411 310.258 419.705 310.132C418.594 309.933 417.519 309.219 416.896 308.28C416.204 307.235 416.037 305.937 416.316 304.725C416.709 303.023 417.695 302.222 419.151 301.386Z" fill="#50BCE4"/>
<path d="M186.763 461.668C187.344 461.622 187.927 461.576 188.512 461.581C189.712 461.589 190.851 462.172 191.674 463.038C192.474 463.876 192.83 464.993 192.743 466.141C192.601 468.013 191.473 469.088 190.088 470.201C189.373 470.412 188.57 470.584 187.818 470.52C186.852 470.438 185.841 469.813 185.224 469.084C184.369 468.072 184.13 466.681 184.284 465.395C184.492 463.668 185.472 462.719 186.763 461.668Z" fill="#50BCE4"/>
<path d="M461.349 236.243C462.025 236.292 462.673 236.387 463.314 236.608C464.535 237.03 465.583 238.022 466.104 239.199C466.163 239.328 466.216 239.46 466.26 239.595C466.306 239.73 466.343 239.867 466.375 240.006C466.405 240.144 466.43 240.284 466.445 240.425C466.463 240.567 466.471 240.708 466.473 240.851C466.475 240.994 466.47 241.134 466.457 241.276C466.444 241.419 466.422 241.559 466.395 241.698C466.368 241.838 466.333 241.976 466.292 242.11C466.25 242.247 466.201 242.38 466.145 242.511C465.469 244.056 464.392 244.654 462.865 245.19C462.034 245.142 461.241 245.069 460.465 244.746C460.316 244.686 460.169 244.617 460.027 244.542C459.885 244.466 459.747 244.384 459.614 244.294C459.48 244.205 459.351 244.109 459.227 244.005C459.104 243.903 458.985 243.794 458.873 243.679C458.761 243.565 458.655 243.444 458.554 243.318C458.454 243.191 458.36 243.061 458.274 242.924C458.187 242.789 458.108 242.65 458.036 242.505C457.964 242.362 457.9 242.215 457.842 242.064C457.456 241.031 457.495 239.915 457.993 238.925C458.702 237.512 459.889 236.726 461.349 236.243Z" fill="#50BCE4"/>
<path d="M439.067 161.7C439.986 161.737 440.87 161.847 441.723 162.223C442.718 162.659 443.49 163.597 443.892 164.588C444.369 165.768 444.326 167.045 443.789 168.197C443.112 169.65 442.198 170.154 440.751 170.718C439.87 170.649 438.941 170.618 438.127 170.245C436.861 169.663 435.748 168.565 435.313 167.221C435.273 167.096 435.239 166.97 435.21 166.842C435.183 166.715 435.161 166.585 435.145 166.455C435.129 166.324 435.122 166.193 435.119 166.061C435.118 165.931 435.124 165.8 435.135 165.669C435.147 165.539 435.164 165.408 435.19 165.279C435.214 165.151 435.246 165.023 435.283 164.897C435.32 164.772 435.365 164.649 435.415 164.527C435.465 164.406 435.521 164.288 435.583 164.172C436.361 162.748 437.588 162.187 439.067 161.7Z" fill="#50BCE4"/>
<path d="M245.89 361.132C246.789 361.086 247.719 361.007 248.601 361.23C249.877 361.551 251.014 362.391 251.647 363.554C252.255 364.668 252.307 365.944 251.872 367.127C251.248 368.825 250.079 369.445 248.519 370.195C247.894 370.269 247.378 370.261 246.756 370.143C245.407 369.89 244.278 369.267 243.536 368.083C242.864 367.012 242.64 365.633 242.978 364.41C243.436 362.749 244.415 361.907 245.89 361.132Z" fill="#DA262E"/>
<path d="M335.599 198.066C336.397 198.121 337.203 198.196 337.938 198.532C338.09 198.6 338.238 198.677 338.381 198.761C338.526 198.844 338.667 198.935 338.802 199.033C338.937 199.13 339.067 199.234 339.192 199.344C339.317 199.455 339.438 199.571 339.551 199.693C339.665 199.815 339.772 199.943 339.873 200.075C339.975 200.208 340.068 200.345 340.156 200.487C340.243 200.629 340.324 200.775 340.397 200.926C340.469 201.075 340.535 201.229 340.592 201.385C341.03 202.603 340.906 204.02 340.299 205.155C339.491 206.667 338.162 207.13 336.598 207.554C335.759 207.486 335.015 207.387 334.27 206.964C333.087 206.294 332.142 205.174 331.782 203.855C331.448 202.629 331.627 201.272 332.33 200.205C333.166 198.939 334.156 198.408 335.599 198.066Z" fill="#50BCE4"/>
<path d="M117.03 175.432C117.679 175.417 118.355 175.391 118.99 175.541C120.433 175.879 121.748 176.889 122.451 178.192C123.07 179.339 123.17 180.66 122.707 181.88C122.127 183.409 120.976 184.086 119.545 184.711C118.923 184.778 118.286 184.85 117.664 184.742C116.381 184.519 115.114 183.852 114.371 182.76C113.654 181.706 113.526 180.354 113.843 179.14C114.299 177.39 115.549 176.343 117.03 175.432Z" fill="#42BA77"/>
<path d="M253.075 38.3359C253.866 38.2339 254.63 38.1406 255.415 38.3272C256.724 38.6387 257.896 39.4426 258.565 40.6226C259.206 41.7553 259.327 43.0531 258.961 44.2962C258.478 45.9313 257.349 46.7036 255.93 47.4989C255.214 47.6066 254.533 47.6884 253.811 47.5635C252.562 47.3482 251.393 46.6821 250.676 45.6183C249.891 44.4556 249.737 43.109 250.056 41.7567C250.464 40.0226 251.625 39.213 253.075 38.3359Z" fill="#DA262E"/>
<path d="M138.852 342.792C139.638 342.711 140.474 342.589 141.264 342.649C142.554 342.746 143.906 343.574 144.665 344.605C145.329 345.508 145.576 346.614 145.384 347.716C145.061 349.562 143.853 350.608 142.377 351.604C141.562 351.817 140.807 351.972 139.961 351.859C138.794 351.702 137.669 351.095 136.956 350.15C136.164 349.104 135.908 347.747 136.141 346.467C136.465 344.692 137.434 343.795 138.852 342.792Z" fill="#399B94"/>
<path d="M47.122 356.723L47.445 356.72C49.1475 357.696 51.0123 360.955 52.2483 362.576C49.9557 364.254 47.5656 365.811 45.2515 367.464L44.8955 367.602C43.6193 366.905 41.2607 362.838 40.1797 361.41C42.5455 359.926 44.8265 358.315 47.122 356.723Z" fill="#F7BE34"/>
<path d="M288.407 234.251C289.243 234.231 290.161 234.174 290.977 234.378C291.13 234.418 291.281 234.464 291.429 234.52C291.577 234.574 291.722 234.636 291.864 234.706C292.005 234.777 292.142 234.853 292.276 234.937C292.409 235.022 292.539 235.113 292.663 235.21C292.787 235.308 292.906 235.411 293.019 235.52C293.133 235.631 293.241 235.746 293.342 235.868C293.443 235.988 293.538 236.115 293.627 236.245C293.716 236.376 293.796 236.512 293.871 236.651C294.451 237.75 294.491 239.029 294.095 240.193C293.512 241.901 292.338 242.869 290.793 243.686C290.14 243.694 289.446 243.72 288.808 243.571C287.405 243.242 286.116 242.183 285.456 240.912C285.384 240.773 285.319 240.628 285.262 240.481C285.204 240.334 285.154 240.184 285.114 240.032C285.072 239.88 285.038 239.725 285.013 239.57C284.988 239.413 284.97 239.257 284.962 239.099C284.953 238.941 284.953 238.783 284.96 238.625C284.969 238.467 284.985 238.311 285.009 238.156C285.034 237.999 285.065 237.844 285.105 237.692C285.147 237.539 285.194 237.389 285.252 237.241C285.858 235.695 286.964 234.945 288.407 234.251Z" fill="#DA262E"/>
<path d="M254.596 156.166C255.401 156.116 256.324 156.011 257.124 156.137C258.302 156.322 259.492 157.205 260.156 158.173C260.242 158.299 260.321 158.428 260.392 158.563C260.464 158.698 260.529 158.836 260.586 158.977C260.644 159.117 260.694 159.262 260.736 159.409C260.777 159.555 260.812 159.703 260.837 159.854C260.865 160.003 260.883 160.155 260.893 160.307C260.904 160.46 260.906 160.612 260.901 160.764C260.895 160.916 260.881 161.068 260.859 161.219C260.837 161.37 260.807 161.519 260.77 161.667C260.324 163.474 259.086 164.478 257.552 165.383C256.628 165.524 255.829 165.609 254.916 165.346C253.674 164.989 252.613 164.211 251.989 163.068C251.91 162.92 251.838 162.769 251.773 162.614C251.71 162.459 251.654 162.301 251.607 162.141C251.56 161.98 251.519 161.816 251.489 161.652C251.458 161.487 251.435 161.321 251.42 161.154C251.406 160.988 251.4 160.82 251.403 160.652C251.406 160.484 251.416 160.317 251.436 160.151C251.455 159.984 251.483 159.819 251.519 159.656C251.557 159.492 251.6 159.331 251.653 159.172C252.175 157.541 253.149 156.958 254.596 156.166Z" fill="#F68625"/>
<path d="M336.174 43.2546C336.974 43.1685 337.849 43.055 338.647 43.167C339.928 43.3479 341.131 44.2021 341.893 45.2227C341.989 45.3519 342.078 45.4854 342.162 45.6232C342.243 45.7611 342.32 45.9032 342.387 46.0482C342.455 46.1946 342.515 46.3439 342.566 46.4946C342.62 46.6468 342.663 46.8018 342.699 46.9583C342.736 47.1148 342.763 47.2727 342.783 47.432C342.803 47.5914 342.815 47.7507 342.818 47.9115C342.821 48.0723 342.815 48.233 342.802 48.3924C342.788 48.5532 342.766 48.7125 342.736 48.8704C342.414 50.6347 341.26 51.6037 339.825 52.5253C339.058 52.633 338.212 52.7421 337.443 52.6316C336.158 52.4478 334.895 51.7301 334.118 50.6864C333.324 49.6184 333.056 48.345 333.27 47.0416C333.581 45.1509 334.657 44.2724 336.174 43.2546Z" fill="#F68625"/>
<path d="M325.937 153.306C326.71 153.414 327.583 153.59 328.287 153.935C329.543 154.551 330.519 155.748 330.885 157.094C330.928 157.249 330.963 157.407 330.988 157.567C331.014 157.728 331.033 157.887 331.041 158.049C331.052 158.21 331.053 158.371 331.047 158.533C331.04 158.694 331.024 158.854 331.001 159.015C330.977 159.175 330.945 159.334 330.907 159.49C330.866 159.647 330.819 159.8 330.763 159.953C330.707 160.103 330.644 160.253 330.574 160.398C330.502 160.543 330.424 160.685 330.338 160.821C329.415 162.275 328.206 162.772 326.594 163.158C325.67 163.01 324.758 162.871 323.928 162.407C322.741 161.743 321.807 160.653 321.453 159.325C321.12 158.073 321.34 156.803 322.035 155.713C322.991 154.21 324.28 153.731 325.937 153.306Z" fill="#DA262E"/>
<path d="M262.456 222.179C263.498 222.142 264.576 222.202 265.559 222.587C266.767 223.059 267.73 224.077 268.176 225.29C268.659 226.596 268.532 228.013 267.941 229.261C267.161 230.903 265.856 231.694 264.187 232.252C263.422 232.168 262.618 232.02 261.894 231.756C260.433 231.222 259.266 230.277 258.657 228.816C258.593 228.665 258.537 228.511 258.489 228.355C258.442 228.198 258.403 228.039 258.373 227.878C258.343 227.718 258.321 227.555 258.308 227.392C258.295 227.228 258.292 227.064 258.297 226.901C258.301 226.737 258.315 226.575 258.338 226.413C258.361 226.25 258.392 226.09 258.432 225.93C258.472 225.771 258.521 225.614 258.578 225.461C258.634 225.307 258.7 225.158 258.773 225.012C259.603 223.341 260.756 222.775 262.456 222.179Z" fill="#F7BE34"/>
<path d="M288.442 344.593C292.553 347.559 296.043 348.397 300.4 350.602L297.324 356.085C296.556 356.169 287.615 351.695 285.805 351.072C286.426 348.815 287.355 346.66 288.442 344.593Z" fill="#F68625"/>
<path d="M398.347 364.426C401.643 365.605 409.625 370.975 412.468 373.326C411.894 374.657 411.168 375.808 410.38 377.014C410.117 377.092 409.867 377.194 409.587 377.181C407.522 377.086 398.399 370.452 396.471 368.822C396.963 367.175 397.415 365.892 398.347 364.426Z" fill="#F7BE34"/>
<path d="M194.874 522.34C196.266 523.981 197.331 526.488 198.487 528.361C194.639 531.043 190.661 533.479 186.876 536.262C185.45 534.923 184.328 532.813 183.26 531.172C186.94 527.966 191.177 525.526 194.874 522.34Z" fill="#F7BE34"/>
<path d="M535.976 168.56L536.094 168.579C537.383 169.665 538.434 172.657 538.994 174.296C534.688 176.379 530.05 177.997 525.654 179.924C524.365 178.012 523.383 175.873 522.34 173.818C526.858 171.98 531.368 170.168 535.976 168.56Z" fill="#2E9653"/>
<path d="M396.983 522.34C400.56 525.674 402.896 530.339 406.456 533.813C404.722 535.338 403.217 536.947 401.786 538.757L401.383 538.759C398.526 533.889 394.792 529.284 391.02 525.095C393.078 524.27 395.045 523.421 396.983 522.34Z" fill="#95ADDF"/>
<path d="M170.078 353.571C170.985 354.354 171.766 355.634 172.521 356.58C175.159 359.886 177.761 363.604 180.871 366.465C179.121 367.932 177.272 369.302 175.502 370.752L175.342 370.766C174.354 370.255 173.359 367.832 172.687 366.804C170.429 363.346 167.8 360.11 165.168 356.933C166.868 355.908 168.463 354.722 170.078 353.571Z" fill="#F7BE34"/>
<path d="M271.446 536.06C272.047 536.1 272.097 536.251 272.486 536.739C273.461 537.962 274.245 539.474 275.124 540.787C277.122 543.778 279.259 546.646 281.774 549.224C279.716 549.978 277.802 550.833 275.859 551.845L275.762 551.837C274.48 550.974 273.455 548.893 272.416 547.668C270.244 545.104 267.716 542.872 265.58 540.284C267.3 538.588 269.394 537.309 271.446 536.06Z" fill="#95ADDF"/>
<path d="M421.612 413.564C422.699 413.545 423.827 413.583 424.827 414.052C425.25 414.252 425.882 414.743 425.991 415.212C426.314 416.583 421.09 431.986 419.993 433.924C418.977 433.841 417.402 433.857 416.522 433.307C416.028 433 415.589 432.717 415.527 432.103C415.302 429.88 420.151 415.291 421.612 413.564Z" fill="#F7BE34"/>
<path d="M418.139 107.8L419.064 107.802C420.178 109.102 421.112 120.091 421.426 122.301C419.244 122.302 417.129 122.54 414.966 122.806C414.377 122.952 413.988 123.01 413.387 122.921C412.332 121.297 411.849 111.594 411.6 109.052C413.78 108.532 415.913 108.066 418.139 107.8Z" fill="#F7BE34"/>
<path d="M354.358 301.84C356.303 302.997 357.828 304.967 359.255 306.687C356.82 309.753 351.323 316.572 347.69 318.105C345.784 316.618 343.893 315.112 342.02 313.586C346.735 310.043 350.584 306.362 354.358 301.84Z" fill="#2E9653"/>
<path d="M489.833 399.84C493.693 404.254 498.246 407.885 502.368 412.005C501.449 414.117 500.38 416.148 499.158 418.1C494.3 414.325 489.613 409.583 486.08 404.549L489.833 399.84Z" fill="#2E9653"/>
<path d="M519.833 344.96C520.391 345.026 520.974 345.108 521.507 345.295C523.284 345.916 524.033 347.746 524.843 349.285C520.289 353.295 515.558 357.376 511.418 361.811C510.197 361.203 507.573 356.483 506.66 355.137C512.687 351.996 514.81 349.003 519.833 344.96Z" fill="#95ADDF"/>
<path d="M202.973 115.64C208.177 118.438 213.942 120.156 218.881 123.45C217.701 125.322 216.581 127.145 215.688 129.173C210.376 127.26 204.964 124.93 199.92 122.392C200.879 120.118 201.943 117.884 202.973 115.64Z" fill="#95ADDF"/>
<path d="M408.505 62.7202C410.29 64.051 411.567 67.2766 412.383 69.3051C407.39 71.5574 402.548 74.3065 397.703 76.8661C397.422 76.9149 397.219 76.7957 396.954 76.7024C395.722 74.8247 394.879 72.6456 393.959 70.5985C398.726 67.8537 403.721 65.4707 408.505 62.7202Z" fill="#F7BE34"/>
<path d="M325.091 109.76C330.786 111.022 336.836 112.68 342.355 114.561C341.633 116.816 341.151 119.167 340.597 121.47C334.842 120.362 328.985 118.015 323.4 116.197C323.952 114.048 324.514 111.902 325.091 109.76Z" fill="#DA262E"/>
<path d="M151.773 78.4003C153.25 79.0234 162.438 89.9837 163.964 91.9504C162.219 93.2309 160.597 94.711 158.952 96.1178L158.424 96.2915C157.065 95.5622 148.738 85.2148 147 83.2065C148.58 81.5929 150.171 79.9909 151.773 78.4003Z" fill="#2E9653"/>
<path d="M266.686 82.3202C268.123 82.5972 276.58 92.8743 278.275 94.7276C276.212 96.0526 274.214 97.3733 272.313 98.9294L271.954 99.0012C270.434 98.7127 262.204 87.926 260.68 86.0756C262.517 84.6214 264.665 83.5031 266.686 82.3202Z" fill="#F7BE34"/>
<path d="M171.943 266.721C172.609 266.636 173.451 266.424 174.085 266.689C175.328 267.212 179.12 281.163 179.695 283.36C177.978 284.061 176.192 284.573 174.423 285.123C173.861 285.307 173.528 285.366 172.938 285.291C171.936 283.337 171.317 281.043 170.572 278.973L166.6 268.171C168.347 267.584 170.157 267.173 171.943 266.721Z" fill="#95ADDF"/>
<path d="M218.029 305.76C220.135 306.843 227.553 316.758 229.999 319.211C228.101 320.951 226.304 322.747 224.539 324.622L224.219 324.707C222.871 323.874 214.271 313.336 212.66 311.398C214.308 309.379 216.172 307.58 218.029 305.76Z" fill="#F68625"/>
<path d="M71.8848 228.483C77.304 225.978 89.5924 223.6 95.3076 225.792C96.417 226.219 106.43 233.384 107.089 234.262C105.567 234.262 104.055 234.156 102.536 234.057C97.2341 233.144 83.7767 235.983 78.4072 237.838C76.1087 234.97 73.6654 231.69 71.8848 228.483Z" fill="#95ADDF"/>
<mask id="mask0_579_35534" style="mask-type:luminance" maskUnits="userSpaceOnUse" x="102" y="234" width="31" height="37">
<path d="M102.535 234.057C104.054 234.156 105.566 234.263 107.088 234.263C108.856 234.647 110.633 234.992 112.117 236.097C118.852 241.113 121.17 258.038 127.006 265.519C128.57 267.524 130.694 268.861 132.649 270.443C128.506 269.225 124.097 268.483 120.057 266.994C111.379 263.796 109.674 252.8 107.083 245.121C105.805 241.33 104.211 237.686 102.535 234.057Z" fill="white"/>
</mask>
<g mask="url(#mask0_579_35534)">
<path d="M102.535 234.058C104.054 234.157 105.566 234.263 107.088 234.263C108.856 234.648 110.633 234.992 112.117 236.097C118.852 241.113 121.17 258.038 127.006 265.519C128.57 267.524 130.694 268.861 132.649 270.443C128.506 269.226 124.097 268.483 120.057 266.995C111.379 263.796 109.674 252.8 107.083 245.121C105.805 241.33 104.211 237.687 102.535 234.058Z" fill="url(#paint0_linear_579_35534)"/>
</g>
<path d="M269.919 481.18C271.647 481.407 273.791 481.589 275.166 482.745C275.916 483.377 276.333 484.094 276.358 485.046C276.435 487.693 274.451 489.261 272.695 490.98C271.025 490.848 269.275 490.732 267.951 489.56C266.82 488.554 266.39 487.29 266.621 485.822C266.935 483.833 268.506 482.485 269.919 481.18Z" fill="#F9E01D"/>
<path d="M70.1737 76.6345L70.4611 76.9164C70.2524 79.0564 70.1087 81.2783 70.2 83.4262C70.7656 96.7695 84.8242 110.529 94.7296 118.419C100.82 123.27 107.544 127.505 113.333 132.697C110.509 131.67 107.759 130.559 105.011 129.344C95.0655 124.889 84.622 120.269 75.9842 113.525C71.4082 109.954 59.3491 98.6136 59.2807 92.3551C59.2366 88.353 67.4502 79.7367 70.1737 76.6345Z" fill="#EF8995"/>
<path d="M449.82 459.62C452.577 460.868 455.238 463.427 457.861 465.058C473.882 475.031 489.782 488.4 506.822 496.349C505.156 497.036 503.582 497.944 501.992 498.789C499.338 500.298 496.668 501.782 493.985 503.241C478.408 494.148 457.221 476.267 449.82 459.62Z" fill="#F7BE34"/>
<path d="M514.838 69.5802C514.883 69.5989 514.933 69.6103 514.975 69.6362C516.354 70.4386 521.66 83.627 522.566 86.0416C515.493 92.9495 507.765 99.329 500.213 105.714C496.179 109.125 492.267 112.691 488.187 116.045C482.646 120.598 476.92 125.031 471.584 129.817C469.907 131.379 468.183 132.892 466.48 134.425C468.915 130.282 472.181 126.52 475.009 122.631C480.929 114.49 486.801 106.398 492.903 98.3902C500.209 88.8079 507.026 78.7519 514.838 69.5802Z" fill="#F7BE34"/>
<mask id="mask1_579_35534" style="mask-type:luminance" maskUnits="userSpaceOnUse" x="82" y="437" width="51" height="67">
<path d="M126.819 437.196C129.679 441.049 131.822 447.983 132.369 452.74C132.798 456.474 132.137 460.139 130.06 463.33C124.272 472.223 106.96 479.43 98.5176 487.728C95.2379 490.95 92.5302 493.851 90.8791 498.232C90.3362 499.674 89.869 501.925 88.9386 503.09L88.3944 502.73C86.13 500.238 83.7556 497.489 82.7573 494.204C81.778 490.983 82.7766 488.009 84.4979 485.253C94.101 469.877 120.422 464.36 127.592 450.52C129.872 446.116 128.288 441.587 126.819 437.196Z" fill="white"/>
</mask>
<g mask="url(#mask1_579_35534)">
<path d="M126.819 437.196C129.679 441.049 131.822 447.983 132.369 452.74C132.798 456.474 132.137 460.139 130.06 463.33C124.272 472.223 106.96 479.43 98.5176 487.728C95.2379 490.95 92.5302 493.851 90.8791 498.232C90.3362 499.674 89.869 501.925 88.9386 503.09L88.3944 502.73C86.13 500.238 83.7556 497.489 82.7573 494.204C81.778 490.983 82.7766 488.009 84.4979 485.253C94.101 469.877 120.422 464.36 127.592 450.52C129.872 446.116 128.288 441.587 126.819 437.196Z" fill="url(#paint1_linear_579_35534)"/>
</g>
<path d="M442.587 289.61L453.703 218.039C454.604 212.237 459.816 208.103 465.672 208.548L526.192 213.147C535.549 213.859 542.309 222.403 540.849 231.673L529.695 302.49C528.488 310.149 521.457 315.495 513.755 314.609L456.633 308.042C447.567 307 441.187 298.627 442.587 289.61Z" fill="#006DF5" stroke="#0159C9" stroke-width="3.2142"/>
<path d="M442.814 288.276L453.33 218.073C454.202 212.255 459.408 208.091 465.275 208.52L524.438 212.842C530.946 213.318 535.686 219.213 534.752 225.671L524.254 298.307C523.384 304.327 517.887 308.565 511.844 307.875L452.664 301.119C446.337 300.397 441.871 294.573 442.814 288.276Z" fill="#0196FF" stroke="#0159C9" stroke-width="3.2142"/>
<rect x="459.947" y="289.1" width="27.7712" height="2.98099" rx="1.49049" transform="rotate(6.2937 459.947 289.1)" fill="#006DF5"/>
<rect x="461.168" y="280.883" width="49.9637" height="2.98099" rx="1.49049" transform="rotate(6.2937 461.168 280.883)" fill="#006DF5"/>
<rect x="462.061" y="272.619" width="50.5653" height="2.98099" rx="1.49049" transform="rotate(6.2937 462.061 272.619)" fill="#006DF5"/>
<g clip-path="url(#clip0_579_35534)">
<path d="M492.286 223.413C493.022 222.211 494.838 222.471 495.207 223.831L498.851 237.246L511.428 239.888C512.854 240.188 513.177 242.079 511.931 242.835L500.967 249.481L502.109 263.581C502.225 265.015 500.544 265.867 499.456 264.925L489.407 256.23L477.026 261.814C475.705 262.409 474.333 261.091 474.875 259.748L480.072 246.859L470.982 237.102C469.999 236.046 470.797 234.33 472.238 234.401L485.167 235.04L492.286 223.413Z" fill="#28C5FD" stroke="#28C5FD" stroke-width="1.6071"/>
</g>
<path d="M374.874 366.098L387.123 277.792C387.968 271.697 393.555 267.412 399.661 268.175L438.008 272.969C446.922 274.083 453.191 282.288 451.925 291.181L439.829 376.129C438.72 383.915 431.594 389.388 423.786 388.451L388.878 384.262C379.95 383.191 373.639 375.004 374.874 366.098Z" fill="#006DF5" stroke="#0159C9" stroke-width="3.2142"/>
<path d="M375.018 365.049L387.803 277.342C388.687 271.279 394.26 267.038 400.339 267.803L437.339 272.457C443.558 273.239 447.938 278.953 447.078 285.162L434.895 373.12C434.047 379.239 428.423 383.53 422.296 382.731L384.695 377.827C378.469 377.015 374.113 371.263 375.018 365.049Z" fill="#0196FF" stroke="#0159C9" stroke-width="3.2142"/>
<path d="M121.771 347.024L127.147 390.033C127.923 396.245 133.621 400.628 139.824 399.785L186.123 393.494C192.22 392.666 196.521 387.092 195.775 380.984L190.647 338.982C189.898 332.851 184.348 328.471 178.211 329.167L131.665 334.451C125.442 335.157 120.994 340.81 121.771 347.024Z" fill="#006DF5" stroke="#0159C9" stroke-width="3.2142"/>
<path d="M128.037 346.541L133.167 389.288C133.912 395.501 139.584 399.911 145.788 399.104L186.371 393.821C192.519 393.02 196.861 387.396 196.079 381.246L190.704 338.98C189.925 332.851 184.349 328.498 178.214 329.228L137.877 334.03C131.703 334.765 127.296 340.369 128.037 346.541Z" fill="#0196FF" stroke="#0159C9" stroke-width="3.2142"/>
<path d="M177.046 343.664L163.384 356.867L165.318 349.875L177.046 343.664Z" fill="#28C5FD" stroke="#28C5FD" stroke-width="0.173018" stroke-linecap="round" stroke-linejoin="round"/>
<path d="M142.133 348.21L158.612 357.596L155.076 351.209L142.133 348.21ZM174.997 370.411L171.772 377.107L180.7 378.356L182.083 369.628L174.997 370.411ZM143.945 374.593L147.502 382.678L155.812 379.185L150.98 373.538L143.945 374.593Z" fill="#28C5FD" stroke="#28C5FD" stroke-width="0.173018" stroke-linecap="round" stroke-linejoin="round"/>
<path d="M153.165 362.649L151.236 366.595L159.843 365.861L158.342 356.704L153.165 362.649ZM170.083 360.447L163.466 355.928L164.479 365.257L172.973 363.765L170.083 360.447ZM155.812 379.185L160.623 376.008L155.733 373.12L155.812 379.185ZM166.293 375.27L171.773 377.107L170.28 371.226L166.293 375.27Z" fill="#28C5FD" stroke="#28C5FD" stroke-width="0.173018" stroke-linecap="round" stroke-linejoin="round"/>
<path d="M171.772 377.107L166.292 375.27L167.14 378.576L167.278 379.996L171.772 377.107ZM155.811 379.185L160.894 380.827L160.679 379.417L160.622 376.008L155.811 379.185Z" fill="#28C5FD" stroke="#28C5FD" stroke-width="0.173018" stroke-linecap="round" stroke-linejoin="round"/>
<path d="M159.609 370.358L155.159 369.655L158.003 367.878L159.609 370.358ZM165.826 369.549L166.744 366.74L169.964 367.727L165.826 369.549Z" fill="#0161CD" stroke="#0161CD" stroke-width="0.173018" stroke-linecap="round" stroke-linejoin="round"/>
<path d="M155.812 379.185L155.738 372.918L150.998 373.675L155.812 379.185ZM170.239 371.031L171.772 377.107L175.015 370.548L170.239 371.031ZM172.973 363.765L164.479 365.257L165.842 369.547L166.759 366.738L169.979 367.725L172.973 363.765ZM155.159 369.655L158.019 367.876L159.609 370.359L159.843 365.861L151.236 366.595L155.159 369.655Z" fill="#28C5FD" stroke="#28C5FD" stroke-width="0.173018" stroke-linecap="round" stroke-linejoin="round"/>
<path d="M151.234 366.595L155.732 373.12L155.157 369.655L151.234 366.595ZM169.978 367.726L170.279 371.226L172.971 363.765L169.978 367.726ZM159.842 365.861L159.608 370.359L161.286 375.412L160.626 368.557L159.842 365.861ZM164.478 365.257L164.424 368.047L165.497 374.863L165.84 369.547L164.478 365.257Z" fill="#28C5FD" stroke="#28C5FD" stroke-width="0.173018" stroke-linecap="round" stroke-linejoin="round"/>
<path d="M165.841 369.547L165.498 374.863L166.293 375.27L170.28 371.226L169.979 367.726L165.841 369.547ZM155.158 369.655L155.733 373.12L160.623 376.008L161.287 375.411L159.609 370.359L155.158 369.655Z" fill="#28C5FD" stroke="#28C5FD" stroke-width="0.173018" stroke-linecap="round" stroke-linejoin="round"/>
<path d="M167.278 379.995L167.139 378.576L166.716 378.291L160.985 379.037L160.679 379.417L160.894 380.827L155.811 379.185L157.661 380.335L161.357 382.25L167.179 381.492L170.277 378.693L171.771 377.107L167.278 379.995Z" fill="#28C5FD" stroke="#28C5FD" stroke-width="0.173018" stroke-linecap="round" stroke-linejoin="round"/>
<path d="M166.293 375.27L165.498 374.863L161.287 375.411L160.623 376.008L160.68 379.417L160.986 379.037L166.717 378.291L167.141 378.576L166.293 375.27Z" fill="#0161CD" stroke="#0161CD" stroke-width="0.173018" stroke-linecap="round" stroke-linejoin="round"/>
<path d="M179.246 355.544L179.73 349.174L177.05 343.665L163.84 356.422L170.083 360.447L178.336 361.738L179.832 359.456L179.001 359.008L180.072 357.74L179.035 357.133L180.13 356.048L179.246 355.544ZM140.969 354.221L143.068 360.254L142.326 360.969L143.663 361.738L142.831 362.588L144.192 363.54L143.503 364.186L145.518 366.01L153.165 362.65L158.17 357.16L142.134 348.21L140.969 354.221Z" fill="#0161CD" stroke="#0161CD" stroke-width="0.173018" stroke-linecap="round" stroke-linejoin="round"/>
<path d="M178.335 361.737L170.083 360.447L172.972 363.765L170.28 371.226L175.015 370.548L182.083 369.628L178.335 361.737ZM153.164 362.649L145.517 366.01L143.945 374.593L150.998 373.675L155.733 373.12L151.236 366.595L153.164 362.649ZM164.479 365.257L163.839 356.421L165.336 349.873L155.076 351.209L158.169 357.159L159.843 365.861L160.385 368.603L161.287 375.411L165.498 374.863L164.642 368.049L164.479 365.257Z" fill="#28C5FD" stroke="#28C5FD" stroke-width="0.173018" stroke-linecap="round" stroke-linejoin="round"/>
<path d="M37.2473 248.614L44.0812 299.317C45.0832 306.751 51.6023 312.186 59.0953 311.833L122.5 308.849C132.221 308.392 139.308 299.468 137.552 289.896L127.899 237.289C126.78 231.186 121.459 226.753 115.254 226.753H56.3596C44.6851 226.753 35.6879 237.044 37.2473 248.614Z" fill="#006DF5" stroke="#0159C9" stroke-width="3.2142"/>
<path d="M42.0109 241.072L49.779 294.947C50.7235 301.498 56.4866 306.261 63.0978 305.956L125.379 303.077C133.174 302.717 138.853 295.551 137.424 287.88L127.925 236.883C126.791 230.795 121.478 226.38 115.286 226.38H54.7361C46.9054 226.38 40.8934 233.321 42.0109 241.072Z" fill="#0196FF" stroke="#0159C9" stroke-width="3.2142"/>
<path d="M67.4863 268.912C80.3372 268.082 91.4278 277.827 92.2578 290.677L84.3701 291.187C83.8216 282.693 76.4907 276.251 67.9961 276.8L67.4863 268.912ZM67.0254 255.703C87.1404 254.404 104.5 269.657 105.799 289.772L96.5781 290.368C95.6081 275.345 82.6436 263.954 67.6211 264.924L67.0254 255.703ZM66.3477 241.764C94.1482 239.969 118.14 261.051 119.936 288.851L109.767 289.508C108.334 267.323 89.1881 250.501 67.0039 251.933L66.3477 241.764Z" fill="#28C5FD"/>
<path d="M358.466 427.834C358.466 440.559 327.104 450.875 288.417 450.875C249.731 450.875 218.369 440.559 218.369 427.834C218.369 419.407 218.363 416.314 218.359 411.376C223.57 411.376 345.398 411.377 358.466 411.377C358.466 411.377 358.466 415.109 358.466 427.834Z" fill="#173DA0" stroke="#162C86" stroke-width="3.2142"/>
<ellipse cx="288.413" cy="410.259" rx="70.0532" ry="24.2205" fill="#1A48AB" stroke="#162C86" stroke-width="3.2142"/>
<path d="M345.049 406.532C345.049 415.999 319.691 423.673 288.41 423.673C257.129 423.673 231.771 415.999 231.771 406.532V359.582H345.049V406.532Z" fill="#173DA0"/>
<path d="M288.41 423.673V425.28V423.673ZM231.771 359.582V357.975H230.164V359.582H231.771ZM345.049 359.582H346.656V357.975H345.049V359.582ZM345.049 406.532H343.442C343.442 408.126 342.368 409.961 339.663 411.897C336.997 413.805 333.035 415.589 327.994 417.114C317.934 420.159 303.938 422.066 288.41 422.066V423.673V425.28C304.163 425.28 318.487 423.349 328.925 420.19C334.134 418.614 338.467 416.705 341.533 414.511C344.56 412.345 346.656 409.671 346.656 406.532H345.049ZM288.41 423.673V422.066C272.882 422.066 258.887 420.159 248.826 417.114C243.786 415.589 239.824 413.805 237.158 411.897C234.452 409.961 233.379 408.126 233.379 406.532H231.771H230.164C230.164 409.671 232.261 412.345 235.287 414.511C238.353 416.705 242.686 418.614 247.895 420.19C258.334 423.349 272.657 425.28 288.41 425.28V423.673ZM231.771 406.532H233.379V359.582H231.771H230.164V406.532H231.771ZM231.771 359.582V361.189H345.049V359.582V357.975H231.771V359.582ZM345.049 359.582H343.442V406.532H345.049H346.656V359.582H345.049Z" fill="#162C86"/>
<ellipse cx="288.412" cy="358.836" rx="56.6388" ry="17.1407" fill="#1A48AB" stroke="#162C86" stroke-width="3.2142"/>
<path d="M331.652 351.638C331.652 358.75 312.299 364.515 288.425 364.515C264.551 364.515 245.197 358.75 245.197 351.638C245.197 346.929 245.194 345.2 245.191 342.441C248.407 342.441 323.588 342.441 331.652 342.441C331.652 342.441 331.652 344.527 331.652 351.638Z" fill="#FFBB00" stroke="#EB8E00" stroke-width="3.2142" stroke-linejoin="round"/>
<path d="M303.316 299.962C303.316 315.612 306 336.181 331.636 342.441H331.643C331.642 349.553 312.288 355.317 288.415 355.317C264.914 355.317 245.793 349.731 245.201 342.773L245.188 342.441C270.824 336.181 273.507 315.612 273.507 299.962H303.316Z" fill="#FFBB00"/>
<path d="M303.316 299.962H304.924C304.924 299.074 304.204 298.355 303.316 298.355V299.962ZM331.636 342.441L331.255 344.003C331.379 344.033 331.507 344.049 331.636 344.049V342.441ZM331.643 342.441L333.25 342.442C333.25 342.015 333.08 341.607 332.779 341.305C332.478 341.004 332.069 340.834 331.643 340.834V342.441ZM288.415 355.317V356.924H288.415L288.415 355.317ZM245.201 342.773L243.595 342.84C243.596 342.863 243.598 342.886 243.6 342.91L245.201 342.773ZM245.188 342.441L244.806 340.88C244.063 341.062 243.55 341.743 243.582 342.508L245.188 342.441ZM273.507 299.962V298.355C272.619 298.355 271.9 299.074 271.9 299.962H273.507ZM303.316 299.962H301.709C301.709 307.84 302.375 317.206 306.42 325.432C310.513 333.755 317.99 340.764 331.255 344.003L331.636 342.441L332.017 340.88C319.645 337.859 312.963 331.453 309.305 324.014C305.599 316.478 304.924 307.734 304.924 299.962H303.316ZM331.636 342.441V344.049H331.643V342.441V340.834H331.636V342.441ZM331.643 342.441L330.035 342.441C330.035 343.435 329.352 344.709 327.32 346.139C325.332 347.539 322.351 348.865 318.522 350.006C310.886 352.28 300.241 353.71 288.415 353.71L288.415 355.317L288.415 356.924C300.462 356.924 311.431 355.472 319.44 353.086C323.434 351.897 326.783 350.448 329.17 348.767C331.514 347.117 333.249 345.004 333.25 342.442L331.643 342.441ZM288.415 355.317V353.71C276.774 353.71 266.277 352.325 258.666 350.111C254.852 349.002 251.845 347.708 249.793 346.333C247.69 344.925 246.888 343.643 246.802 342.637L245.201 342.773L243.6 342.91C243.81 345.383 245.62 347.408 248.004 349.004C250.437 350.633 253.79 352.041 257.769 353.198C265.742 355.517 276.555 356.924 288.415 356.924V355.317ZM245.201 342.773L246.807 342.707L246.793 342.375L245.188 342.441L243.582 342.508L243.595 342.84L245.201 342.773ZM245.188 342.441L245.569 344.003C258.833 340.764 266.31 333.755 270.403 325.432C274.448 317.206 275.114 307.84 275.114 299.962H273.507H271.9C271.9 307.734 271.224 316.478 267.519 324.014C263.861 331.453 257.178 337.859 244.806 340.88L245.188 342.441ZM273.507 299.962V301.569H303.316V299.962V298.355H273.507V299.962Z" fill="#EB8E00"/>
<circle cx="236.617" cy="268.289" r="12.2966" fill="#FFCA02" stroke="#EB8E00" stroke-width="3.2142"/>
<circle cx="340.207" cy="268.289" r="12.2966" fill="#FFCA02" stroke="#EB8E00" stroke-width="3.2142"/>
<path d="M179.546 183.197C183.236 182.771 187.857 182.677 192.476 182.752C201.74 182.901 218.238 184.59 223.623 185.394L221.423 200.135C216.822 199.449 200.996 197.796 192.236 197.655C188.049 197.587 184.345 197.68 181.647 197.961C181.776 199.62 182.111 201.732 182.734 204.188C184.116 209.636 186.811 216.373 191.269 223.096C200.078 236.378 215.806 249.703 242.503 252.985L240.684 267.779C209.251 263.914 189.823 247.883 178.848 231.334C173.414 223.141 170.061 214.843 168.287 207.854C167.401 204.361 166.884 201.094 166.728 198.243C166.584 195.603 166.703 192.591 167.656 190.025C168.485 187.794 170.034 186.461 171.07 185.759C172.138 185.036 173.234 184.592 174.089 184.305C175.803 183.731 177.743 183.405 179.546 183.197Z" fill="#FFCA02" stroke="#EB8E00" stroke-width="3.2142"/>
<path d="M397.659 183.197C393.969 182.771 389.348 182.677 384.729 182.752C375.465 182.901 358.967 184.59 353.582 185.394L355.783 200.135C360.383 199.449 376.209 197.796 384.969 197.655C389.156 197.587 392.86 197.68 395.558 197.961C395.429 199.62 395.094 201.732 394.471 204.188C393.089 209.636 390.394 216.373 385.936 223.096C377.127 236.378 361.399 249.703 334.702 252.985L336.521 267.779C367.954 263.914 387.382 247.883 398.358 231.334C403.791 223.141 407.145 214.843 408.918 207.854C409.804 204.361 410.321 201.094 410.477 198.243C410.621 195.603 410.502 192.591 409.549 190.025C408.72 187.794 407.171 186.461 406.135 185.759C405.067 185.036 403.971 184.592 403.116 184.305C401.402 183.731 399.462 183.405 397.659 183.197Z" fill="#FFCA02" stroke="#EB8E00" stroke-width="3.2142"/>
<path d="M272.017 283.684H305.553C307.958 283.684 309.907 285.633 309.907 288.038C309.907 295.382 303.954 301.336 296.609 301.336H280.96C273.616 301.336 267.662 295.382 267.662 288.038C267.662 285.633 269.612 283.684 272.017 283.684Z" fill="#FFBB00" stroke="#EB8E00" stroke-width="3.2142"/>
<path d="M290.275 295.863C290.275 295.246 290.776 294.745 291.393 294.745C297.579 294.745 301.219 294.109 302.633 293.796C302.977 293.72 303.317 293.982 303.317 294.334C303.317 297.236 300.964 299.589 298.062 299.589H290.896C290.553 299.589 290.275 299.311 290.275 298.968V295.863Z" fill="#FFCA02"/>
<path d="M288.464 275.369C229.978 275.369 215 200.067 216.797 161.322C216.859 159.977 217.764 158.866 219.07 158.535C226.214 156.729 250.859 151.285 288.464 151.285C326.069 151.285 350.715 156.729 357.859 158.535C359.164 158.866 360.069 159.977 360.132 161.322C361.928 200.067 346.95 275.369 288.465 275.369H288.464Z" fill="url(#paint2_linear_579_35534)" stroke="#EB8E00" stroke-width="3.2142"/>
<path d="M288.465 290.274C228.845 290.274 215.927 212.023 216.921 174.015C216.921 174.015 243.378 166.19 288.465 166.19C333.552 166.19 360.01 174.015 360.01 174.015C361.003 212.023 348.086 290.274 288.466 290.274H288.465Z" fill="#FFCA02" stroke="#EB8E00" stroke-width="3.2142"/>
<path d="M288.412 288.41C230.077 288.41 217.438 212.274 218.41 175.294C218.41 175.294 244.297 167.68 288.412 167.68C332.527 167.68 358.415 175.294 358.415 175.294C359.387 212.274 346.748 288.41 288.413 288.41H288.412Z" fill="#FFCA02"/>
<path d="M288.412 167.68C332.44 167.68 358.313 175.264 358.415 175.294C359.383 212.13 346.847 287.816 289.094 288.407L288.413 288.41V273.506C309.283 273.505 322.914 260.551 331.995 239.755C339.302 223.023 342.552 207.298 343.354 176.387C341.635 176.068 339.722 175.735 337.619 175.401C326.33 173.609 309.613 171.779 288.412 171.779C267.211 171.779 250.494 173.609 239.205 175.401C237.103 175.735 235.189 176.068 233.47 176.387C234.272 207.298 237.523 223.023 244.83 239.755C253.911 260.551 267.542 273.505 288.412 273.506V288.41C230.988 288.41 217.844 214.635 218.375 177.056L218.41 175.294C218.511 175.264 244.383 167.68 288.412 167.68ZM288.413 273.506V288.41H288.412V273.506H288.413Z" fill="#EB8E00" fill-opacity="0.2"/>
<path d="M263.821 203.757C264.531 202.413 265.561 201.265 266.829 200.424L287.926 185.566L266.313 221.626C266.313 221.626 264.419 218.405 263.681 216.781C262.762 214.736 262.303 212.51 262.331 210.255C262.344 208.001 262.86 205.788 263.821 203.757ZM255.117 228.642C255.354 232.087 256.315 235.448 257.944 238.487C259.573 241.526 261.829 244.186 264.559 246.273L287.898 262.685C287.898 262.685 273.304 241.456 260.994 220.338C259.754 218.111 258.905 215.661 258.515 213.14C258.348 211.992 258.348 210.829 258.515 209.681C258.195 210.283 257.568 211.515 257.568 211.515C256.315 214.092 255.465 216.837 255.047 219.666C254.797 222.649 254.825 225.659 255.117 228.642ZM314.607 231.499C313.855 229.875 311.989 226.654 311.989 226.654L290.405 262.699L311.502 247.841C312.755 247.001 313.786 245.853 314.51 244.509C315.471 242.478 315.986 240.265 316.014 238.011C316.042 235.77 315.568 233.53 314.663 231.485L314.607 231.499ZM323.172 219.624C322.935 216.179 321.96 212.818 320.345 209.779C318.729 206.74 316.46 204.079 313.73 201.993L290.433 185.566C290.433 185.566 305.027 206.796 317.337 227.914C318.576 230.141 319.412 232.591 319.802 235.112C319.969 236.26 319.969 237.423 319.802 238.571C320.122 237.969 320.749 236.736 320.749 236.736C322.002 234.16 322.851 231.415 323.269 228.586C323.52 225.589 323.492 222.593 323.2 219.596L323.172 219.624Z" fill="white"/>
<path d="M324.187 404.7L324.175 404.873C323.686 408.498 307.862 411.407 288.414 411.407C268.966 411.407 253.144 408.498 252.654 404.873L252.643 404.7V385.441C252.643 384.351 253.704 383.565 254.765 383.814C261.446 385.384 274.012 386.442 288.413 386.442C302.816 386.442 315.383 385.383 322.063 383.813C323.125 383.564 324.187 384.35 324.187 385.44V404.7Z" fill="#FFBB00"/>
<path d="M324.187 404.7L325.79 404.809L325.794 404.755V404.7H324.187ZM324.175 404.873L325.767 405.088L325.775 405.035L325.778 404.982L324.175 404.873ZM288.414 411.407L288.414 413.015H288.414V411.407ZM252.654 404.873L251.051 404.982L251.054 405.035L251.062 405.088L252.654 404.873ZM252.643 404.7H251.035V404.755L251.039 404.809L252.643 404.7ZM288.413 386.442V388.049V386.442ZM322.063 383.813L321.696 382.249L322.063 383.813ZM324.187 404.7L322.583 404.592L322.571 404.765L324.175 404.873L325.778 404.982L325.79 404.809L324.187 404.7ZM324.175 404.873L322.582 404.658C322.598 404.543 322.639 404.653 322.273 404.954C321.923 405.243 321.346 405.582 320.491 405.942C318.791 406.659 316.289 407.337 313.115 407.919C306.787 409.077 298.07 409.8 288.414 409.8V411.407V413.015C298.206 413.015 307.125 412.283 313.693 411.08C316.967 410.481 319.728 409.752 321.74 408.904C322.742 408.482 323.633 407.999 324.317 407.435C324.987 406.883 325.63 406.11 325.767 405.088L324.175 404.873ZM288.414 411.407L288.414 409.8C278.758 409.8 270.041 409.077 263.714 407.919C260.54 407.337 258.038 406.659 256.338 405.942C255.483 405.582 254.906 405.243 254.556 404.954C254.19 404.653 254.231 404.543 254.247 404.658L252.654 404.873L251.062 405.088C251.2 406.11 251.842 406.883 252.512 407.435C253.196 407.999 254.087 408.482 255.089 408.904C257.1 409.752 259.862 410.481 263.135 411.08C269.704 412.283 278.622 413.015 288.414 413.015L288.414 411.407ZM252.654 404.873L254.258 404.765L254.246 404.592L252.643 404.7L251.039 404.809L251.051 404.982L252.654 404.873ZM252.643 404.7H254.25V385.441H252.643H251.035V404.7H252.643ZM254.765 383.814L254.398 385.379C261.263 386.991 273.978 388.049 288.413 388.049V386.442V384.835C274.047 384.835 261.63 383.776 255.133 382.25L254.765 383.814ZM288.413 386.442V388.049C302.85 388.049 315.567 386.991 322.431 385.378L322.063 383.813L321.696 382.249C315.2 383.776 302.781 384.835 288.413 384.835V386.442ZM324.187 385.44H322.579V404.7H324.187H325.794V385.44H324.187ZM322.063 383.813L322.431 385.378C322.47 385.369 322.514 385.377 322.553 385.405C322.57 385.419 322.577 385.43 322.579 385.433C322.579 385.433 322.579 385.433 322.579 385.44H324.187H325.794C325.794 383.239 323.692 381.78 321.696 382.249L322.063 383.813ZM252.643 385.441H254.25C254.25 385.434 254.25 385.434 254.251 385.434C254.252 385.43 254.259 385.419 254.276 385.406C254.315 385.377 254.359 385.369 254.398 385.379L254.765 383.814L255.133 382.25C253.137 381.781 251.035 383.24 251.035 385.441H252.643Z" fill="#EB8E00"/>
<path d="M304.807 409.141V387.528C311.886 387.156 319.215 386.038 322.693 385.293V404.669C319.339 407.65 309.775 408.644 304.807 409.141Z" fill="#FFCA02"/>
<path d="M408.195 353.295L408.193 353.286L408.192 353.294L393.473 326.478L409.932 338.972L409.932 338.974L409.935 338.972L428.917 330.784L408.195 353.295ZM415.121 296.275L429.399 326.699L429.402 326.701L410.429 334.893L410.429 334.892L410.429 334.893L410.428 334.892L410.428 334.893L410.426 334.891L393.97 322.396L393.971 322.395L415.117 296.276L415.12 296.272L415.12 296.273L415.122 296.271L415.121 296.275Z" fill="#28C5FD"/>
<path d="M298.473 305.552H290.275C290.275 328.282 291.393 345.05 295.865 353.247C308.534 352.875 315.614 351.012 324.557 347.658C299.218 336.852 299.218 315.24 298.473 305.552Z" fill="#FFCA02"/>
<defs>
<linearGradient id="paint0_linear_579_35534" x1="118.229" y1="235.012" x2="117.001" y2="268.241" gradientUnits="userSpaceOnUse">
<stop stop-color="#502887"/>
<stop offset="1" stop-color="#6440A2"/>
</linearGradient>
<linearGradient id="paint1_linear_579_35534" x1="135.313" y1="460.15" x2="78.2005" y2="480.956" gradientUnits="userSpaceOnUse">
<stop stop-color="#D1272F"/>
<stop offset="1" stop-color="#F1434A"/>
</linearGradient>
<linearGradient id="paint2_linear_579_35534" x1="360.272" y1="213.327" x2="216.656" y2="213.327" gradientUnits="userSpaceOnUse">
<stop stop-color="#FFCA02"/>
<stop offset="0.115385" stop-color="#FBBE02"/>
<stop offset="0.115485" stop-color="#FFCA02"/>
<stop offset="0.875" stop-color="#FFCA02"/>
<stop offset="0.8751" stop-color="#FBBE02"/>
<stop offset="1" stop-color="#FFCA02"/>
</linearGradient>
<clipPath id="clip0_579_35534">
<rect width="45.6829" height="46.3337" fill="white" transform="translate(471.346 218.387) rotate(7.92031)"/>
</clipPath>
</defs>
</svg>
