<?xml version="1.0" standalone="no"?>
<!DOCTYPE svg PUBLIC "-//W3C//DTD SVG 20010904//EN"
 "http://www.w3.org/TR/2001/REC-SVG-20010904/DTD/svg10.dtd">
<svg version="1.0" xmlns="http://www.w3.org/2000/svg"
 width="700.000000pt" height="700.000000pt" viewBox="0 0 700.000000 700.000000"
 preserveAspectRatio="xMidYMid meet">
<metadata>
Created by potrace 1.14, written by Peter Selinger 2001-2017
</metadata>
<g transform="translate(0.000000,700.000000) scale(0.100000,-0.100000)"
fill="#000000" stroke="none">
<path d="M3440 6642 c-95 -13 -173 -56 -284 -156 -464 -420 -1047 -692 -1656
-771 -100 -13 -118 -15 -185 -19 -38 -3 -128 -6 -200 -8 -142 -2 -214 -18
-288 -62 -71 -43 -132 -108 -170 -182 -44 -85 -163 -571 -182 -739 -3 -27 -7
-59 -9 -71 -4 -18 -12 -112 -21 -239 -5 -69 -6 -407 -1 -480 8 -108 17 -210
21 -225 2 -8 7 -42 10 -74 3 -33 8 -62 9 -65 2 -3 7 -28 10 -56 8 -58 32 -182
48 -240 5 -22 12 -48 13 -57 42 -214 270 -793 367 -931 11 -15 17 -27 14 -27
-3 0 29 -55 70 -122 451 -732 1072 -1265 1869 -1603 63 -27 224 -85 315 -113
52 -16 120 -37 150 -47 91 -29 212 -29 321 1 106 29 389 123 404 134 6 4 21
11 35 15 51 16 365 166 460 221 244 141 453 289 657 466 55 47 322 314 374
374 74 85 83 97 169 210 185 243 355 533 490 839 39 88 141 371 155 431 3 10
18 73 35 139 31 124 53 226 65 305 4 25 9 54 11 65 2 11 6 40 9 65 3 25 8 59
10 75 25 202 34 512 20 700 -11 150 -19 232 -31 310 -12 86 -15 103 -30 180
-8 44 -18 91 -20 105 -26 136 -106 403 -141 471 -48 91 -141 168 -248 204 -49
17 -78 19 -345 30 -74 2 -146 7 -160 9 -14 2 -47 7 -75 10 -109 14 -323 56
-400 80 -5 1 -29 8 -52 15 -100 28 -233 75 -338 119 -100 41 -370 184 -465
246 -95 62 -281 199 -320 236 -40 37 -157 140 -180 157 -72 55 -212 89 -310
75z"/>
</g>
</svg>
