<svg width="91" height="36" viewBox="0 0 91 36" fill="none" xmlns="http://www.w3.org/2000/svg">
<g clip-path="url(#clip0_3983_21936)">
<path d="M45.2315 18.7056C45.9423 18.3115 46.5157 17.7092 46.8751 16.9795C47.2605 16.2255 47.4568 15.263 47.4568 14.1194C47.4568 12.9759 47.2605 12.0121 46.8751 11.2426C46.5188 10.5085 45.9459 9.9017 45.2339 9.50444C44.5336 9.11846 43.6945 8.92188 42.7428 8.92188H38.9482C38.5302 8.92251 38.1296 9.08904 37.8341 9.38496C37.5386 9.68089 37.3723 10.0821 37.3716 10.5006V25.2877C37.3657 25.4356 37.4077 25.5815 37.4913 25.7036C37.5314 25.7589 37.5845 25.8034 37.6459 25.8331C37.7073 25.8628 37.7751 25.8768 37.8433 25.8739H38.8644C38.9333 25.8759 39.0017 25.8616 39.0641 25.8323C39.1265 25.8029 39.1811 25.7593 39.2235 25.7048C39.3139 25.5851 39.3605 25.4378 39.3552 25.2877V19.7281C39.3555 19.6116 39.4019 19.4998 39.4842 19.4174C39.5665 19.335 39.6781 19.2885 39.7945 19.2882H42.7356C43.6921 19.2882 44.5312 19.0928 45.2315 18.7056ZM45.4709 14.1194C45.4709 15.1191 45.2315 15.8923 44.7646 16.4149C44.2978 16.9376 43.5844 17.2013 42.6483 17.2013H39.8005C39.6784 17.201 39.5615 17.1522 39.4754 17.0657C39.3892 16.9792 39.3408 16.862 39.3408 16.7398V11.4751C39.3411 11.3531 39.3896 11.2362 39.4758 11.15C39.5619 11.0637 39.6787 11.0151 39.8005 11.0148H42.6435C43.6011 11.0148 44.3253 11.2869 44.779 11.8251C45.2327 12.3633 45.4661 13.1341 45.4661 14.1194H45.4709Z" fill="#5C5AA0"/>
<path d="M65.2078 25.8744H66.1906C66.2602 25.8791 66.33 25.8674 66.3942 25.8401C66.4585 25.8128 66.5154 25.7708 66.5605 25.7174C66.6303 25.6397 66.6786 25.5451 66.7006 25.4429L67.6426 22.3982C67.6747 22.2939 67.7393 22.2027 67.827 22.138C67.9147 22.0732 68.0209 22.0384 68.1298 22.0386H73.653C73.7622 22.0383 73.8685 22.0731 73.9564 22.1379C74.0443 22.2026 74.1092 22.2938 74.1414 22.3982L75.0835 25.4429C75.1173 25.5415 75.1671 25.6338 75.2308 25.7162C75.2732 25.7699 75.3282 25.8123 75.3907 25.8399C75.4533 25.8675 75.5217 25.8793 75.5899 25.8744H76.5726C76.6306 25.8733 76.6875 25.8585 76.7386 25.8312C76.7898 25.8039 76.8338 25.7649 76.8671 25.7174C76.9482 25.6155 76.9906 25.4881 76.9868 25.3578C76.9853 25.2654 76.972 25.1736 76.9473 25.0845L72.1938 9.47866C72.1497 9.33236 72.075 9.19712 71.9748 9.08189C71.9184 9.02753 71.8512 8.98567 71.7775 8.95903C71.7039 8.93239 71.6255 8.92156 71.5474 8.92726H70.2307C70.1526 8.92156 70.0742 8.93239 70.0006 8.95903C69.9269 8.98567 69.8597 9.02753 69.8033 9.08189C69.7019 9.19674 69.6271 9.33265 69.5842 9.47986L64.8092 25.0929C64.798 25.1816 64.792 25.2708 64.7912 25.3602C64.7875 25.4905 64.8299 25.6179 64.911 25.7198C64.9448 25.7672 64.9893 25.8059 65.0409 25.8328C65.0925 25.8597 65.1497 25.8739 65.2078 25.8744ZM68.4064 19.658L70.7119 12.0726C70.7244 12.0348 70.7484 12.0019 70.7807 11.9786C70.8129 11.9553 70.8517 11.9428 70.8914 11.9428C70.9312 11.9428 70.97 11.9553 71.0022 11.9786C71.0344 12.0019 71.0585 12.0348 71.071 12.0726L73.3753 19.658C73.3836 19.6864 73.3852 19.7163 73.38 19.7454C73.3748 19.7745 73.363 19.802 73.3454 19.8258C73.328 19.8498 73.3051 19.8693 73.2787 19.8827C73.2522 19.896 73.223 19.9028 73.1934 19.9025H68.5871C68.5581 19.9023 68.5296 19.8954 68.5037 19.8823C68.4778 19.8693 68.4552 19.8504 68.4377 19.8273C68.4203 19.8041 68.4083 19.7772 68.4029 19.7487C68.3975 19.7202 68.3986 19.6908 68.4064 19.6628V19.658Z" fill="#5C5AA0"/>
<path d="M55.3912 25.2828C55.4882 25.4509 55.6279 25.5903 55.7961 25.6869C55.9643 25.7835 56.1549 25.8339 56.3488 25.833H56.3548C56.5496 25.833 56.741 25.7811 56.9092 25.6828C57.0775 25.5844 57.2166 25.4431 57.3125 25.2732L61.4148 18.081C61.6052 17.7469 61.7025 17.3677 61.6964 16.983C61.6903 16.5984 61.581 16.2224 61.38 15.8946L57.2394 9.14592C57.14 8.98431 57.0008 8.85087 56.8353 8.75833C56.6698 8.66578 56.4833 8.61719 56.2938 8.61719C56.1042 8.61719 55.9178 8.66578 55.7522 8.75833C55.5867 8.85087 55.4476 8.98431 55.3481 9.14592L51.2159 15.8826C51.0125 16.2133 50.9028 16.5931 50.8986 16.9815C50.8943 17.3698 50.9958 17.752 51.1919 18.087L55.3912 25.2828ZM56.5882 12.0492L59.5809 16.9207C59.612 16.9731 59.6284 17.0329 59.6284 17.0939C59.6284 17.1548 59.612 17.2147 59.5809 17.2671L56.6277 22.4431C56.598 22.4946 56.5552 22.5374 56.5038 22.5671C56.4523 22.5969 56.3939 22.6125 56.3345 22.6125C56.275 22.6125 56.2167 22.5969 56.1652 22.5671C56.1137 22.5374 56.0709 22.4946 56.0412 22.4431L53.0174 17.2659C52.986 17.2132 52.9694 17.1529 52.9694 17.0915C52.9694 17.0301 52.986 16.9698 53.0174 16.9171L56.0101 12.0468C56.041 11.9986 56.0835 11.9591 56.1337 11.9318C56.184 11.9044 56.2403 11.8903 56.2974 11.8905C56.3546 11.8907 56.4107 11.9054 56.4607 11.9331C56.5107 11.9609 56.5529 12.0008 56.5835 12.0492H56.5882Z" fill="#5C5AA0"/>
<path d="M88.7823 9.50933C88.0808 9.12335 87.2429 8.92676 86.2912 8.92676H82.499C82.081 8.92739 81.6804 9.09392 81.3849 9.38984C81.0894 9.68577 80.9231 10.0869 80.9225 10.5054V25.2878C80.9164 25.4357 80.9584 25.5817 81.0422 25.7037C81.0826 25.7589 81.1359 25.8033 81.1975 25.833C81.2591 25.8627 81.327 25.8768 81.3953 25.8739H82.4164C82.4853 25.8759 82.5536 25.8616 82.616 25.8322C82.6784 25.8029 82.733 25.7593 82.7755 25.7049C82.866 25.5852 82.9125 25.4379 82.9072 25.2878V19.7282C82.9075 19.6116 82.9539 19.4999 83.0362 19.4175C83.1185 19.3351 83.2301 19.2886 83.3465 19.2883H86.2876C87.2453 19.2883 88.0832 19.0929 88.7787 18.7057C89.4886 18.3112 90.0612 17.709 90.4199 16.9796C90.8053 16.2244 91.0004 15.2619 91.0004 14.1195C91.0004 12.9772 90.8053 12.0122 90.4199 11.2426C90.0638 10.5108 89.4923 9.9059 88.7823 9.50933ZM82.8916 11.4752C82.8919 11.3532 82.9405 11.2363 83.0266 11.1501C83.1127 11.0638 83.2295 11.0152 83.3513 11.0149H86.1943C87.1519 11.0149 87.8702 11.287 88.3298 11.8252C88.7895 12.3634 89.0109 13.1342 89.0109 14.1195C89.0109 15.1048 88.7715 15.8924 88.3059 16.415C87.8402 16.9377 87.1268 17.2014 86.1895 17.2014H83.3513C83.2293 17.2011 83.1123 17.1523 83.0262 17.0658C82.94 16.9793 82.8916 16.8621 82.8916 16.7399V11.4752Z" fill="#5C5AA0"/>
<path d="M8.30194 31.5839C8.52211 31.481 8.76421 31.4341 9.0068 31.4473C9.55286 31.4767 10.0434 31.8209 10.2921 32.3507L11.524 34.9939L13.6547 29.1309C13.3285 29.0463 13.0151 28.9179 12.7231 28.7493L11.7956 28.2129C11.3269 27.9416 10.7953 27.7985 10.254 27.7977H9.18302C8.62618 27.7973 8.07639 27.6729 7.57345 27.4336L5.60938 32.8394L8.30194 31.5839Z" fill="#E4CBF5"/>
<path d="M11.7053 35.2957C11.6934 35.3293 11.6717 35.3585 11.643 35.3796C11.6143 35.4007 11.58 35.4127 11.5444 35.414H11.5361C11.5019 35.414 11.4684 35.4042 11.4395 35.3859C11.4107 35.3675 11.3877 35.3412 11.3732 35.3102L10.0464 32.4649C9.8432 32.0285 9.44018 31.7425 8.99488 31.7176C8.7964 31.7063 8.59824 31.7446 8.41813 31.8288L5.52364 33.1782C5.49142 33.1932 5.45549 33.1983 5.42038 33.1929C5.38528 33.1874 5.35256 33.1717 5.32635 33.1477C5.30015 33.1237 5.28163 33.0924 5.27313 33.0579C5.26463 33.0233 5.26654 32.987 5.2786 32.9536L7.33057 27.3078C7.13662 27.1979 6.95277 27.0711 6.7812 26.9287L4.45599 33.3306C4.41782 33.4352 4.41152 33.5489 4.43789 33.6571C4.46425 33.7653 4.52209 33.8633 4.60408 33.9386C4.68607 34.0139 4.78854 34.0632 4.8985 34.0801C5.00846 34.0971 5.12097 34.081 5.2218 34.0339L8.69178 32.4147C8.82686 32.3519 8.98125 32.3454 9.12114 32.3964C9.26103 32.4475 9.37501 32.552 9.43811 32.687L11.0551 36.158C11.1022 36.259 11.1781 36.3438 11.2732 36.4016C11.3684 36.4593 11.4785 36.4876 11.5897 36.4827C11.7009 36.4778 11.8081 36.44 11.8978 36.3741C11.9875 36.3082 12.0557 36.2171 12.0938 36.1124L14.5882 29.2496C14.3651 29.249 14.1425 29.2286 13.9231 29.1886L11.7053 35.2957Z" fill="#E4CBF5"/>
<path d="M5.32401 33.1489C5.35016 33.173 5.38291 33.1888 5.41807 33.1942C5.45323 33.1996 5.48919 33.1944 5.52137 33.1792L8.41586 31.8298C8.59596 31.7455 8.79412 31.7073 8.9926 31.7185C9.4379 31.7426 9.84092 32.0287 10.0441 32.4659L11.3709 35.3112C11.3854 35.3422 11.4084 35.3684 11.4373 35.3868C11.4661 35.4052 11.4996 35.415 11.5338 35.415H11.5421C11.5777 35.4136 11.612 35.4016 11.6407 35.3805C11.6694 35.3594 11.6911 35.3302 11.703 35.2966L13.92 29.1883C13.83 29.1717 13.7405 29.1522 13.6517 29.1289L11.5226 34.9927L10.2908 32.3496C10.0449 31.8219 9.55317 31.4777 9.00545 31.4461C8.76286 31.4329 8.52075 31.4799 8.30059 31.5827L5.60802 32.8383L7.5721 27.4341C7.48917 27.3926 7.40625 27.3511 7.32871 27.3096L5.27591 32.9562C5.26414 32.9895 5.26243 33.0255 5.27099 33.0598C5.27954 33.094 5.29798 33.125 5.32401 33.1489Z" fill="white"/>
<path d="M18.982 32.3015C19.0729 32.1054 19.2058 31.9317 19.3713 31.7929C19.3921 31.7754 19.4128 31.7584 19.4352 31.7422C19.8718 31.413 20.4717 31.3611 20.9983 31.6069L23.6391 32.8371L21.6667 27.4209C21.1555 27.6699 20.5945 27.7995 20.026 27.8H18.9555C18.4142 27.8008 17.8826 27.9439 17.4139 28.2152L16.4868 28.7499C16.2046 28.913 15.9024 29.0386 15.5879 29.1236L17.7269 34.9978L18.982 32.3015Z" fill="#E4CBF5"/>
<path d="M23.9723 32.9522C23.9845 32.9856 23.9865 33.022 23.978 33.0566C23.9696 33.0912 23.9511 33.1226 23.9249 33.1466C23.8986 33.1707 23.8659 33.1865 23.8307 33.1919C23.7955 33.1974 23.7595 33.1922 23.7273 33.1772L20.8846 31.8527C20.4484 31.6497 19.9563 31.6904 19.5993 31.9586C19.581 31.9723 19.5636 31.986 19.5466 32.0001C19.4115 32.1134 19.3031 32.2552 19.229 32.4153L17.8794 35.3129C17.8651 35.3441 17.8422 35.3704 17.8134 35.3889C17.7846 35.4074 17.7511 35.4172 17.7169 35.4172H17.7086C17.673 35.4158 17.6387 35.4038 17.61 35.3827C17.5813 35.3616 17.5596 35.3324 17.5477 35.2988L15.3216 29.1834C15.1029 29.2253 14.8809 29.2479 14.6582 29.2511L17.1584 36.1172C17.1967 36.2214 17.2649 36.3119 17.3545 36.3774C17.444 36.4429 17.551 36.4804 17.6618 36.4852C17.7726 36.49 17.8823 36.4619 17.9772 36.4044C18.072 36.3469 18.1478 36.2625 18.1949 36.162L19.812 32.6885C19.8752 32.5535 19.9891 32.4491 20.129 32.3981C20.2689 32.347 20.4232 32.3535 20.5583 32.4161L24.0262 34.0317C24.1271 34.0786 24.2396 34.0946 24.3495 34.0775C24.4594 34.0604 24.5618 34.0111 24.6438 33.9358C24.7257 33.8605 24.7836 33.7626 24.8099 33.6544C24.8363 33.5462 24.8301 33.4326 24.792 33.3279L22.4577 26.9053C22.2872 27.0497 22.1042 27.1786 21.9108 27.2906L23.9723 32.9522Z" fill="#E4CBF5"/>
<path d="M17.7081 35.4148H17.7164C17.7506 35.4148 17.7841 35.405 17.8129 35.3866C17.8418 35.3681 17.8647 35.3417 17.879 35.3106L19.2286 32.4134C19.3026 32.2533 19.4111 32.1115 19.5462 31.9982C19.5632 31.9837 19.5806 31.97 19.5988 31.9567C19.955 31.6885 20.4471 31.6478 20.8842 31.8508L23.7268 33.1753C23.7591 33.1903 23.7951 33.1954 23.8302 33.19C23.8654 33.1846 23.8982 33.1688 23.9244 33.1447C23.9506 33.1206 23.9691 33.0893 23.9776 33.0547C23.986 33.0201 23.984 32.9837 23.9719 32.9502L21.9095 27.2891C21.8303 27.3351 21.7491 27.3779 21.6665 27.4178L23.6389 32.834L20.9982 31.6038C20.4708 31.358 19.8716 31.4099 19.435 31.7391C19.4131 31.7553 19.3936 31.7723 19.3712 31.7898C19.2057 31.9286 19.0728 32.1023 18.9819 32.2984L17.7268 34.9938L15.5877 29.1197C15.499 29.1437 15.4099 29.1641 15.3203 29.1815L17.5473 35.2965C17.5592 35.3301 17.5809 35.3593 17.6096 35.3804C17.6382 35.4015 17.6726 35.4135 17.7081 35.4148Z" fill="white"/>
<path d="M28.1166 16.1713C28.3864 15.7017 28.5283 15.1695 28.5283 14.6278C28.5283 14.0861 28.3864 13.5539 28.1166 13.0843L27.5813 12.1555C27.2512 11.5826 27.0773 10.9328 27.0771 10.2714V9.19894C27.0763 8.65722 26.9334 8.12521 26.6629 7.65607C26.3924 7.18694 26.0037 6.7971 25.5356 6.52551L24.6081 5.9895C24.0362 5.65827 23.5613 5.18252 23.2307 4.60981L22.6954 3.68144C22.4241 3.2127 22.0347 2.82345 21.5661 2.55257C21.0976 2.28169 20.5663 2.13865 20.0252 2.13775H18.9547C18.2937 2.13749 17.6445 1.96339 17.0719 1.63287L16.1448 1.09686C15.6758 0.826733 15.1442 0.68457 14.6032 0.68457C14.0622 0.68457 13.5306 0.826733 13.0616 1.09686L12.1353 1.63287C11.563 1.96336 10.914 2.13746 10.2534 2.13775H9.1828C8.64181 2.1386 8.11052 2.28162 7.64202 2.55251C7.17352 2.8234 6.78422 3.21268 6.51304 3.68144L5.97735 4.60981C5.64694 5.18266 5.17193 5.65846 4.59996 5.9895L3.67245 6.52551C3.20441 6.79712 2.81575 7.18697 2.54531 7.65611C2.27486 8.12525 2.1321 8.65725 2.13129 9.19894V10.2714C2.13094 10.9328 1.95707 11.5825 1.62711 12.1555L1.09142 13.0843C0.82166 13.5539 0.679688 14.0861 0.679688 14.6278C0.679688 15.1695 0.82166 15.7017 1.09142 16.1713L1.62711 17.1001C1.95707 17.6731 2.13094 18.3228 2.13129 18.9842V20.055C2.1321 20.5967 2.27486 21.1287 2.54531 21.5978C2.81575 22.067 3.20441 22.4568 3.67245 22.7284L4.59996 23.2645C5.17193 23.5955 5.64694 24.0713 5.97735 24.6441L6.51304 25.5725C6.78416 26.0413 7.17344 26.4306 7.64195 26.7015C8.11047 26.9724 8.64179 27.1154 9.1828 27.1162H10.2534C10.914 27.1165 11.563 27.2906 12.1353 27.6211L13.0624 28.1571C13.5314 28.4272 14.063 28.5694 14.604 28.5694C15.145 28.5694 15.6766 28.4272 16.1456 28.1571L17.0719 27.6227C17.644 27.2923 18.2929 27.1182 18.9534 27.1179H20.024C20.565 27.117 21.0964 26.974 21.565 26.7031C22.0335 26.4323 22.4229 26.043 22.6942 25.5742L23.2294 24.6458C23.56 24.0731 24.035 23.5973 24.6068 23.2661L25.5343 22.7301C26.0029 22.4585 26.392 22.0685 26.6628 21.599C26.9335 21.1296 27.0764 20.5971 27.0771 20.055V18.9842C27.0773 18.3228 27.2512 17.673 27.5813 17.1001L28.1166 16.1713ZM15.1165 17.6535L16.7725 12.2456C16.7873 12.1946 16.8132 12.1476 16.8484 12.1078C16.8679 12.089 16.8912 12.0745 16.9167 12.0652C16.9422 12.056 16.9693 12.0523 16.9964 12.0542H17.4525C17.4795 12.0523 17.5067 12.056 17.5322 12.0652C17.5577 12.0745 17.581 12.089 17.6005 12.1078C17.6352 12.1477 17.6611 12.1945 17.6764 12.2452L19.3249 17.6515C19.3335 17.6823 19.3381 17.7141 19.3386 17.7461C19.3399 17.7912 19.3252 17.8354 19.2971 17.8707C19.2856 17.8871 19.2704 17.9006 19.2526 17.9101C19.2349 17.9195 19.2152 17.9247 19.1951 17.9251H18.8547C18.8311 17.9268 18.8074 17.9226 18.7858 17.9131C18.7641 17.9035 18.7451 17.8888 18.7303 17.8703C18.7083 17.8417 18.6911 17.8097 18.6793 17.7756L18.353 16.721C18.3419 16.6848 18.3194 16.6532 18.2889 16.6308C18.2585 16.6084 18.2217 16.5964 18.1839 16.5964H16.2667C16.2289 16.5964 16.1921 16.6084 16.1618 16.6309C16.1314 16.6533 16.109 16.6849 16.0979 16.721L15.7716 17.7756C15.764 17.811 15.7473 17.8438 15.7231 17.8707C15.7075 17.8892 15.6877 17.9037 15.6655 17.9132C15.6432 17.9226 15.6191 17.9267 15.595 17.9251H15.2546C15.2345 17.9247 15.2148 17.9195 15.1971 17.9101C15.1793 17.9006 15.1641 17.8871 15.1526 17.8707C15.1245 17.8354 15.1098 17.7912 15.1111 17.7461C15.1111 17.7152 15.1129 17.6843 15.1165 17.6535ZM10.4072 14.4648L11.8385 12.1315C11.8729 12.0755 11.9211 12.0293 11.9784 11.9972C12.0358 11.9651 12.1004 11.9483 12.166 11.9483C12.2317 11.9483 12.2963 11.9651 12.3536 11.9972C12.4109 12.0293 12.4591 12.0755 12.4936 12.1315L13.9278 14.469C13.9974 14.5826 14.0352 14.7128 14.0373 14.846C14.0395 14.9792 14.0058 15.1106 13.9398 15.2263L12.5189 17.7175C12.4857 17.7763 12.4375 17.8253 12.3792 17.8593C12.3209 17.8934 12.2547 17.9114 12.1872 17.9114H12.1851C12.1179 17.9117 12.0519 17.8942 11.9936 17.8608C11.9354 17.8273 11.887 17.779 11.8534 17.7208L10.3989 15.2296C10.3307 15.1134 10.2954 14.9808 10.2969 14.8461C10.2984 14.7113 10.3365 14.5795 10.4072 14.4648ZM6.45292 15.6432C6.4126 15.6433 6.37395 15.6594 6.34544 15.6879C6.31693 15.7165 6.30086 15.7552 6.30075 15.7955V17.7212C6.30258 17.7732 6.28648 17.8242 6.25514 17.8657C6.24045 17.8845 6.22153 17.8997 6.19993 17.9098C6.17832 17.92 6.15462 17.9249 6.13076 17.9242H5.77708C5.75348 17.9252 5.73 17.9204 5.70873 17.9101C5.68745 17.8998 5.66906 17.8844 5.65518 17.8653C5.62621 17.823 5.61167 17.7724 5.61372 17.7212V12.601C5.61394 12.4561 5.67154 12.3171 5.7739 12.2146C5.87626 12.1121 6.01502 12.0544 6.15978 12.0542H7.47331C7.80501 12.0542 8.09524 12.1223 8.33614 12.256C8.58245 12.3937 8.78059 12.6039 8.90376 12.858C9.03727 13.1229 9.10527 13.4576 9.10527 13.8545C9.10527 14.2514 9.03727 14.584 8.90376 14.8452C8.77952 15.0978 8.58119 15.3064 8.33531 15.443C8.09276 15.5771 7.80211 15.6448 7.47248 15.6448L6.45292 15.6432ZM23.9878 14.8435C23.8635 15.0961 23.6652 15.3047 23.4193 15.4414C23.1764 15.5755 22.8861 15.6432 22.5565 15.6432H21.5378C21.4974 15.6433 21.4588 15.6594 21.4303 15.6879C21.4018 15.7165 21.3857 15.7552 21.3856 15.7955V17.7212C21.3874 17.7732 21.3713 17.8242 21.34 17.8657C21.3253 17.8845 21.3064 17.8996 21.2848 17.9098C21.2631 17.9199 21.2395 17.9249 21.2156 17.9242H20.8619C20.8383 17.9252 20.8147 17.9203 20.7934 17.9101C20.7721 17.8998 20.7536 17.8844 20.7396 17.8653C20.7106 17.823 20.696 17.7725 20.6982 17.7212V12.601C20.6984 12.4563 20.7558 12.3175 20.8579 12.2151C20.96 12.1126 21.0984 12.0548 21.243 12.0542H22.5565C22.8882 12.0542 23.1784 12.1223 23.4193 12.256C23.666 12.3936 23.8644 12.6038 23.9878 12.858C24.1213 13.1229 24.1889 13.4576 24.1889 13.8545C24.1889 14.2514 24.1205 14.5819 23.9878 14.8435Z" fill="white"/>
<path d="M21.5381 14.9192H22.5229C22.8475 14.9192 23.0938 14.8274 23.2559 14.6468C23.418 14.4662 23.4985 14.1997 23.4985 13.8517C23.4985 13.5038 23.4184 13.243 23.2609 13.057C23.1033 12.871 22.8546 12.7764 22.5212 12.7764H21.5381C21.4959 12.7765 21.4555 12.7933 21.4257 12.8232C21.3958 12.8531 21.379 12.8936 21.3789 12.9358V14.7593C21.3789 14.8017 21.3957 14.8423 21.4255 14.8722C21.4554 14.9022 21.4959 14.9191 21.5381 14.9192Z" fill="white"/>
<path d="M7.43692 12.7764H6.45218C6.40999 12.7765 6.36956 12.7933 6.33972 12.8232C6.30989 12.8531 6.29308 12.8936 6.29297 12.9358V14.7593C6.29297 14.8017 6.30973 14.8423 6.33958 14.8722C6.36942 14.9022 6.40992 14.9191 6.45218 14.9192H7.43692C7.76115 14.9192 8.00785 14.8274 8.16997 14.6468C8.33209 14.4662 8.4146 14.198 8.4146 13.8517C8.4146 13.5054 8.33458 13.243 8.1766 13.057C8.01863 12.871 7.77027 12.7764 7.43692 12.7764Z" fill="white"/>
<path d="M16.4255 15.8547H18.0218C18.032 15.8548 18.0422 15.8524 18.0513 15.8478C18.0605 15.8432 18.0684 15.8364 18.0744 15.8281C18.0805 15.8199 18.0846 15.8104 18.0864 15.8003C18.0882 15.7902 18.0877 15.7798 18.0848 15.77L17.2866 13.1426C17.2823 13.1296 17.274 13.1182 17.2628 13.1101C17.2516 13.102 17.2382 13.0977 17.2244 13.0977C17.2107 13.0977 17.1972 13.102 17.1861 13.1101C17.1749 13.1182 17.1666 13.1296 17.1623 13.1426L16.3637 15.77C16.361 15.7797 16.3606 15.7899 16.3625 15.7997C16.3644 15.8096 16.3685 15.8189 16.3746 15.827C16.3806 15.835 16.3884 15.8415 16.3974 15.846C16.4064 15.8506 16.4163 15.8529 16.4263 15.853L16.4255 15.8547Z" fill="white"/>
<path d="M28.7063 12.7425L28.171 11.8141C27.9 11.3449 27.757 10.8125 27.7564 10.2704V9.198C27.7553 8.53669 27.581 7.88724 27.2507 7.31456C26.9205 6.74189 26.4459 6.26604 25.8744 5.93458L24.9502 5.39774C24.4816 5.12682 24.0923 4.7372 23.8216 4.268L23.2863 3.33921C22.9552 2.76698 22.48 2.29179 21.908 1.96115C21.336 1.63051 20.6874 1.456 20.027 1.45506H18.9552C18.4139 1.45427 17.8823 1.3111 17.4136 1.03987L16.4865 0.503439C15.9141 0.173597 15.2652 0 14.6047 0C13.9443 0 13.2954 0.173597 12.723 0.503439L11.7954 1.03987C11.3268 1.31113 10.7952 1.45431 10.2539 1.45506H9.18332C8.52288 1.456 7.87426 1.63051 7.30229 1.96115C6.73033 2.29179 6.25504 2.76698 5.92396 3.33921L5.38868 4.26841C5.11801 4.73741 4.72894 5.12688 4.26049 5.39774L3.33339 5.93417C2.76192 6.26562 2.28734 6.74147 1.95708 7.31415C1.62683 7.88683 1.45246 8.53628 1.45141 9.19759V10.27C1.45076 10.8121 1.30777 11.3445 1.03678 11.8137L0.502748 12.7425C0.173359 13.3157 0 13.9655 0 14.6269C0 15.2882 0.173359 15.938 0.502748 16.5112L1.03803 17.4383C1.30901 17.9076 1.452 18.44 1.45265 18.982V20.0541C1.45384 20.7154 1.62826 21.3649 1.9585 21.9376C2.28874 22.5103 2.76324 22.9863 3.33463 23.3179L4.26049 23.8556C4.72914 24.1265 5.11837 24.5161 5.38909 24.9853L5.92437 25.9141C6.26049 26.4953 6.74524 26.9763 7.3287 27.3075C7.40831 27.3528 7.48958 27.3947 7.57209 27.4321C8.07503 27.6714 8.62482 27.7957 9.18166 27.7962H10.2522C10.7935 27.7969 11.3251 27.9401 11.7938 28.2114L12.723 28.7482C13.015 28.9168 13.3283 29.0451 13.6546 29.1298C13.7434 29.153 13.8329 29.1713 13.9229 29.1892C14.1418 29.2293 14.3638 29.25 14.5863 29.251H14.6033H14.6564C14.879 29.2478 15.101 29.2252 15.3197 29.1833C15.4093 29.1659 15.4985 29.1456 15.5872 29.1215C15.9017 29.0365 16.2039 28.9109 16.4861 28.7478L17.4132 28.2114C17.8819 27.9401 18.4135 27.797 18.9548 27.7962H20.0253C20.5938 27.7957 21.1548 27.6661 21.666 27.4171C21.7489 27.3756 21.8318 27.3341 21.909 27.2884C22.4797 26.9579 22.9541 26.4833 23.2847 25.912L23.82 24.9832C24.0915 24.5147 24.4813 24.1258 24.9502 23.8556L25.8773 23.3196C26.4489 22.9878 26.9234 22.5115 27.2534 21.9385C27.5835 21.3654 27.7575 20.7156 27.7581 20.0541V18.9833C27.7587 18.4412 27.9017 17.9089 28.1727 17.4396L28.708 16.5112C29.0371 15.9378 29.2102 15.288 29.2099 14.6266C29.2096 13.9653 29.0359 13.3156 28.7063 12.7425ZM27.0777 20.0541C27.0768 20.5958 26.9339 21.1278 26.6634 21.5969C26.3929 22.0661 26.0042 22.4559 25.5361 22.7275L24.6086 23.2635C24.0367 23.5947 23.5618 24.0705 23.2312 24.6432L22.6959 25.5716C22.4247 26.0404 22.0353 26.4297 21.5667 26.7005C21.0982 26.9714 20.5668 27.1144 20.0257 27.1153H18.9552C18.2941 27.1158 17.6447 27.2905 17.0724 27.6218L16.1449 28.1578C15.6759 28.4279 15.1443 28.5701 14.6033 28.5701C14.0623 28.5701 13.5307 28.4279 13.0617 28.1578L12.1346 27.6218C11.5623 27.2913 10.9133 27.1172 10.2526 27.1169H9.18332C8.64231 27.1162 8.11098 26.9732 7.64247 26.7023C7.17395 26.4314 6.78467 26.042 6.51355 25.5732L5.97786 24.6449C5.64745 24.072 5.17244 23.5962 4.60048 23.2652L3.67296 22.7292C3.20468 22.4574 2.81587 22.0673 2.54541 21.5978C2.27495 21.1284 2.13232 20.596 2.13181 20.0541V18.9833C2.13145 18.3219 1.95759 17.6721 1.62762 17.0991L1.09193 16.1703C0.822172 15.7008 0.6802 15.1686 0.6802 14.6269C0.6802 14.0852 0.822172 13.5529 1.09193 13.0834L1.62762 12.1546C1.95759 11.5816 2.13145 10.9319 2.13181 10.2704V9.198C2.13262 8.65631 2.27537 8.12431 2.54582 7.65517C2.81627 7.18604 3.20493 6.79618 3.67296 6.52457L4.60048 5.98856C5.17244 5.65752 5.64745 5.18172 5.97786 4.60887L6.51355 3.6805C6.78474 3.21174 7.17403 2.82246 7.64253 2.55157C8.11103 2.28068 8.64232 2.13766 9.18332 2.13681H10.2539C10.9145 2.13653 11.5635 1.96242 12.1359 1.63193L13.063 1.09592C13.5319 0.825796 14.0635 0.683634 14.6045 0.683634C15.1456 0.683634 15.6771 0.825796 16.1461 1.09592L17.0724 1.63193C17.6447 1.96231 18.2937 2.13641 18.9543 2.13681H20.0249C20.5659 2.13772 21.0973 2.28075 21.5658 2.55163C22.0344 2.82252 22.4238 3.21176 22.6951 3.6805L23.2312 4.60887C23.5618 5.18158 24.0367 5.65734 24.6086 5.98856L25.5361 6.52457C26.0042 6.79616 26.3929 7.186 26.6634 7.65514C26.9339 8.12427 27.0768 8.65628 27.0777 9.198V10.2704C27.0778 10.9319 27.2517 11.5817 27.5818 12.1546L28.1171 13.0834C28.3869 13.5529 28.5288 14.0852 28.5288 14.6269C28.5288 15.1686 28.3869 15.7008 28.1171 16.1703L27.5818 17.0991C27.2517 17.672 27.0778 18.3218 27.0777 18.9833V20.0541Z" fill="#5C5AA0"/>
<path d="M8.33394 15.4406C8.58013 15.304 8.77876 15.0954 8.90322 14.8427C9.03673 14.5815 9.10472 14.2481 9.10472 13.852C9.10472 13.4559 9.03673 13.1221 8.90322 12.8556C8.77983 12.6013 8.58139 12.3911 8.33477 12.2535C8.09221 12.1198 7.80156 12.0518 7.47194 12.0518H6.15758C6.01282 12.052 5.87406 12.1097 5.7717 12.2122C5.66934 12.3147 5.61174 12.4536 5.61152 12.5986V17.7204C5.60947 17.7716 5.62401 17.8222 5.65298 17.8645C5.66686 17.8836 5.68525 17.899 5.70653 17.9093C5.7278 17.9196 5.75128 17.9244 5.77488 17.9234H6.12855C6.15242 17.9241 6.17612 17.9192 6.19772 17.909C6.21933 17.8988 6.23825 17.8837 6.25294 17.8649C6.28428 17.8234 6.30038 17.7724 6.29855 17.7204V15.7947C6.29866 15.7543 6.31473 15.7157 6.34324 15.6871C6.37175 15.6585 6.41039 15.6425 6.45072 15.6424H7.46945C7.80073 15.6424 8.09138 15.5747 8.33394 15.4406ZM8.41686 13.852C8.41686 14.1983 8.33394 14.4661 8.17224 14.6471C8.01053 14.8282 7.76342 14.9195 7.43918 14.9195H6.45279C6.41053 14.9194 6.37003 14.9025 6.34018 14.8725C6.31034 14.8426 6.29357 14.802 6.29358 14.7596V12.9361C6.29368 12.8939 6.31049 12.8534 6.34033 12.8235C6.37016 12.7936 6.4106 12.7768 6.45279 12.7767H7.43752C7.76922 12.7767 8.02007 12.8709 8.17721 13.0574C8.33435 13.2438 8.41521 13.5107 8.41521 13.852H8.41686Z" fill="#5C5AA0"/>
<path d="M15.2537 17.9233H15.5942C15.6183 17.9249 15.6424 17.9208 15.6647 17.9113C15.6869 17.9019 15.7067 17.8873 15.7223 17.8689C15.7464 17.8419 15.7632 17.8092 15.7708 17.7738L16.0971 16.7192C16.1082 16.6831 16.1306 16.6515 16.161 16.629C16.1913 16.6066 16.2281 16.5946 16.2658 16.5946H18.1789C18.2167 16.5945 18.2535 16.6066 18.284 16.629C18.3144 16.6514 18.3369 16.683 18.3481 16.7192L18.6744 17.7738C18.6861 17.8079 18.7033 17.8399 18.7254 17.8684C18.7401 17.887 18.7591 17.9017 18.7808 17.9113C18.8025 17.9208 18.8262 17.9249 18.8498 17.9233H19.1902C19.2103 17.9229 19.23 17.9177 19.2477 17.9083C19.2654 17.8988 19.2806 17.8853 19.2922 17.8689C19.3203 17.8336 19.335 17.7894 19.3336 17.7443C19.3331 17.7123 19.3285 17.6805 19.32 17.6496L17.6735 12.2442C17.6582 12.1936 17.6323 12.1467 17.5976 12.1068C17.5781 12.088 17.5548 12.0735 17.5293 12.0643C17.5038 12.055 17.4766 12.0513 17.4496 12.0532H16.9935C16.9665 12.0513 16.9393 12.055 16.9138 12.0643C16.8883 12.0735 16.865 12.088 16.8455 12.1068C16.8103 12.1466 16.7844 12.1937 16.7696 12.2447L15.1157 17.6525C15.1118 17.6833 15.1097 17.7142 15.1095 17.7451C15.1081 17.7903 15.1228 17.8344 15.1509 17.8697C15.1626 17.8861 15.178 17.8995 15.1959 17.9088C15.2138 17.9181 15.2336 17.9231 15.2537 17.9233ZM16.3616 15.7701L17.1602 13.1427C17.1645 13.1296 17.1729 13.1182 17.184 13.1101C17.1952 13.1021 17.2086 13.0977 17.2224 13.0977C17.2362 13.0977 17.2496 13.1021 17.2607 13.1101C17.2719 13.1182 17.2802 13.1296 17.2846 13.1427L18.0827 15.7701C18.0856 15.7799 18.0861 15.7903 18.0843 15.8003C18.0825 15.8104 18.0784 15.82 18.0724 15.8282C18.0663 15.8365 18.0584 15.8433 18.0493 15.8479C18.0401 15.8525 18.03 15.8549 18.0197 15.8548H16.4242C16.4142 15.8547 16.4043 15.8523 16.3953 15.8478C16.3864 15.8432 16.3785 15.8367 16.3725 15.8287C16.3664 15.8207 16.3623 15.8113 16.3604 15.8015C16.3585 15.7916 16.359 15.7814 16.3616 15.7717V15.7701Z" fill="#5C5AA0"/>
<path d="M11.853 17.7188C11.8866 17.777 11.935 17.8253 11.9933 17.8587C12.0515 17.8922 12.1176 17.9097 12.1847 17.9093H12.1868C12.2543 17.9093 12.3206 17.8914 12.3788 17.8573C12.4371 17.8232 12.4853 17.7743 12.5185 17.7154L13.9394 15.2243C14.0054 15.1086 14.0391 14.9772 14.037 14.844C14.0349 14.7107 13.997 14.5805 13.9274 14.467L12.4932 12.1294C12.4588 12.0734 12.4106 12.0272 12.3532 11.9952C12.2959 11.9631 12.2313 11.9463 12.1657 11.9463C12.1 11.9463 12.0354 11.9631 11.9781 11.9952C11.9207 12.0272 11.8726 12.0734 11.8381 12.1294L10.4068 14.4628C10.3364 14.5773 10.2984 14.7089 10.2969 14.8434C10.2955 14.9779 10.3306 15.1103 10.3985 15.2264L11.853 17.7188ZM12.2677 13.135L13.3042 14.8224C13.315 14.8405 13.3207 14.8613 13.3207 14.8824C13.3207 14.9035 13.315 14.9242 13.3042 14.9424L12.2813 16.7352C12.271 16.753 12.2562 16.7678 12.2384 16.7781C12.2206 16.7884 12.2003 16.7939 12.1798 16.7939C12.1592 16.7939 12.1389 16.7884 12.1211 16.7781C12.1033 16.7678 12.0885 16.753 12.0782 16.7352L11.0308 14.9419C11.0199 14.9237 11.0142 14.9028 11.0142 14.8815C11.0142 14.8603 11.0199 14.8394 11.0308 14.8211L12.0674 13.1342C12.0781 13.1175 12.0928 13.1038 12.1102 13.0944C12.1276 13.0849 12.1471 13.08 12.1669 13.0801C12.1867 13.0801 12.2062 13.0852 12.2235 13.0948C12.2408 13.1044 12.2554 13.1183 12.266 13.135H12.2677Z" fill="#5C5AA0"/>
<path d="M12.0669 13.1355L11.0303 14.8225C11.0194 14.8407 11.0137 14.8616 11.0137 14.8829C11.0137 14.9041 11.0194 14.925 11.0303 14.9433L12.0776 16.7365C12.0879 16.7544 12.1028 16.7692 12.1206 16.7795C12.1384 16.7898 12.1586 16.7952 12.1792 16.7952C12.1998 16.7952 12.22 16.7898 12.2379 16.7795C12.2557 16.7692 12.2705 16.7544 12.2808 16.7365L13.3037 14.9437C13.3144 14.9255 13.3201 14.9048 13.3201 14.8837C13.3201 14.8626 13.3144 14.8419 13.3037 14.8237L12.2671 13.1364C12.2566 13.1192 12.242 13.1051 12.2245 13.0952C12.207 13.0854 12.1873 13.0802 12.1672 13.0801C12.1472 13.08 12.1274 13.085 12.1098 13.0948C12.0923 13.1045 12.0775 13.1185 12.0669 13.1355Z" fill="white"/>
<path d="M23.4218 12.2545C23.1789 12.1208 22.8886 12.0527 22.559 12.0527H21.2455C21.1007 12.053 20.962 12.1106 20.8596 12.2131C20.7572 12.3156 20.6996 12.4546 20.6994 12.5995V17.7197C20.6973 17.771 20.7119 17.8215 20.7409 17.8638C20.7549 17.8829 20.7734 17.8983 20.7947 17.9086C20.816 17.9188 20.8395 17.9237 20.8632 17.9227H21.2169C21.2407 17.9234 21.2644 17.9185 21.286 17.9083C21.3076 17.8981 21.3265 17.883 21.3413 17.8642C21.3726 17.8227 21.3887 17.7717 21.3869 17.7197V15.794C21.387 15.7537 21.403 15.715 21.4316 15.6864C21.4601 15.6579 21.4987 15.6418 21.539 15.6417H22.5578C22.8895 15.6417 23.1797 15.574 23.4206 15.4399C23.6665 15.3032 23.8648 15.0946 23.989 14.842C24.1226 14.5804 24.1901 14.247 24.1901 13.8514C24.1901 13.4557 24.1226 13.1214 23.989 12.8549C23.8657 12.6014 23.6677 12.3919 23.4218 12.2545ZM21.3815 12.9354C21.3816 12.8932 21.3984 12.8527 21.4282 12.8228C21.4581 12.7929 21.4985 12.7761 21.5407 12.776H22.5254C22.8571 12.776 23.1059 12.8703 23.2651 13.0567C23.4243 13.2431 23.501 13.5101 23.501 13.8514C23.501 14.1926 23.4181 14.4654 23.2568 14.6464C23.0955 14.8275 22.8484 14.9188 22.5238 14.9188H21.5407C21.4984 14.9187 21.4579 14.9018 21.4281 14.8719C21.3982 14.8419 21.3815 14.8013 21.3815 14.759V12.9354Z" fill="#5C5AA0"/>
</g>
<defs>
<clipPath id="clip0_3983_21936">
<rect width="91" height="36" fill="white"/>
</clipPath>
</defs>
</svg>
