<svg width="128" height="28" viewBox="0 0 128 28" fill="none" xmlns="http://www.w3.org/2000/svg">
<g id="solanaLogo 1">
<g id="Clip path group">
<mask id="mask0_2038_20382" style="mask-type:luminance" maskUnits="userSpaceOnUse" x="6" y="5" width="115" height="17">
<g id="clip0_1064_606">
<path id="Vector" d="M120.488 5.07995H6.66797V21.88H120.488V5.07995Z" fill="white"/>
</g>
</mask>
<g mask="url(#mask0_2038_20382)">
<g id="Group">
<path id="Vector_2" d="M25.7901 18.3257L22.668 21.6507C22.6005 21.7229 22.5187 21.7806 22.4278 21.82C22.3368 21.8594 22.2387 21.8799 22.1394 21.8799H7.33931C7.26873 21.8799 7.19968 21.8594 7.14063 21.821C7.08158 21.7826 7.0351 21.7279 7.00686 21.6636C6.97863 21.5994 6.96987 21.5283 6.98166 21.4592C6.99346 21.3901 7.02529 21.3259 7.07326 21.2744L10.1919 17.9494C10.2594 17.8772 10.3412 17.8196 10.4321 17.7801C10.523 17.7407 10.6212 17.7203 10.7204 17.7202H25.5206C25.5917 17.7187 25.6619 17.7382 25.7219 17.7762C25.782 17.8142 25.8296 17.8691 25.8583 17.9338C25.8872 17.9985 25.896 18.0703 25.8839 18.14C25.8717 18.2097 25.8391 18.2743 25.7901 18.3257ZM22.668 11.6284C22.6002 11.5565 22.5184 11.4991 22.4275 11.4597C22.3366 11.4203 22.2386 11.3997 22.1394 11.3992H7.33931C7.26873 11.3992 7.19968 11.4197 7.14063 11.4581C7.08158 11.4966 7.0351 11.5512 7.00686 11.6155C6.97863 11.6798 6.96987 11.7508 6.98166 11.8199C6.99346 11.889 7.02529 11.9533 7.07326 12.0047L10.1919 15.3315C10.2596 15.4033 10.3415 15.4607 10.4324 15.5002C10.5232 15.5396 10.6213 15.5602 10.7204 15.5607H25.5206C25.591 15.5603 25.6598 15.5396 25.7186 15.501C25.7774 15.4625 25.8236 15.4078 25.8516 15.3436C25.8796 15.2794 25.8883 15.2085 25.8763 15.1395C25.8645 15.0706 25.8328 15.0065 25.7848 14.9552L22.668 11.6284ZM7.33931 9.23969H22.1394C22.2387 9.2396 22.3368 9.21918 22.4278 9.17973C22.5187 9.1403 22.6005 9.08266 22.668 9.01044L25.7901 5.68545C25.8391 5.63409 25.8717 5.56947 25.8839 5.49974C25.896 5.43 25.8872 5.35826 25.8583 5.29353C25.8296 5.22881 25.782 5.17399 25.7219 5.13599C25.6619 5.09798 25.5917 5.07848 25.5206 5.07994H10.7204C10.6212 5.08005 10.523 5.10046 10.4321 5.1399C10.3412 5.17934 10.2594 5.23697 10.1919 5.3092L7.07326 8.63419C7.02529 8.68562 6.99346 8.74984 6.98166 8.81897C6.96987 8.88809 6.97863 8.95913 7.00686 9.02339C7.0351 9.08765 7.08158 9.14233 7.14063 9.18075C7.19968 9.21918 7.26873 9.23965 7.33931 9.23969Z" fill="url(#paint0_linear_2038_20382)"/>
<path id="Vector_3" d="M43.8344 12.185H35.9163V9.59499H45.8923V7.00499H35.8899C35.5481 7.00315 35.2094 7.06818 34.893 7.19637C34.5766 7.32457 34.2885 7.51341 34.0457 7.75213C33.8027 7.99085 33.6094 8.27477 33.4769 8.58765C33.3444 8.90055 33.2752 9.23631 33.2734 9.57574V12.2007C33.2748 12.5405 33.3436 12.8766 33.4759 13.1899C33.6082 13.5032 33.8013 13.7875 34.0443 14.0266C34.2874 14.2657 34.5755 14.4549 34.8921 14.5833C35.2087 14.7117 35.5479 14.7768 35.8899 14.775H43.8185V17.365H33.462V19.955H43.8344C44.1762 19.9568 44.5148 19.8918 44.8313 19.7636C45.1477 19.6354 45.4358 19.4466 45.6786 19.2078C45.9216 18.9691 46.1148 18.6852 46.2473 18.3723C46.3798 18.0594 46.4491 17.7237 46.4508 17.3842V14.7592C46.4494 14.4195 46.3807 14.0834 46.2484 13.7701C46.1161 13.4568 45.923 13.1725 45.68 12.9334C45.4368 12.6943 45.1488 12.5051 44.8322 12.3767C44.5155 12.2483 44.1764 12.1831 43.8344 12.185Z" fill="black"/>
<path id="Vector_4" d="M59.1731 7.00496H51.2251C50.8827 7.00219 50.5432 7.06654 50.2259 7.19432C49.9087 7.32211 49.62 7.51079 49.3763 7.74962C49.1324 7.98842 48.9386 8.27264 48.8058 8.58599C48.6727 8.89935 48.6033 9.23568 48.6016 9.57571V17.3842C48.6033 17.7242 48.6727 18.0606 48.8058 18.3739C48.9386 18.6873 49.1324 18.9715 49.3763 19.2103C49.62 19.4491 49.9087 19.6378 50.2259 19.7656C50.5432 19.8934 50.8827 19.9577 51.2251 19.955H59.1731C59.5149 19.9568 59.8535 19.8918 60.17 19.7636C60.4864 19.6354 60.7745 19.4465 61.0173 19.2078C61.2603 18.9691 61.4535 18.6852 61.586 18.3723C61.7185 18.0594 61.7878 17.7236 61.7895 17.3842V9.57571C61.7878 9.23628 61.7185 8.90052 61.586 8.58762C61.4535 8.27474 61.2603 7.99082 61.0173 7.7521C60.7745 7.51338 60.4864 7.32454 60.17 7.19634C59.8535 7.06815 59.5149 7.00312 59.1731 7.00496ZM59.1537 17.365H51.2444V9.59496H59.1502L59.1537 17.365Z" fill="black"/>
<path id="Vector_5" d="M87.0115 7.00497H79.259C78.9172 7.00313 78.5786 7.06816 78.2621 7.19635C77.9457 7.32456 77.6576 7.5134 77.4148 7.75212C77.1719 7.99083 76.9786 8.27475 76.8461 8.58764C76.7136 8.90054 76.6443 9.23629 76.6426 9.57572V19.955H79.2855V15.7007H87.0027V19.955H89.6455V9.57572C89.6438 9.2348 89.574 8.89761 89.4405 8.58356C89.3067 8.26952 89.112 7.98483 88.8671 7.74587C88.6224 7.50692 88.3324 7.31845 88.0138 7.19129C87.6953 7.06414 87.3547 7.00082 87.0115 7.00497ZM86.9921 13.1107H79.2749V9.59497H86.9921V13.1107Z" fill="black"/>
<path id="Vector_6" d="M117.873 7.00499H110.12C109.779 7.00315 109.44 7.06818 109.123 7.19637C108.807 7.32457 108.519 7.51341 108.276 7.75213C108.033 7.99085 107.84 8.27477 107.707 8.58765C107.575 8.90055 107.506 9.23631 107.504 9.57574V19.955H110.147V15.7007H117.846V19.955H120.489V9.57574C120.487 9.23631 120.418 8.90055 120.286 8.58765C120.153 8.27477 119.96 7.99085 119.717 7.75213C119.474 7.51341 119.186 7.32457 118.87 7.19637C118.553 7.06818 118.215 7.00315 117.873 7.00499ZM117.846 13.1107H110.129V9.59499H117.846V13.1107Z" fill="black"/>
<path id="Vector_7" d="M102.516 17.365H101.459L97.6799 8.08997C97.5504 7.76998 97.3275 7.49574 97.04 7.30244C96.7524 7.10911 96.4133 7.00553 96.066 7.00497H93.7209C93.4929 7.00382 93.267 7.04727 93.0561 7.13283C92.845 7.2184 92.6531 7.3444 92.491 7.50365C92.3291 7.66292 92.2003 7.85229 92.1121 8.06099C92.0238 8.26968 91.9778 8.49361 91.9766 8.71997V19.955H94.6194V9.59497H95.6766L99.4541 18.87C99.5858 19.1893 99.8104 19.4625 100.099 19.6545C100.388 19.8465 100.728 19.9487 101.075 19.948H103.42C103.648 19.9491 103.874 19.9057 104.085 19.8201C104.296 19.7346 104.488 19.6085 104.65 19.4493C104.812 19.29 104.941 19.1007 105.029 18.892C105.117 18.6833 105.163 18.4594 105.165 18.233V7.00497H102.516V17.365Z" fill="black"/>
<path id="Vector_8" d="M66.7679 7.00495H64.125V17.3842C64.1268 17.7244 64.1964 18.0609 64.3294 18.3743C64.4624 18.6878 64.6564 18.9721 64.9002 19.2109C65.1441 19.4498 65.4332 19.6384 65.7505 19.7661C66.068 19.8938 66.4077 19.9579 66.7503 19.955H74.6789V17.365H66.7679V7.00495Z" fill="black"/>
</g>
</g>
</g>
</g>
<defs>
<linearGradient id="paint0_linear_2038_20382" x1="8.57266" y1="22.2807" x2="23.9738" y2="4.7994" gradientUnits="userSpaceOnUse">
<stop offset="0.08" stopColor="#9945FF"/>
<stop offset="0.3" stopColor="#8752F3"/>
<stop offset="0.5" stopColor="#5497D5"/>
<stop offset="0.6" stopColor="#43B4CA"/>
<stop offset="0.72" stopColor="#28E0B9"/>
<stop offset="0.97" stopColor="#19FB9B"/>
</linearGradient>
</defs>
</svg>
